G04 DipTrace 3.0.0.0*
G04 BoardOutline.gbr*
%MOIN*%
G04 #@! TF.FileFunction,Profile*
G04 #@! TF.Part,Single*
%ADD11C,0.005512*%
%FSLAX26Y26*%
G04*
G70*
G90*
G75*
G01*
G04 BoardOutline*
%LPD*%
X394016Y494016D2*
D11*
X394563Y483563D1*
X396201Y473224D1*
X398909Y463114D1*
X402661Y453343D1*
X407413Y444016D1*
X413114Y435238D1*
X419701Y427102D1*
X427102Y419701D1*
X435238Y413114D1*
X444016Y407413D1*
X453343Y402661D1*
X463114Y398911D1*
X473224Y396201D1*
X483563Y394563D1*
X494016Y394016D1*
X2294016D1*
X2304469Y394564D1*
X2314807Y396201D1*
X2324917Y398911D1*
X2334689Y402661D1*
X2344016Y407413D1*
X2352794Y413114D1*
X2360929Y419702D1*
X2368331Y427102D1*
X2374917Y435238D1*
X2380619Y444016D1*
X2385371Y453343D1*
X2389122Y463114D1*
X2391832Y473224D1*
X2393470Y483563D1*
X2394016Y494016D1*
Y1194016D1*
X2393467Y1204469D1*
X2391831Y1214807D1*
X2389121Y1224917D1*
X2385370Y1234689D1*
X2380618Y1244016D1*
X2374917Y1252794D1*
X2368329Y1260929D1*
X2360929Y1268331D1*
X2352794Y1274917D1*
X2344016Y1280619D1*
X2334689Y1285371D1*
X2324917Y1289122D1*
X2314807Y1291832D1*
X2304469Y1293470D1*
X2294016Y1294016D1*
X494016D1*
X483563Y1293469D1*
X473224Y1291831D1*
X463114Y1289122D1*
X453343Y1285370D1*
X444016Y1280618D1*
X435238Y1274917D1*
X427102Y1268331D1*
X419701Y1260929D1*
X413114Y1252794D1*
X407413Y1244016D1*
X402661Y1234689D1*
X398911Y1224917D1*
X396201Y1214807D1*
X394563Y1204469D1*
X394016Y1194016D1*
Y944016D1*
X414016Y924016D1*
Y764016D1*
X394016Y744016D1*
Y494016D1*
M02*
