G04 DipTrace 3.0.0.0*
G04 Bottom.gbl*
%MOIN*%
G04 #@! TF.FileFunction,Copper,L2,Bot*
G04 #@! TF.Part,Single*
%AMOUTLINE15*
4,1,8,
0.009853,0.075285,
0.023789,0.061349,
0.023789,-0.009853,
0.009853,-0.023789,
-0.009853,-0.023789,
-0.023789,-0.009853,
-0.023789,0.061349,
-0.009853,0.075285,
0.009853,0.075285,
0*%
%AMOUTLINE18*
4,1,8,
-0.009853,-0.075285,
-0.023789,-0.061349,
-0.023789,0.009853,
-0.009853,0.023789,
0.009853,0.023789,
0.023789,0.009853,
0.023789,-0.061349,
0.009853,-0.075285,
-0.009853,-0.075285,
0*%
G04 #@! TA.AperFunction,Conductor*
%ADD13C,0.016*%
G04 #@! TA.AperFunction,CopperBalancing*
%ADD14C,0.01*%
G04 #@! TA.AperFunction,ComponentPad*
%ADD27R,0.098425X0.098425*%
%ADD28C,0.066*%
%ADD40C,0.138425*%
G04 #@! TA.AperFunction,ViaPad*
%ADD49C,0.035685*%
G04 #@! TA.AperFunction,ComponentPad*
%ADD117OUTLINE15*%
%ADD120OUTLINE18*%
%FSLAX26Y26*%
G04*
G70*
G90*
G75*
G01*
G04 Bottom*
%LPD*%
X744016Y444016D2*
D13*
Y584016D1*
X669016Y659016D1*
Y854016D1*
X819016Y1004016D1*
X929016D1*
X424016Y1124016D2*
D14*
X454016Y1094016D1*
X964016D1*
X1039016Y1019016D1*
Y984016D1*
X794016Y619016D2*
D13*
X779016D1*
X744016Y584016D1*
X1039016Y984016D2*
D14*
Y974016D1*
D13*
X1054016Y959016D1*
X1174016D1*
X1244016Y1029016D1*
Y1129016D1*
X1044016Y444016D2*
D14*
X1064016D1*
X1174016Y554016D1*
X1284016D1*
X1319016Y519016D1*
X2044016D1*
X2104016Y579016D1*
Y689016D1*
X2054016Y739016D1*
X1969016D2*
X1959016Y729016D1*
X1674016D1*
X1604016Y799016D1*
Y914016D1*
X1574016Y944016D1*
X1539016D1*
X1444016Y1039016D1*
Y1094016D1*
X999016Y774016D2*
Y794016D1*
X1044016Y839016D1*
X1269016D1*
X1339016Y909016D1*
X564016Y1264016D2*
X904016D1*
X984016Y1184016D1*
X1284016D1*
X1294016Y1174016D1*
Y1034016D1*
X1204016Y519016D2*
X1229016Y494016D1*
X1684016D1*
X1694016Y484016D1*
X1744016Y1244016D2*
Y934016D1*
X1779016Y899016D1*
X1294016Y1034016D2*
X1319016D1*
X1399016Y954016D1*
Y814016D1*
X1354016Y769016D1*
X1254016D1*
X1659016Y619016D2*
X1649016D1*
X1579016Y689016D1*
X1544016D1*
X1644016Y1244016D2*
X1664016Y1224016D1*
Y854016D1*
X1854016Y764016D2*
X1684016D1*
X1629016Y819016D1*
Y969016D1*
X1604016Y994016D1*
X1519016D1*
X1494016Y1019016D1*
Y1149016D1*
X1444016Y1199016D1*
Y1244016D1*
X1544016Y769016D2*
X1659016Y654016D1*
X1744016D1*
X1774016Y624016D1*
X1344016Y1244016D2*
Y1134016D1*
X1424016Y1054016D1*
Y1019016D1*
X1549016Y894016D1*
X1569016D1*
X2144016Y1244016D2*
X2079016Y1179016D1*
Y1059016D1*
X1844016Y824016D1*
X1814016D1*
X2044016Y1244016D2*
Y1114016D1*
X1844016Y914016D1*
X969016Y984016D2*
Y1019016D1*
X949016Y1039016D1*
X754016D1*
X644016Y929016D1*
Y634016D1*
X669016Y609016D1*
X719016Y809016D2*
Y769016D1*
X834016Y654016D1*
X1304016Y704016D2*
X1224016D1*
X1114016Y814016D1*
X1064016D1*
X1034016Y784016D1*
Y709016D1*
X1079016Y664016D1*
Y529016D1*
X1044016Y494016D1*
X1029016D1*
X1014016Y479016D1*
X984016D1*
X969016Y494016D1*
X934016D1*
X914016Y514016D1*
X789016D1*
X1384016Y1019016D2*
Y1014016D1*
X1434016Y964016D1*
Y829016D1*
Y759016D1*
X1379016Y704016D1*
Y699016D1*
X2044016Y944016D2*
Y824016D1*
X2014016Y794016D1*
Y714016D1*
X2004016Y704016D1*
X1664016D1*
X1544016Y824016D1*
X1439016D1*
X1434016Y829016D1*
X1169016Y629016D2*
X1204016Y594016D1*
X1464016D1*
X1509016Y549016D1*
X1864016D1*
X1929016Y614016D1*
X1121516Y751516D2*
Y736516D1*
X1229016Y629016D1*
X1459016D1*
X1519016Y569016D1*
X1829016D1*
X1914016Y654016D1*
X1959016D1*
X1004016Y524016D2*
D13*
X939016D1*
X914016Y549016D1*
Y784016D1*
X884016Y814016D1*
X784016D1*
Y864016D1*
X809016Y889016D1*
X1094016D1*
Y899016D1*
D49*
X929016Y1004016D3*
X794016Y619016D3*
X424016Y1124016D3*
X1244016Y1129016D3*
X1039016Y984016D3*
X2054016Y739016D3*
X1444016Y1094016D3*
X1969016Y739016D3*
X999016Y774016D3*
X1339016Y909016D3*
X489016Y844016D3*
X904016Y939016D3*
X1299016Y989016D3*
X876516Y1199016D3*
X814016Y774016D3*
X1034016Y649016D3*
X1119016Y559016D3*
X1269016Y669016D3*
X1449016Y554016D3*
X584016Y429016D3*
X684016Y1029016D3*
X769016Y1139016D3*
X949016Y564016D3*
X1264016Y909016D3*
X1089016Y994016D3*
X1559016Y619016D3*
X564016Y1264016D3*
X1294016Y1034016D3*
X1204016Y519016D3*
X1254016Y769016D3*
X1779016Y899016D3*
X1694016Y484016D3*
X1659016Y619016D3*
X1544016Y689016D3*
X1814016Y824016D3*
X1844016Y914016D3*
X1604016Y994016D3*
X1854016Y764016D3*
X1774016Y624016D3*
X1544016Y769016D3*
X1569016Y894016D3*
X1664016Y854016D3*
X969016Y984016D3*
X669016Y609016D3*
X834016Y654016D3*
X719016Y809016D3*
X1384016Y1019016D3*
X1379016Y699016D3*
X1304016Y704016D3*
X789016Y514016D3*
X2044016Y944016D3*
X1169016Y629016D3*
X1929016Y614016D3*
X1121516Y751516D3*
X1959016Y654016D3*
X1004016Y524016D3*
X784016Y814016D3*
X1094016Y899016D3*
X931652Y1263399D2*
D14*
X1000864D1*
X1087160D2*
X1100864D1*
X1187160D2*
X1200864D1*
X1287160D2*
X1300864D1*
X1387160D2*
X1400864D1*
X1487160D2*
X1500864D1*
X1587160D2*
X1600864D1*
X1687160D2*
X1700864D1*
X1787160D2*
X1800864D1*
X1887160D2*
X1900864D1*
X1987160D2*
X2000864D1*
X941516Y1253530D2*
X997601D1*
X1090423D2*
X1097601D1*
X1190423D2*
X1197601D1*
X1290423D2*
X1297601D1*
X1390423D2*
X1397601D1*
X1490423D2*
X1497601D1*
X1590423D2*
X1597601D1*
X1690423D2*
X1697601D1*
X1790423D2*
X1797601D1*
X1890423D2*
X1897601D1*
X1990423D2*
X1997601D1*
X588703Y1243661D2*
X897367D1*
X951379D2*
X996625D1*
X1091399D2*
X1096623D1*
X1191399D2*
X1196623D1*
X1291399D2*
X1296623D1*
X1391399D2*
X1396623D1*
X1491399D2*
X1496623D1*
X1591399D2*
X1596623D1*
X1691399D2*
X1696623D1*
X1791399D2*
X1796623D1*
X1891399D2*
X1896623D1*
X1991399D2*
X1996623D1*
X573371Y1233793D2*
X907231D1*
X961243D2*
X997759D1*
X1090265D2*
X1097759D1*
X1190265D2*
X1197759D1*
X1290265D2*
X1297759D1*
X1390265D2*
X1397759D1*
X1490265D2*
X1497759D1*
X1590265D2*
X1597759D1*
X1690265D2*
X1697759D1*
X1790265D2*
X1797759D1*
X1890265D2*
X1897759D1*
X1990265D2*
X1997759D1*
X578136Y1223924D2*
X917094D1*
X971125D2*
X1001196D1*
X1086828D2*
X1101196D1*
X1186828D2*
X1201196D1*
X1286828D2*
X1301196D1*
X1386828D2*
X1401196D1*
X1486828D2*
X1501196D1*
X1586828D2*
X1601196D1*
X1686828D2*
X1701196D1*
X1786828D2*
X1801196D1*
X1886828D2*
X1901196D1*
X1986828D2*
X2001196D1*
X580812Y1214055D2*
X926957D1*
X980988D2*
X1007601D1*
X1080441D2*
X1107601D1*
X1180441D2*
X1207601D1*
X1280441D2*
X1307601D1*
X1380441D2*
X1407601D1*
X1480441D2*
X1507601D1*
X1580441D2*
X1607601D1*
X1683411D2*
X1707601D1*
X1780441D2*
X1807601D1*
X1880441D2*
X1907601D1*
X1980441D2*
X2007601D1*
X2080441D2*
X2086723D1*
X582375Y1204186D2*
X936840D1*
X990852D2*
X1019223D1*
X1068801D2*
X1119223D1*
X1168801D2*
X1219223D1*
X1268801D2*
X1319223D1*
X1368801D2*
X1419223D1*
X1468801D2*
X1519223D1*
X1568801D2*
X1619223D1*
X1683411D2*
X1719223D1*
X1768801D2*
X1819223D1*
X1868801D2*
X1919223D1*
X1968801D2*
X2019223D1*
X2068801D2*
X2077172D1*
X583391Y1194318D2*
X946703D1*
X1300715D2*
X1324633D1*
X1363411D2*
X1425239D1*
X1475715D2*
X1644633D1*
X1683411D2*
X1724633D1*
X1763411D2*
X2024633D1*
X2063411D2*
X2067314D1*
X582472Y1184449D2*
X956567D1*
X1310168D2*
X1324633D1*
X1363411D2*
X1431567D1*
X1485597D2*
X1644633D1*
X1683411D2*
X1724633D1*
X1763411D2*
X2024633D1*
X580911Y1174580D2*
X966449D1*
X1313391D2*
X1324633D1*
X1363411D2*
X1441449D1*
X1495461D2*
X1644633D1*
X1683411D2*
X1724633D1*
X1763411D2*
X2024633D1*
X578352Y1164711D2*
X1274633D1*
X1313411D2*
X1324633D1*
X1363411D2*
X1451312D1*
X1505324D2*
X1644633D1*
X1683411D2*
X1724633D1*
X1763411D2*
X2024633D1*
X573684Y1154843D2*
X1225453D1*
X1262591D2*
X1274633D1*
X1313411D2*
X1324633D1*
X1363411D2*
X1461176D1*
X1512453D2*
X1644633D1*
X1683411D2*
X1724633D1*
X1763411D2*
X2024633D1*
X568449Y1144974D2*
X1216156D1*
X1313411D2*
X1324633D1*
X1363411D2*
X1471039D1*
X1513411D2*
X1644633D1*
X1683411D2*
X1724633D1*
X1763411D2*
X2024633D1*
X560383Y1135105D2*
X1212387D1*
X1313411D2*
X1324633D1*
X1369933D2*
X1474633D1*
X1513411D2*
X1644633D1*
X1683411D2*
X1724633D1*
X1763411D2*
X2024633D1*
X550364Y1125236D2*
X1212016D1*
X1313411D2*
X1326860D1*
X1379797D2*
X1442075D1*
X1445969D2*
X1474633D1*
X1513411D2*
X1644633D1*
X1683411D2*
X1724633D1*
X1763411D2*
X2024633D1*
X534231Y1115367D2*
X1214927D1*
X1313411D2*
X1335648D1*
X1389680D2*
X1420219D1*
X1467804D2*
X1474633D1*
X1513411D2*
X1644633D1*
X1683411D2*
X1724633D1*
X1763411D2*
X2018364D1*
X979543Y1105499D2*
X1221625D1*
X1266399D2*
X1274633D1*
X1313411D2*
X1345531D1*
X1399543D2*
X1413969D1*
X1513411D2*
X1644633D1*
X1683411D2*
X1724633D1*
X1763411D2*
X2008480D1*
X989407Y1095630D2*
X1221625D1*
X1266399D2*
X1274633D1*
X1313411D2*
X1355395D1*
X1513411D2*
X1644633D1*
X1683411D2*
X1724633D1*
X1763411D2*
X1998617D1*
X2052648D2*
X2059633D1*
X415773Y1085761D2*
X435259D1*
X999289D2*
X1221625D1*
X1266399D2*
X1274633D1*
X1313411D2*
X1365259D1*
X1513411D2*
X1644633D1*
X1683411D2*
X1724633D1*
X1763411D2*
X1988755D1*
X2042765D2*
X2059633D1*
X415773Y1075892D2*
X449887D1*
X1009152D2*
X1221625D1*
X1266399D2*
X1274633D1*
X1313411D2*
X1375121D1*
X1470461D2*
X1474633D1*
X1513411D2*
X1644633D1*
X1683411D2*
X1724633D1*
X1763411D2*
X1978891D1*
X2032903D2*
X2059633D1*
X415773Y1066024D2*
X965004D1*
X1019016D2*
X1221625D1*
X1266399D2*
X1274633D1*
X1313411D2*
X1385004D1*
X1463411D2*
X1474633D1*
X1513411D2*
X1644633D1*
X1683411D2*
X1724633D1*
X1763411D2*
X1969008D1*
X2023039D2*
X2059008D1*
X415773Y1056155D2*
X746352D1*
X956692D2*
X974867D1*
X1028879D2*
X1221625D1*
X1266399D2*
X1270965D1*
X1317043D2*
X1394867D1*
X1463411D2*
X1474633D1*
X1513411D2*
X1644633D1*
X1683411D2*
X1724633D1*
X1763411D2*
X1959144D1*
X2013156D2*
X2049144D1*
X415773Y1046286D2*
X734281D1*
X968762D2*
X984731D1*
X1038762D2*
X1221625D1*
X1333762D2*
X1367777D1*
X1400247D2*
X1404633D1*
X1463762D2*
X1474633D1*
X1513411D2*
X1644633D1*
X1683411D2*
X1724633D1*
X1763411D2*
X1949281D1*
X2003293D2*
X2039281D1*
X415773Y1036417D2*
X724399D1*
X978625D2*
X994613D1*
X1048625D2*
X1220160D1*
X1343625D2*
X1357075D1*
X1513411D2*
X1644633D1*
X1683411D2*
X1724633D1*
X1763411D2*
X1939399D1*
X1993429D2*
X2029399D1*
X2083429D2*
X2086715D1*
X415773Y1026549D2*
X714535D1*
X986789D2*
X1004476D1*
X1056789D2*
X1210297D1*
X1513488D2*
X1644633D1*
X1683411D2*
X1724633D1*
X1763411D2*
X1929535D1*
X1983567D2*
X2019535D1*
X2073567D2*
X2086723D1*
X415773Y1016680D2*
X704672D1*
X758684D2*
X800433D1*
X988411D2*
X1014340D1*
X1058411D2*
X1200433D1*
X1262492D2*
X1267035D1*
X1523371D2*
X1581528D1*
X1626516D2*
X1644633D1*
X1683411D2*
X1724633D1*
X1763411D2*
X1919672D1*
X1973684D2*
X2009672D1*
X2063684D2*
X2086723D1*
X415773Y1006811D2*
X694808D1*
X748820D2*
X790551D1*
X991379D2*
X1016664D1*
X1061379D2*
X1190551D1*
X1253059D2*
X1277660D1*
X1310364D2*
X1319203D1*
X1633508D2*
X1644633D1*
X1683411D2*
X1724633D1*
X1763411D2*
X1909808D1*
X1963820D2*
X1999808D1*
X2053820D2*
X2086723D1*
X415773Y996942D2*
X684927D1*
X738957D2*
X780688D1*
X998449D2*
X1009575D1*
X1068449D2*
X1180688D1*
X1243196D2*
X1329087D1*
X1636105D2*
X1644633D1*
X1683411D2*
X1724633D1*
X1763411D2*
X1899927D1*
X1953957D2*
X1989927D1*
X2043957D2*
X2086723D1*
X415773Y987073D2*
X675063D1*
X729075D2*
X770824D1*
X1001105D2*
X1006934D1*
X1071105D2*
X1170824D1*
X1233332D2*
X1338949D1*
X1637961D2*
X1644633D1*
X1683411D2*
X1724633D1*
X1763411D2*
X1890063D1*
X1944075D2*
X1980063D1*
X2034075D2*
X2086723D1*
X415773Y977205D2*
X665199D1*
X719211D2*
X760961D1*
X823449D2*
X911996D1*
X1000500D2*
X1007524D1*
X1223449D2*
X1348812D1*
X1683411D2*
X1724633D1*
X1763411D2*
X1880199D1*
X1934211D2*
X1970199D1*
X2024211D2*
X2086723D1*
X415773Y967336D2*
X655316D1*
X709348D2*
X751079D1*
X813587D2*
X941605D1*
X996419D2*
X1011605D1*
X1213587D2*
X1358676D1*
X1542707D2*
X1586781D1*
X1683411D2*
X1724633D1*
X1763411D2*
X1870316D1*
X1924348D2*
X1960316D1*
X2014348D2*
X2022231D1*
X2065793D2*
X2086723D1*
X415773Y957467D2*
X645453D1*
X699484D2*
X741215D1*
X803723D2*
X951567D1*
X986476D2*
X1021567D1*
X1203723D2*
X1368559D1*
X1453411D2*
X1458549D1*
X1587551D2*
X1609633D1*
X1683411D2*
X1724633D1*
X1763411D2*
X1860453D1*
X1914484D2*
X1950453D1*
X2004484D2*
X2014828D1*
X2073215D2*
X2086723D1*
X420773Y947598D2*
X563597D1*
X574427D2*
X635591D1*
X689601D2*
X731352D1*
X793860D2*
X1034184D1*
X1193860D2*
X1378423D1*
X1453411D2*
X1468423D1*
X1597453D2*
X1609633D1*
X1683411D2*
X1724633D1*
X1763411D2*
X1850591D1*
X1904601D2*
X1940591D1*
X1994601D2*
X2011996D1*
X2076047D2*
X2086723D1*
X430636Y937730D2*
X546781D1*
X591262D2*
X626820D1*
X679739D2*
X721469D1*
X783976D2*
X1050883D1*
X1177140D2*
X1325727D1*
X1352316D2*
X1379633D1*
X1453411D2*
X1478285D1*
X1683411D2*
X1724633D1*
X1767316D2*
X1822680D1*
X1894739D2*
X1930727D1*
X1984739D2*
X2012427D1*
X2075617D2*
X2086723D1*
X435773Y927861D2*
X541781D1*
X596243D2*
X624633D1*
X669875D2*
X711605D1*
X774113D2*
X1081039D1*
X1107004D2*
X1313109D1*
X1364933D2*
X1379633D1*
X1453411D2*
X1488168D1*
X1683411D2*
X1725688D1*
X1792004D2*
X1815024D1*
X1884875D2*
X1920844D1*
X1974875D2*
X2016293D1*
X2071751D2*
X2086723D1*
X435773Y917992D2*
X540980D1*
X597043D2*
X624633D1*
X663411D2*
X701743D1*
X764251D2*
X1068207D1*
X1119816D2*
X1308091D1*
X1369933D2*
X1379633D1*
X1453411D2*
X1498031D1*
X1683411D2*
X1733031D1*
X1804816D2*
X1812035D1*
X1875988D2*
X1910980D1*
X1965012D2*
X2024633D1*
X2063411D2*
X2086723D1*
X435773Y908123D2*
X543969D1*
X594055D2*
X624633D1*
X663411D2*
X691879D1*
X754367D2*
X798403D1*
X1124895D2*
X1306801D1*
X1371243D2*
X1379633D1*
X1453411D2*
X1507895D1*
X1683411D2*
X1742895D1*
X1875696D2*
X1901117D1*
X1955129D2*
X2024633D1*
X2063411D2*
X2086723D1*
X435773Y898255D2*
X552836D1*
X585207D2*
X624633D1*
X663411D2*
X681996D1*
X744504D2*
X786996D1*
X1126243D2*
X1301235D1*
X1369348D2*
X1379633D1*
X1453411D2*
X1517759D1*
X1683411D2*
X1746781D1*
X1811243D2*
X1816067D1*
X1871984D2*
X1891235D1*
X1945265D2*
X2024633D1*
X2063411D2*
X2086723D1*
X435773Y888386D2*
X624633D1*
X663411D2*
X672133D1*
X734640D2*
X777133D1*
X1124387D2*
X1291371D1*
X1363469D2*
X1379633D1*
X1453411D2*
X1527640D1*
X1683411D2*
X1748636D1*
X1809387D2*
X1825160D1*
X1862864D2*
X1881371D1*
X1935403D2*
X2024633D1*
X2063411D2*
X2086723D1*
X435773Y878517D2*
X624633D1*
X724777D2*
X767289D1*
X1118587D2*
X1281508D1*
X1346751D2*
X1379633D1*
X1453411D2*
X1538109D1*
X1684387D2*
X1754457D1*
X1803587D2*
X1871508D1*
X1925520D2*
X2024633D1*
X2063411D2*
X2086723D1*
X435773Y868648D2*
X624633D1*
X714895D2*
X762133D1*
X1102316D2*
X1271644D1*
X1325656D2*
X1379633D1*
X1453411D2*
X1549789D1*
X1692609D2*
X1770707D1*
X1787316D2*
X1861644D1*
X1915656D2*
X2024633D1*
X2063411D2*
X2086723D1*
X435773Y858780D2*
X624633D1*
X705031D2*
X761625D1*
X810031D2*
X1261762D1*
X1315793D2*
X1379633D1*
X1453411D2*
X1584633D1*
X1695891D2*
X1851762D1*
X1905793D2*
X2024633D1*
X2063411D2*
X2086723D1*
X435773Y848911D2*
X624633D1*
X695168D2*
X761625D1*
X806399D2*
X1026899D1*
X1305929D2*
X1379633D1*
X1453411D2*
X1584633D1*
X1695832D2*
X1794144D1*
X1833879D2*
X1841899D1*
X1895929D2*
X2024633D1*
X2063411D2*
X2086723D1*
X435773Y839042D2*
X624633D1*
X691399D2*
X709419D1*
X728625D2*
X761625D1*
X806399D2*
X1017035D1*
X1296047D2*
X1379633D1*
X1555617D2*
X1584633D1*
X1692433D2*
X1785629D1*
X1886047D2*
X2024633D1*
X2063411D2*
X2086723D1*
X435773Y829173D2*
X624633D1*
X743879D2*
X755707D1*
X900109D2*
X1007172D1*
X1286184D2*
X1379633D1*
X1565871D2*
X1584633D1*
X1683957D2*
X1782211D1*
X1876184D2*
X2022172D1*
X2063411D2*
X2086723D1*
X435773Y819304D2*
X624633D1*
X909972D2*
X997289D1*
X1135735D2*
X1377289D1*
X1575735D2*
X1584633D1*
X1655735D2*
X1782133D1*
X1866320D2*
X2012289D1*
X2062785D2*
X2086723D1*
X435773Y809436D2*
X624633D1*
X919856D2*
X987427D1*
X1145597D2*
X1367427D1*
X1665597D2*
X1785395D1*
X1856223D2*
X2002427D1*
X2056437D2*
X2086723D1*
X435773Y799567D2*
X624633D1*
X749777D2*
X755316D1*
X929719D2*
X980043D1*
X1155480D2*
X1246508D1*
X1261516D2*
X1357563D1*
X1411575D2*
X1414618D1*
X1453411D2*
X1536508D1*
X1675480D2*
X1793579D1*
X1834445D2*
X1995472D1*
X2046575D2*
X2086723D1*
X435773Y789698D2*
X552719D1*
X585324D2*
X624633D1*
X744563D2*
X763423D1*
X804621D2*
X877075D1*
X935636D2*
X971000D1*
X1066711D2*
X1111332D1*
X1165344D2*
X1229613D1*
X1278429D2*
X1347680D1*
X1401711D2*
X1414633D1*
X1453411D2*
X1519613D1*
X1685344D2*
X1835239D1*
X1872785D2*
X1994633D1*
X2036711D2*
X2086723D1*
X435773Y779829D2*
X543929D1*
X594094D2*
X624633D1*
X691399D2*
X699633D1*
X738411D2*
X886957D1*
X936399D2*
X967328D1*
X1056848D2*
X1107328D1*
X1175207D2*
X1223715D1*
X1391848D2*
X1414633D1*
X1453411D2*
X1513715D1*
X1881945D2*
X1994633D1*
X2033411D2*
X2086723D1*
X435773Y769961D2*
X540980D1*
X597043D2*
X624633D1*
X691399D2*
X699633D1*
X745091D2*
X891625D1*
X936399D2*
X967055D1*
X1053411D2*
X1095316D1*
X1185091D2*
X1221801D1*
X1381965D2*
X1414633D1*
X1453411D2*
X1511801D1*
X1885676D2*
X1963773D1*
X1974261D2*
X1994633D1*
X2033411D2*
X2048773D1*
X2059261D2*
X2086723D1*
X435773Y760092D2*
X541801D1*
X596223D2*
X624633D1*
X691399D2*
X701937D1*
X754953D2*
X891625D1*
X936399D2*
X970063D1*
X1053411D2*
X1090472D1*
X1194953D2*
X1223091D1*
X1372101D2*
X1408091D1*
X1453411D2*
X1513091D1*
X1886008D2*
X1944965D1*
X2078059D2*
X2086723D1*
X430559Y750223D2*
X546840D1*
X591203D2*
X624633D1*
X691399D2*
X710804D1*
X764816D2*
X891625D1*
X936399D2*
X977777D1*
X1053411D2*
X1089301D1*
X1204816D2*
X1228071D1*
X1279972D2*
X1398207D1*
X1451164D2*
X1518071D1*
X1883039D2*
X1938852D1*
X420696Y740354D2*
X564105D1*
X573934D2*
X624633D1*
X691399D2*
X720668D1*
X774680D2*
X891625D1*
X936399D2*
X1014633D1*
X1053411D2*
X1091352D1*
X1151692D2*
X1160668D1*
X1214680D2*
X1240609D1*
X1267433D2*
X1388344D1*
X1442356D2*
X1530609D1*
X415773Y730486D2*
X624633D1*
X691399D2*
X730531D1*
X784563D2*
X891625D1*
X936399D2*
X1014633D1*
X1053411D2*
X1097427D1*
X1154563D2*
X1170531D1*
X1224563D2*
X1286429D1*
X1321594D2*
X1378480D1*
X1432492D2*
X1555531D1*
X415773Y720617D2*
X624633D1*
X691399D2*
X740395D1*
X794427D2*
X891625D1*
X936399D2*
X1014633D1*
X1053411D2*
X1110395D1*
X1164427D2*
X1180395D1*
X1331476D2*
X1355453D1*
X1422629D2*
X1565395D1*
X415773Y710748D2*
X624633D1*
X691399D2*
X750277D1*
X804289D2*
X891625D1*
X936399D2*
X1014633D1*
X1059289D2*
X1120277D1*
X1174289D2*
X1190277D1*
X1335520D2*
X1349067D1*
X1412765D2*
X1520591D1*
X1567453D2*
X1575277D1*
X2033117D2*
X2039731D1*
X415773Y700879D2*
X624633D1*
X691399D2*
X760140D1*
X814172D2*
X891625D1*
X936399D2*
X1016528D1*
X1069172D2*
X1130140D1*
X1184172D2*
X1200140D1*
X1336087D2*
X1346840D1*
X1411203D2*
X1514125D1*
X2027883D2*
X2065140D1*
X415773Y691010D2*
X624633D1*
X691399D2*
X770004D1*
X824035D2*
X891625D1*
X936399D2*
X1025004D1*
X1079035D2*
X1140004D1*
X1194035D2*
X1210004D1*
X1333411D2*
X1347816D1*
X1410207D2*
X1511840D1*
X2018020D2*
X2075004D1*
X415773Y681142D2*
X624633D1*
X691399D2*
X779887D1*
X850500D2*
X891625D1*
X936399D2*
X1034887D1*
X1088899D2*
X1149887D1*
X1203899D2*
X1281743D1*
X1326281D2*
X1352407D1*
X1405636D2*
X1512797D1*
X1658899D2*
X1942524D1*
X1975500D2*
X2084633D1*
X415773Y671273D2*
X624633D1*
X691399D2*
X789751D1*
X861047D2*
X891625D1*
X936399D2*
X1044751D1*
X1096907D2*
X1159751D1*
X1213762D2*
X1363656D1*
X1394367D2*
X1517308D1*
X1751379D2*
X1906664D1*
X1986047D2*
X2084633D1*
X415773Y661404D2*
X624633D1*
X697883D2*
X799613D1*
X865364D2*
X891625D1*
X936399D2*
X1054613D1*
X1098411D2*
X1169613D1*
X1223644D2*
X1528423D1*
X1559621D2*
X1579613D1*
X1763644D2*
X1894399D1*
X1990364D2*
X2084633D1*
X415773Y651535D2*
X624633D1*
X707747D2*
X801879D1*
X866144D2*
X891625D1*
X936399D2*
X1059633D1*
X1098411D2*
X1146371D1*
X1233508D2*
X1589476D1*
X1789797D2*
X1884516D1*
X1991144D2*
X2084633D1*
X415773Y641667D2*
X624633D1*
X717609D2*
X771508D1*
X863703D2*
X891625D1*
X936399D2*
X1059633D1*
X1098411D2*
X1139457D1*
X1473371D2*
X1599360D1*
X1800793D2*
X1874652D1*
X1988703D2*
X2084633D1*
X415773Y631798D2*
X624751D1*
X727492D2*
X760551D1*
X856965D2*
X891625D1*
X936399D2*
X1059633D1*
X1098411D2*
X1136899D1*
X1483235D2*
X1609223D1*
X1688508D2*
X1739223D1*
X1805265D2*
X1864789D1*
X1981965D2*
X2084633D1*
X415773Y621929D2*
X629144D1*
X737356D2*
X750668D1*
X826105D2*
X891625D1*
X936399D2*
X1059633D1*
X1098411D2*
X1137601D1*
X1203117D2*
X1209087D1*
X1493117D2*
X1619087D1*
X1691105D2*
X1741860D1*
X1806184D2*
X1854927D1*
X1960227D2*
X2084633D1*
X415773Y612060D2*
X636937D1*
X825461D2*
X891625D1*
X936399D2*
X1059633D1*
X1098411D2*
X1141781D1*
X1502980D2*
X1627563D1*
X1690461D2*
X1744164D1*
X1803879D2*
X1845043D1*
X1961184D2*
X2084633D1*
X415773Y602192D2*
X637543D1*
X821340D2*
X891625D1*
X936399D2*
X1059633D1*
X1098411D2*
X1152016D1*
X1512844D2*
X1631703D1*
X1686340D2*
X1750668D1*
X1797356D2*
X1835180D1*
X1958919D2*
X2084633D1*
X415773Y592323D2*
X641625D1*
X696419D2*
X704457D1*
X811243D2*
X891625D1*
X936399D2*
X1059633D1*
X1098411D2*
X1178696D1*
X1522727D2*
X1641801D1*
X1676243D2*
X1825316D1*
X1952492D2*
X2084633D1*
X415773Y582454D2*
X651587D1*
X686457D2*
X714320D1*
X773703D2*
X891625D1*
X936399D2*
X1059633D1*
X1098411D2*
X1188559D1*
X1924465D2*
X2080453D1*
X415773Y572585D2*
X453636D1*
X534387D2*
X721625D1*
X766399D2*
X891625D1*
X936399D2*
X1059633D1*
X1098411D2*
X1458441D1*
X1914601D2*
X2070571D1*
X415773Y562717D2*
X437583D1*
X550441D2*
X721625D1*
X766399D2*
X891625D1*
X936399D2*
X1059633D1*
X1098411D2*
X1155707D1*
X1302316D2*
X1468304D1*
X1904719D2*
X2060707D1*
X415773Y552848D2*
X427563D1*
X560461D2*
X721625D1*
X766399D2*
X891625D1*
X941437D2*
X991000D1*
X1017024D2*
X1059633D1*
X1098411D2*
X1145844D1*
X1312199D2*
X1478168D1*
X1894856D2*
X2050844D1*
X415773Y542979D2*
X419530D1*
X568508D2*
X721625D1*
X766399D2*
X776332D1*
X801711D2*
X892484D1*
X1029836D2*
X1059633D1*
X1098411D2*
X1135961D1*
X1322063D2*
X1488051D1*
X1884992D2*
X2040961D1*
X573723Y533110D2*
X721625D1*
X814739D2*
X898676D1*
X1034895D2*
X1056097D1*
X1098411D2*
X1126097D1*
X1232883D2*
X1277915D1*
X578391Y523241D2*
X721625D1*
X1036243D2*
X1046235D1*
X1097472D2*
X1116235D1*
X1235969D2*
X1287777D1*
X2075247D2*
X2086723D1*
X580929Y513373D2*
X721625D1*
X1090383D2*
X1106371D1*
X1160383D2*
X1172289D1*
X1236672D2*
X1297640D1*
X2065383D2*
X2086723D1*
X582492Y503504D2*
X721625D1*
X1080520D2*
X1096488D1*
X1150520D2*
X1175903D1*
X2054895D2*
X2086723D1*
X583371Y493635D2*
X721625D1*
X813684D2*
X907387D1*
X1070636D2*
X1086625D1*
X1140636D2*
X1184808D1*
X1724739D2*
X2086723D1*
X582375Y483766D2*
X619105D1*
X668937D2*
X719105D1*
X768937D2*
X780239D1*
X797804D2*
X819105D1*
X868937D2*
X917251D1*
X1068937D2*
X1076762D1*
X1168937D2*
X1212251D1*
X1768937D2*
X1819105D1*
X1868937D2*
X1919105D1*
X1968937D2*
X2019105D1*
X2068937D2*
X2086723D1*
X580812Y473898D2*
X607524D1*
X680500D2*
X707524D1*
X780500D2*
X807524D1*
X880500D2*
X962133D1*
X1180500D2*
X1207524D1*
X1280500D2*
X1307524D1*
X1380500D2*
X1407524D1*
X1480500D2*
X1507524D1*
X1580500D2*
X1607524D1*
X1780500D2*
X1807524D1*
X1880500D2*
X1907524D1*
X1980500D2*
X2007524D1*
X2080500D2*
X2086723D1*
X578097Y464029D2*
X601156D1*
X686867D2*
X701156D1*
X786867D2*
X801156D1*
X886867D2*
X972348D1*
X1186867D2*
X1201156D1*
X1286867D2*
X1301156D1*
X1386867D2*
X1401156D1*
X1486867D2*
X1501156D1*
X1586867D2*
X1601156D1*
X1786867D2*
X1801156D1*
X1886867D2*
X1901156D1*
X1986867D2*
X2001156D1*
X573332Y454160D2*
X597739D1*
X690285D2*
X697739D1*
X790285D2*
X797739D1*
X890285D2*
X997739D1*
X1190285D2*
X1197739D1*
X1290285D2*
X1297739D1*
X1390285D2*
X1397739D1*
X1490285D2*
X1497739D1*
X1590285D2*
X1597739D1*
X1790285D2*
X1797739D1*
X1890285D2*
X1897739D1*
X1990285D2*
X1997739D1*
X568020Y444291D2*
X596625D1*
X691399D2*
X696623D1*
X791399D2*
X796623D1*
X891399D2*
X996625D1*
X1091399D2*
X1096623D1*
X1191399D2*
X1196623D1*
X1291399D2*
X1296623D1*
X1391399D2*
X1396623D1*
X1491399D2*
X1496623D1*
X1591399D2*
X1596623D1*
X1691399D2*
X1696623D1*
X1791399D2*
X1796623D1*
X1891399D2*
X1896623D1*
X1991399D2*
X1996623D1*
X559699Y434423D2*
X597621D1*
X690403D2*
X697621D1*
X790403D2*
X797621D1*
X890403D2*
X997621D1*
X1090403D2*
X1097621D1*
X1190403D2*
X1197621D1*
X1290403D2*
X1297621D1*
X1390403D2*
X1397621D1*
X1490403D2*
X1497621D1*
X1590403D2*
X1597621D1*
X1690403D2*
X1697621D1*
X1790403D2*
X1797621D1*
X1890403D2*
X1897621D1*
X1990403D2*
X1997621D1*
X549563Y424554D2*
X600903D1*
X687121D2*
X700903D1*
X787121D2*
X800903D1*
X887121D2*
X1000903D1*
X1087121D2*
X1100903D1*
X1187121D2*
X1200903D1*
X1287121D2*
X1300903D1*
X1387121D2*
X1400903D1*
X1487121D2*
X1500903D1*
X1587121D2*
X1600903D1*
X1687121D2*
X1700903D1*
X1787121D2*
X1800903D1*
X1887121D2*
X1900903D1*
X1987121D2*
X2000903D1*
X2008043Y414769D2*
X2004459Y419776D1*
X2002680Y422954D1*
X2001155Y426262D1*
X1999894Y429680D1*
X1998906Y433186D1*
X1998194Y436759D1*
X1997766Y440375D1*
X1997623Y444016D1*
X1997766Y447656D1*
X1998194Y451273D1*
X1998906Y454845D1*
X1999894Y458352D1*
X2001155Y461769D1*
X2002680Y465077D1*
X2004459Y468256D1*
X2006484Y471285D1*
X2008739Y474146D1*
X2011211Y476820D1*
X2013886Y479293D1*
X2016747Y481547D1*
X2019776Y483572D1*
X2022954Y485352D1*
X2026262Y486877D1*
X2029680Y488138D1*
X2033186Y489126D1*
X2036759Y489837D1*
X2040375Y490265D1*
X2044016Y490408D1*
X2047656Y490265D1*
X2051273Y489837D1*
X2054845Y489126D1*
X2058352Y488138D1*
X2061769Y486877D1*
X2065077Y485352D1*
X2068256Y483572D1*
X2071285Y481547D1*
X2074146Y479293D1*
X2076820Y476820D1*
X2079293Y474146D1*
X2081547Y471285D1*
X2083572Y468256D1*
X2085352Y465077D1*
X2087719Y459487D1*
X2087717Y536696D1*
X2055961Y505030D1*
X2053626Y503333D1*
X2051054Y502024D1*
X2048310Y501131D1*
X2045459Y500680D1*
X2014016Y500623D1*
X1720480D1*
X1722873Y495969D1*
X1724387Y491307D1*
X1725156Y486399D1*
X1729680Y488138D1*
X1733186Y489126D1*
X1736759Y489837D1*
X1740375Y490265D1*
X1744016Y490408D1*
X1747656Y490265D1*
X1751273Y489837D1*
X1754845Y489126D1*
X1758352Y488138D1*
X1761769Y486877D1*
X1765077Y485352D1*
X1768256Y483572D1*
X1771285Y481547D1*
X1774146Y479293D1*
X1776820Y476820D1*
X1779293Y474146D1*
X1781547Y471285D1*
X1783572Y468256D1*
X1785352Y465077D1*
X1786877Y461769D1*
X1788138Y458352D1*
X1789126Y454845D1*
X1789837Y451273D1*
X1790265Y447656D1*
X1790408Y444016D1*
X1790265Y440375D1*
X1789837Y436759D1*
X1789126Y433186D1*
X1788138Y429680D1*
X1786877Y426262D1*
X1785352Y422954D1*
X1783572Y419776D1*
X1779988Y414769D1*
X1808001Y414764D1*
X1804459Y419776D1*
X1802680Y422954D1*
X1801155Y426262D1*
X1799894Y429680D1*
X1798906Y433186D1*
X1798194Y436759D1*
X1797766Y440375D1*
X1797623Y444016D1*
X1797766Y447656D1*
X1798194Y451273D1*
X1798906Y454845D1*
X1799894Y458352D1*
X1801155Y461769D1*
X1802680Y465077D1*
X1804459Y468256D1*
X1806484Y471285D1*
X1808739Y474146D1*
X1811211Y476820D1*
X1813886Y479293D1*
X1816747Y481547D1*
X1819776Y483572D1*
X1822954Y485352D1*
X1826262Y486877D1*
X1829680Y488138D1*
X1833186Y489126D1*
X1836759Y489837D1*
X1840375Y490265D1*
X1844016Y490408D1*
X1847656Y490265D1*
X1851273Y489837D1*
X1854845Y489126D1*
X1858352Y488138D1*
X1861769Y486877D1*
X1865077Y485352D1*
X1868256Y483572D1*
X1871285Y481547D1*
X1874146Y479293D1*
X1876820Y476820D1*
X1879293Y474146D1*
X1881547Y471285D1*
X1883572Y468256D1*
X1885352Y465077D1*
X1886877Y461769D1*
X1888138Y458352D1*
X1889126Y454845D1*
X1889837Y451273D1*
X1890265Y447656D1*
X1890408Y444016D1*
X1890265Y440375D1*
X1889837Y436759D1*
X1889126Y433186D1*
X1888138Y429680D1*
X1886877Y426262D1*
X1885352Y422954D1*
X1883572Y419776D1*
X1879988Y414769D1*
X1908001Y414764D1*
X1904459Y419776D1*
X1902680Y422954D1*
X1901155Y426262D1*
X1899894Y429680D1*
X1898906Y433186D1*
X1898194Y436759D1*
X1897766Y440375D1*
X1897623Y444016D1*
X1897766Y447656D1*
X1898194Y451273D1*
X1898906Y454845D1*
X1899894Y458352D1*
X1901155Y461769D1*
X1902680Y465077D1*
X1904459Y468256D1*
X1906484Y471285D1*
X1908739Y474146D1*
X1911211Y476820D1*
X1913886Y479293D1*
X1916747Y481547D1*
X1919776Y483572D1*
X1922954Y485352D1*
X1926262Y486877D1*
X1929680Y488138D1*
X1933186Y489126D1*
X1936759Y489837D1*
X1940375Y490265D1*
X1944016Y490408D1*
X1947656Y490265D1*
X1951273Y489837D1*
X1954845Y489126D1*
X1958352Y488138D1*
X1961769Y486877D1*
X1965077Y485352D1*
X1968256Y483572D1*
X1971285Y481547D1*
X1974146Y479293D1*
X1976820Y476820D1*
X1979293Y474146D1*
X1981547Y471285D1*
X1983572Y468256D1*
X1985352Y465077D1*
X1986877Y461769D1*
X1988138Y458352D1*
X1989126Y454845D1*
X1989837Y451273D1*
X1990265Y447656D1*
X1990408Y444016D1*
X1990265Y440375D1*
X1989837Y436759D1*
X1989126Y433186D1*
X1988138Y429680D1*
X1986877Y426262D1*
X1985352Y422954D1*
X1983572Y419776D1*
X1979988Y414769D1*
X2008001Y414764D1*
X1708043Y414769D2*
X1704459Y419776D1*
X1702680Y422954D1*
X1701155Y426262D1*
X1699894Y429680D1*
X1698906Y433186D1*
X1698194Y436759D1*
X1697766Y440375D1*
X1697623Y444016D1*
X1697766Y447656D1*
X1698559Y453101D1*
X1694016Y452781D1*
X1689500Y453122D1*
X1690265Y447656D1*
X1690408Y444016D1*
X1690265Y440375D1*
X1689837Y436759D1*
X1689126Y433186D1*
X1688138Y429680D1*
X1686877Y426262D1*
X1685352Y422954D1*
X1683572Y419776D1*
X1679988Y414769D1*
X1708001Y414764D1*
X1608043Y414769D2*
X1604459Y419776D1*
X1602680Y422954D1*
X1601155Y426262D1*
X1599894Y429680D1*
X1598906Y433186D1*
X1598194Y436759D1*
X1597766Y440375D1*
X1597623Y444016D1*
X1597766Y447656D1*
X1598194Y451273D1*
X1598906Y454845D1*
X1599894Y458352D1*
X1601155Y461769D1*
X1602680Y465077D1*
X1604459Y468256D1*
X1606484Y471285D1*
X1610101Y475618D1*
X1577980Y475623D1*
X1581547Y471285D1*
X1583572Y468256D1*
X1585352Y465077D1*
X1586877Y461769D1*
X1588138Y458352D1*
X1589126Y454845D1*
X1589837Y451273D1*
X1590265Y447656D1*
X1590408Y444016D1*
X1590265Y440375D1*
X1589837Y436759D1*
X1589126Y433186D1*
X1588138Y429680D1*
X1586877Y426262D1*
X1585352Y422954D1*
X1583572Y419776D1*
X1579988Y414769D1*
X1608001Y414764D1*
X1508043Y414769D2*
X1504459Y419776D1*
X1502680Y422954D1*
X1501155Y426262D1*
X1499894Y429680D1*
X1498906Y433186D1*
X1498194Y436759D1*
X1497766Y440375D1*
X1497623Y444016D1*
X1497766Y447656D1*
X1498194Y451273D1*
X1498906Y454845D1*
X1499894Y458352D1*
X1501155Y461769D1*
X1502680Y465077D1*
X1504459Y468256D1*
X1506484Y471285D1*
X1510101Y475618D1*
X1477980Y475623D1*
X1481547Y471285D1*
X1483572Y468256D1*
X1485352Y465077D1*
X1486877Y461769D1*
X1488138Y458352D1*
X1489126Y454845D1*
X1489837Y451273D1*
X1490265Y447656D1*
X1490408Y444016D1*
X1490265Y440375D1*
X1489837Y436759D1*
X1489126Y433186D1*
X1488138Y429680D1*
X1486877Y426262D1*
X1485352Y422954D1*
X1483572Y419776D1*
X1479988Y414769D1*
X1508001Y414764D1*
X1408043Y414769D2*
X1404459Y419776D1*
X1402680Y422954D1*
X1401155Y426262D1*
X1399894Y429680D1*
X1398906Y433186D1*
X1398194Y436759D1*
X1397766Y440375D1*
X1397623Y444016D1*
X1397766Y447656D1*
X1398194Y451273D1*
X1398906Y454845D1*
X1399894Y458352D1*
X1401155Y461769D1*
X1402680Y465077D1*
X1404459Y468256D1*
X1406484Y471285D1*
X1410101Y475618D1*
X1377980Y475623D1*
X1381547Y471285D1*
X1383572Y468256D1*
X1385352Y465077D1*
X1386877Y461769D1*
X1388138Y458352D1*
X1389126Y454845D1*
X1389837Y451273D1*
X1390265Y447656D1*
X1390408Y444016D1*
X1390265Y440375D1*
X1389837Y436759D1*
X1389126Y433186D1*
X1388138Y429680D1*
X1386877Y426262D1*
X1385352Y422954D1*
X1383572Y419776D1*
X1379988Y414769D1*
X1408001Y414764D1*
X1308043Y414769D2*
X1304459Y419776D1*
X1302680Y422954D1*
X1301155Y426262D1*
X1299894Y429680D1*
X1298906Y433186D1*
X1298194Y436759D1*
X1297766Y440375D1*
X1297623Y444016D1*
X1297766Y447656D1*
X1298194Y451273D1*
X1298906Y454845D1*
X1299894Y458352D1*
X1301155Y461769D1*
X1302680Y465077D1*
X1304459Y468256D1*
X1306484Y471285D1*
X1310101Y475618D1*
X1277980Y475623D1*
X1281547Y471285D1*
X1283572Y468256D1*
X1285352Y465077D1*
X1286877Y461769D1*
X1288138Y458352D1*
X1289126Y454845D1*
X1289837Y451273D1*
X1290265Y447656D1*
X1290408Y444016D1*
X1290265Y440375D1*
X1289837Y436759D1*
X1289126Y433186D1*
X1288138Y429680D1*
X1286877Y426262D1*
X1285352Y422954D1*
X1283572Y419776D1*
X1279988Y414769D1*
X1308001Y414764D1*
X1208043Y414769D2*
X1204459Y419776D1*
X1202680Y422954D1*
X1201155Y426262D1*
X1199894Y429680D1*
X1198906Y433186D1*
X1198194Y436759D1*
X1197766Y440375D1*
X1197623Y444016D1*
X1197766Y447656D1*
X1198194Y451273D1*
X1198906Y454845D1*
X1199894Y458352D1*
X1201155Y461769D1*
X1202680Y465077D1*
X1204459Y468256D1*
X1206484Y471285D1*
X1208739Y474146D1*
X1211211Y476820D1*
X1216043Y480993D1*
X1208870Y488151D1*
X1204016Y487781D1*
X1199130Y488165D1*
X1194364Y489310D1*
X1189836Y491185D1*
X1185656Y493747D1*
X1181929Y496929D1*
X1178747Y500656D1*
X1176185Y504836D1*
X1174310Y509364D1*
X1173165Y514130D1*
X1172781Y519016D1*
X1173165Y523902D1*
X1174167Y528160D1*
X1135659Y489648D1*
X1140375Y490265D1*
X1144016Y490408D1*
X1147656Y490265D1*
X1151273Y489837D1*
X1154845Y489126D1*
X1158352Y488138D1*
X1161769Y486877D1*
X1165077Y485352D1*
X1168256Y483572D1*
X1171285Y481547D1*
X1174146Y479293D1*
X1176820Y476820D1*
X1179293Y474146D1*
X1181547Y471285D1*
X1183572Y468256D1*
X1185352Y465077D1*
X1186877Y461769D1*
X1188138Y458352D1*
X1189126Y454845D1*
X1189837Y451273D1*
X1190265Y447656D1*
X1190408Y444016D1*
X1190265Y440375D1*
X1189837Y436759D1*
X1189126Y433186D1*
X1188138Y429680D1*
X1186877Y426262D1*
X1185352Y422954D1*
X1183572Y419776D1*
X1179988Y414769D1*
X1208001Y414764D1*
X1108043Y414769D2*
X1104459Y419776D1*
X1102680Y422954D1*
X1101155Y426262D1*
X1099894Y429680D1*
X1098906Y433186D1*
X1098194Y436759D1*
X1097766Y440375D1*
X1097623Y444016D1*
X1097766Y447656D1*
X1098420Y452403D1*
X1090415Y444404D1*
X1090265Y440375D1*
X1089837Y436759D1*
X1089126Y433186D1*
X1088138Y429680D1*
X1086877Y426262D1*
X1085352Y422954D1*
X1083572Y419776D1*
X1079988Y414769D1*
X1108001Y414764D1*
X1008043Y414769D2*
X1004459Y419776D1*
X1002680Y422954D1*
X1001155Y426262D1*
X999894Y429680D1*
X998906Y433186D1*
X998194Y436759D1*
X997766Y440375D1*
X997623Y444016D1*
X997766Y447656D1*
X998194Y451273D1*
X998906Y454845D1*
X1000736Y460635D1*
X982572Y460680D1*
X979722Y461131D1*
X976978Y462024D1*
X974406Y463333D1*
X972071Y465030D1*
X961385Y475636D1*
X932572Y475680D1*
X929722Y476131D1*
X926978Y477024D1*
X924406Y478333D1*
X922071Y480030D1*
X906385Y495636D1*
X814269Y495623D1*
X811102Y491929D1*
X807375Y488747D1*
X803196Y486185D1*
X798668Y484310D1*
X793902Y483165D1*
X789016Y482781D1*
X784130Y483165D1*
X779364Y484310D1*
X774836Y486185D1*
X770656Y488747D1*
X766929Y491929D1*
X765415Y493568D1*
X765408Y485168D1*
X768256Y483572D1*
X771285Y481547D1*
X774146Y479293D1*
X776820Y476820D1*
X779293Y474146D1*
X781547Y471285D1*
X783572Y468256D1*
X785352Y465077D1*
X786877Y461769D1*
X788138Y458352D1*
X789126Y454845D1*
X789837Y451273D1*
X790265Y447656D1*
X790408Y444016D1*
X790265Y440375D1*
X789837Y436759D1*
X789126Y433186D1*
X788138Y429680D1*
X786877Y426262D1*
X785352Y422954D1*
X783572Y419776D1*
X779988Y414769D1*
X808001Y414764D1*
X804459Y419776D1*
X802680Y422954D1*
X801155Y426262D1*
X799894Y429680D1*
X798906Y433186D1*
X798194Y436759D1*
X797766Y440375D1*
X797623Y444016D1*
X797766Y447656D1*
X798194Y451273D1*
X798906Y454845D1*
X799894Y458352D1*
X801155Y461769D1*
X802680Y465077D1*
X804459Y468256D1*
X806484Y471285D1*
X808739Y474146D1*
X811211Y476820D1*
X813886Y479293D1*
X816747Y481547D1*
X819776Y483572D1*
X822954Y485352D1*
X826262Y486877D1*
X829680Y488138D1*
X833186Y489126D1*
X836759Y489837D1*
X840375Y490265D1*
X844016Y490408D1*
X847656Y490265D1*
X851273Y489837D1*
X854845Y489126D1*
X858352Y488138D1*
X861769Y486877D1*
X865077Y485352D1*
X868256Y483572D1*
X871285Y481547D1*
X874146Y479293D1*
X876820Y476820D1*
X879293Y474146D1*
X881547Y471285D1*
X883572Y468256D1*
X885352Y465077D1*
X886877Y461769D1*
X888138Y458352D1*
X889126Y454845D1*
X889837Y451273D1*
X890265Y447656D1*
X890408Y444016D1*
X890265Y440375D1*
X889837Y436759D1*
X889126Y433186D1*
X888138Y429680D1*
X886877Y426262D1*
X885352Y422954D1*
X883572Y419776D1*
X879988Y414769D1*
X1008001Y414764D1*
X1062531Y486525D2*
X1068256Y483572D1*
X1071285Y481547D1*
X1073664Y479672D1*
X1162071Y568001D1*
X1164406Y569698D1*
X1166978Y571008D1*
X1169722Y571900D1*
X1172572Y572352D1*
X1204016Y572408D1*
X1285459Y572352D1*
X1288310Y571900D1*
X1291054Y571008D1*
X1293626Y569698D1*
X1295961Y568001D1*
X1318234Y545807D1*
X1326644Y537398D1*
X1494621Y537408D1*
X1456387Y575634D1*
X1202572Y575680D1*
X1199722Y576131D1*
X1196978Y577024D1*
X1194406Y578333D1*
X1192071Y580030D1*
X1173871Y598150D1*
X1169016Y597781D1*
X1164130Y598165D1*
X1159364Y599310D1*
X1154836Y601185D1*
X1150656Y603747D1*
X1146929Y606929D1*
X1143747Y610656D1*
X1141185Y614836D1*
X1139310Y619364D1*
X1138165Y624130D1*
X1137781Y629016D1*
X1138165Y633902D1*
X1139310Y638668D1*
X1141185Y643196D1*
X1143747Y647375D1*
X1146929Y651102D1*
X1150656Y654285D1*
X1154836Y656846D1*
X1159364Y658722D1*
X1164130Y659866D1*
X1169016Y660251D1*
X1171913Y660101D1*
X1109211Y722810D1*
X1105196Y724883D1*
X1101231Y727765D1*
X1097765Y731231D1*
X1094883Y735196D1*
X1092659Y739563D1*
X1091144Y744224D1*
X1090378Y749066D1*
Y753966D1*
X1091144Y758807D1*
X1092659Y763469D1*
X1094883Y767836D1*
X1097765Y771801D1*
X1101231Y775266D1*
X1105196Y778148D1*
X1109563Y780373D1*
X1114224Y781887D1*
X1119066Y782654D1*
X1119362Y782665D1*
X1106395Y795626D1*
X1071652Y795623D1*
X1052396Y776386D1*
X1052408Y716652D1*
X1093001Y675961D1*
X1094698Y673626D1*
X1096008Y671054D1*
X1096900Y668310D1*
X1097352Y665459D1*
X1097408Y634016D1*
X1097352Y527572D1*
X1096900Y524722D1*
X1096008Y521978D1*
X1094698Y519406D1*
X1093001Y517071D1*
X1070808Y494798D1*
X1062563Y486552D1*
X708043Y414769D2*
X704459Y419776D1*
X702680Y422954D1*
X701155Y426262D1*
X699894Y429680D1*
X698906Y433186D1*
X698194Y436759D1*
X697766Y440375D1*
X697623Y444016D1*
X697766Y447656D1*
X698194Y451273D1*
X698906Y454845D1*
X699894Y458352D1*
X701155Y461769D1*
X702680Y465077D1*
X704459Y468256D1*
X706484Y471285D1*
X708739Y474146D1*
X711211Y476820D1*
X713886Y479293D1*
X716747Y481547D1*
X719776Y483572D1*
X722619Y485164D1*
X722623Y575168D1*
X698657Y599121D1*
X696846Y594836D1*
X694285Y590656D1*
X691102Y586929D1*
X687375Y583747D1*
X683196Y581185D1*
X678668Y579310D1*
X673902Y578165D1*
X669016Y577781D1*
X664130Y578165D1*
X659364Y579310D1*
X654836Y581185D1*
X650656Y583747D1*
X646929Y586929D1*
X643747Y590656D1*
X641185Y594836D1*
X639310Y599364D1*
X638165Y604130D1*
X637781Y609016D1*
X638160Y613854D1*
X630030Y622071D1*
X628333Y624406D1*
X627024Y626978D1*
X626131Y629722D1*
X625680Y632572D1*
X625623Y664016D1*
X625680Y930459D1*
X626131Y933310D1*
X627024Y936054D1*
X628333Y938626D1*
X630030Y940961D1*
X652224Y963234D1*
X742071Y1053001D1*
X744406Y1054698D1*
X746978Y1056008D1*
X749722Y1056900D1*
X752572Y1057352D1*
X784016Y1057408D1*
X950459Y1057352D1*
X953310Y1056900D1*
X956054Y1056008D1*
X958626Y1054698D1*
X960961Y1053001D1*
X982021Y1032021D1*
X983895Y1029827D1*
X985403Y1027366D1*
X986508Y1024699D1*
X987181Y1021892D1*
X987408Y1019016D1*
Y1009269D1*
X991102Y1006102D1*
X994285Y1002375D1*
X996846Y998196D1*
X998722Y993668D1*
X999866Y988902D1*
X1000251Y984016D1*
X999866Y979130D1*
X998722Y974364D1*
X996846Y969836D1*
X994285Y965656D1*
X991102Y961929D1*
X987375Y958747D1*
X983196Y956185D1*
X978668Y954310D1*
X973902Y953165D1*
X969016Y952781D1*
X964130Y953165D1*
X959364Y954310D1*
X954836Y956185D1*
X950656Y958747D1*
X946929Y961929D1*
X943747Y965656D1*
X941185Y969836D1*
X939265Y974521D1*
X936307Y973644D1*
X931466Y972878D1*
X926566D1*
X921724Y973644D1*
X917063Y975159D1*
X912696Y977383D1*
X908731Y980265D1*
X906286Y982626D1*
X827864Y982623D1*
X690415Y845161D1*
X690408Y821535D1*
X692383Y825336D1*
X695265Y829301D1*
X698731Y832766D1*
X702696Y835648D1*
X707063Y837873D1*
X711724Y839387D1*
X716566Y840154D1*
X721466D1*
X726307Y839387D1*
X730969Y837873D1*
X735336Y835648D1*
X739301Y832766D1*
X742766Y829301D1*
X745648Y825336D1*
X747873Y820969D1*
X749387Y816307D1*
X750154Y811466D1*
Y806566D1*
X749387Y801724D1*
X747873Y797063D1*
X745648Y792696D1*
X742766Y788731D1*
X739301Y785265D1*
X737412Y783776D1*
X737408Y776652D1*
X829178Y684862D1*
X834016Y685251D1*
X838902Y684866D1*
X843668Y683722D1*
X848196Y681846D1*
X852375Y679285D1*
X856102Y676102D1*
X859285Y672375D1*
X861846Y668196D1*
X863722Y663668D1*
X864866Y658902D1*
X865251Y654016D1*
X864866Y649130D1*
X863722Y644364D1*
X861846Y639836D1*
X859285Y635656D1*
X856102Y631929D1*
X852375Y628747D1*
X848196Y626185D1*
X843668Y624310D1*
X838902Y623165D1*
X834016Y622781D1*
X829130Y623165D1*
X824815Y624182D1*
X825251Y619016D1*
X824866Y614130D1*
X823722Y609364D1*
X821846Y604836D1*
X819285Y600656D1*
X816102Y596929D1*
X812375Y593747D1*
X808196Y591185D1*
X803668Y589310D1*
X798902Y588165D1*
X794016Y587781D1*
X789130Y588165D1*
X784364Y589310D1*
X780941Y590676D1*
X765403Y575150D1*
X765408Y534465D1*
X768731Y537766D1*
X772696Y540648D1*
X777063Y542873D1*
X781724Y544387D1*
X786566Y545154D1*
X791466D1*
X796307Y544387D1*
X800969Y542873D1*
X805336Y540648D1*
X809301Y537766D1*
X812766Y534301D1*
X814256Y532412D1*
X900364Y532408D1*
X897749Y535122D1*
X895776Y537839D1*
X894252Y540829D1*
X893215Y544022D1*
X892689Y547337D1*
X892623Y569016D1*
Y775168D1*
X875148Y792630D1*
X806769Y792623D1*
X804301Y790265D1*
X800336Y787383D1*
X795969Y785159D1*
X791307Y783644D1*
X786466Y782878D1*
X781566D1*
X776724Y783644D1*
X772063Y785159D1*
X767696Y787383D1*
X763731Y790265D1*
X760265Y793731D1*
X757383Y797696D1*
X755159Y802063D1*
X753644Y806724D1*
X752878Y811566D1*
Y816466D1*
X753644Y821307D1*
X755159Y825969D1*
X757383Y830336D1*
X760265Y834301D1*
X762626Y836745D1*
X762689Y865694D1*
X763215Y869009D1*
X764252Y872202D1*
X765776Y875193D1*
X767749Y877909D1*
X783031Y893285D1*
X795122Y905282D1*
X797839Y907256D1*
X800829Y908780D1*
X804022Y909816D1*
X807337Y910343D1*
X829016Y910408D1*
X1064933D1*
X1066185Y913196D1*
X1068747Y917375D1*
X1071929Y921102D1*
X1075656Y924285D1*
X1079836Y926846D1*
X1084364Y928722D1*
X1089130Y929866D1*
X1094016Y930251D1*
X1098902Y929866D1*
X1103668Y928722D1*
X1108196Y926846D1*
X1112375Y924285D1*
X1116102Y921102D1*
X1119285Y917375D1*
X1121846Y913196D1*
X1123722Y908668D1*
X1124866Y903902D1*
X1125251Y899016D1*
X1124866Y894130D1*
X1123722Y889364D1*
X1121846Y884836D1*
X1119285Y880656D1*
X1116102Y876929D1*
X1112375Y873747D1*
X1108196Y871185D1*
X1103668Y869310D1*
X1098684Y868139D1*
X1095694Y867689D1*
X1069016Y867623D1*
X817864D1*
X805402Y855148D1*
X805408Y836769D1*
X806745Y835406D1*
X885694Y835343D1*
X889009Y834816D1*
X892202Y833780D1*
X895193Y832256D1*
X897909Y830282D1*
X913285Y815000D1*
X930282Y797909D1*
X932256Y795193D1*
X933780Y792202D1*
X934816Y789009D1*
X935343Y785694D1*
X935408Y764016D1*
Y557864D1*
X947883Y545402D1*
X981262Y545408D1*
X983731Y547766D1*
X987696Y550648D1*
X992063Y552873D1*
X996724Y554387D1*
X1001566Y555154D1*
X1006466D1*
X1011307Y554387D1*
X1015969Y552873D1*
X1020336Y550648D1*
X1024301Y547766D1*
X1027766Y544301D1*
X1030648Y540336D1*
X1032873Y535969D1*
X1034387Y531307D1*
X1035154Y526466D1*
Y521566D1*
X1034387Y516724D1*
X1033003Y512413D1*
X1036379Y512408D1*
X1060634Y536644D1*
X1060623Y656379D1*
X1020030Y697071D1*
X1018333Y699406D1*
X1017024Y701978D1*
X1016131Y704722D1*
X1015680Y707572D1*
X1015623Y739016D1*
Y747551D1*
X1010969Y745159D1*
X1006307Y743644D1*
X1001466Y742878D1*
X996566D1*
X991724Y743644D1*
X987063Y745159D1*
X982696Y747383D1*
X978731Y750265D1*
X975265Y753731D1*
X972383Y757696D1*
X970159Y762063D1*
X968644Y766724D1*
X967878Y771566D1*
Y776466D1*
X968644Y781307D1*
X970159Y785969D1*
X972383Y790336D1*
X975265Y794301D1*
X978731Y797766D1*
X981588Y799908D1*
X982629Y802366D1*
X984136Y804827D1*
X986010Y807021D1*
X1032071Y853001D1*
X1034406Y854698D1*
X1036978Y856008D1*
X1039722Y856900D1*
X1042572Y857352D1*
X1074016Y857408D1*
X1261379D1*
X1308146Y904156D1*
X1307781Y909016D1*
X1308165Y913902D1*
X1309310Y918668D1*
X1311185Y923196D1*
X1313747Y927375D1*
X1316929Y931102D1*
X1320656Y934285D1*
X1324836Y936846D1*
X1329364Y938722D1*
X1334130Y939866D1*
X1339016Y940251D1*
X1343902Y939866D1*
X1348668Y938722D1*
X1353196Y936846D1*
X1357375Y934285D1*
X1361102Y931102D1*
X1364285Y927375D1*
X1366846Y923196D1*
X1368722Y918668D1*
X1369866Y913902D1*
X1370251Y909016D1*
X1369866Y904130D1*
X1368722Y899364D1*
X1366846Y894836D1*
X1364285Y890656D1*
X1361102Y886929D1*
X1357375Y883747D1*
X1353196Y881185D1*
X1348668Y879310D1*
X1343902Y878165D1*
X1339016Y877781D1*
X1334177Y878160D1*
X1280961Y825030D1*
X1278626Y823333D1*
X1276054Y822024D1*
X1273310Y821131D1*
X1270459Y820680D1*
X1239016Y820623D1*
X1133411D1*
X1231636Y722406D1*
X1278762Y722408D1*
X1281929Y726102D1*
X1285656Y729285D1*
X1289836Y731846D1*
X1294364Y733722D1*
X1299130Y734866D1*
X1304016Y735251D1*
X1308902Y734866D1*
X1313668Y733722D1*
X1318196Y731846D1*
X1322375Y729285D1*
X1326102Y726102D1*
X1329285Y722375D1*
X1331846Y718196D1*
X1333722Y713668D1*
X1334866Y708902D1*
X1335251Y704016D1*
X1334866Y699130D1*
X1333722Y694364D1*
X1331846Y689836D1*
X1329285Y685656D1*
X1326102Y681929D1*
X1322375Y678747D1*
X1318196Y676185D1*
X1313668Y674310D1*
X1308902Y673165D1*
X1304016Y672781D1*
X1299130Y673165D1*
X1294364Y674310D1*
X1289836Y676185D1*
X1285656Y678747D1*
X1281929Y681929D1*
X1278776Y685619D1*
X1222572Y685680D1*
X1219722Y686131D1*
X1216978Y687024D1*
X1214406Y688333D1*
X1212071Y690030D1*
X1189798Y712223D1*
X1152688Y749333D1*
X1151887Y744224D1*
X1150373Y739563D1*
X1148396Y735639D1*
X1236623Y647419D1*
X1460459Y647352D1*
X1463310Y646900D1*
X1466054Y646008D1*
X1468626Y644698D1*
X1470961Y643001D1*
X1493234Y620807D1*
X1526642Y587400D1*
X1821379Y587408D1*
X1902071Y668001D1*
X1904406Y669698D1*
X1906978Y671008D1*
X1909722Y671900D1*
X1912572Y672352D1*
X1933762Y672408D1*
X1936929Y676102D1*
X1940656Y679285D1*
X1944836Y681846D1*
X1949364Y683722D1*
X1954130Y684866D1*
X1959016Y685251D1*
X1963902Y684866D1*
X1968668Y683722D1*
X1973196Y681846D1*
X1977375Y679285D1*
X1981102Y676102D1*
X1984285Y672375D1*
X1986846Y668196D1*
X1988722Y663668D1*
X1989866Y658902D1*
X1990251Y654016D1*
X1989866Y649130D1*
X1988722Y644364D1*
X1986846Y639836D1*
X1984285Y635656D1*
X1981102Y631929D1*
X1977375Y628747D1*
X1973196Y626185D1*
X1968668Y624310D1*
X1963902Y623165D1*
X1958987Y622782D1*
X1959866Y618902D1*
X1960251Y614016D1*
X1959866Y609130D1*
X1958722Y604364D1*
X1956846Y599836D1*
X1954285Y595656D1*
X1951102Y591929D1*
X1947375Y588747D1*
X1943196Y586185D1*
X1938668Y584310D1*
X1933902Y583165D1*
X1929016Y582781D1*
X1924177Y583160D1*
X1878423Y537412D1*
X2036379Y537408D1*
X2085631Y586642D1*
X2085623Y681379D1*
X2058873Y708148D1*
X2054016Y707781D1*
X2049130Y708165D1*
X2044364Y709310D1*
X2039836Y711185D1*
X2035656Y713747D1*
X2032415Y716480D1*
X2032352Y712572D1*
X2031900Y709722D1*
X2031008Y706978D1*
X2029698Y704406D1*
X2028001Y702071D1*
X2017021Y691010D1*
X2014827Y689136D1*
X2012366Y687629D1*
X2009699Y686524D1*
X2006892Y685850D1*
X2004016Y685623D1*
X1662572Y685680D1*
X1659722Y686131D1*
X1656978Y687024D1*
X1654406Y688333D1*
X1652071Y690030D1*
X1629798Y712223D1*
X1575176Y766845D1*
X1574871Y764177D1*
X1666636Y672406D1*
X1745459Y672352D1*
X1748310Y671900D1*
X1751054Y671008D1*
X1753626Y669698D1*
X1755961Y668001D1*
X1769160Y654882D1*
X1774016Y655251D1*
X1778902Y654866D1*
X1783668Y653722D1*
X1788196Y651846D1*
X1792375Y649285D1*
X1796102Y646102D1*
X1799285Y642375D1*
X1801846Y638196D1*
X1803722Y633668D1*
X1804866Y628902D1*
X1805251Y624016D1*
X1804866Y619130D1*
X1803722Y614364D1*
X1801846Y609836D1*
X1799285Y605656D1*
X1796102Y601929D1*
X1792375Y598747D1*
X1788196Y596185D1*
X1783668Y594310D1*
X1778902Y593165D1*
X1774016Y592781D1*
X1769130Y593165D1*
X1764364Y594310D1*
X1759836Y596185D1*
X1755656Y598747D1*
X1751929Y601929D1*
X1748747Y605656D1*
X1746185Y609836D1*
X1744310Y614364D1*
X1743165Y619130D1*
X1742781Y624016D1*
X1743160Y628854D1*
X1736386Y635635D1*
X1685480Y635623D1*
X1687873Y630969D1*
X1689387Y626307D1*
X1690154Y621466D1*
Y616566D1*
X1689387Y611724D1*
X1687873Y607063D1*
X1685648Y602696D1*
X1682766Y598731D1*
X1679301Y595265D1*
X1675336Y592383D1*
X1670969Y590159D1*
X1666307Y588644D1*
X1661466Y587878D1*
X1656566D1*
X1651724Y588644D1*
X1647063Y590159D1*
X1642696Y592383D1*
X1638731Y595265D1*
X1635265Y598731D1*
X1632383Y602696D1*
X1630159Y607063D1*
X1628644Y611724D1*
X1628235Y613782D1*
X1571390Y670631D1*
X1567766Y668731D1*
X1564301Y665265D1*
X1560336Y662383D1*
X1555969Y660159D1*
X1551307Y658644D1*
X1546466Y657878D1*
X1541566D1*
X1536724Y658644D1*
X1532063Y660159D1*
X1527696Y662383D1*
X1523731Y665265D1*
X1520265Y668731D1*
X1517383Y672696D1*
X1515159Y677063D1*
X1513644Y681724D1*
X1512878Y686566D1*
Y691466D1*
X1513644Y696307D1*
X1515159Y700969D1*
X1517383Y705336D1*
X1520265Y709301D1*
X1523731Y712766D1*
X1527696Y715648D1*
X1532063Y717873D1*
X1536724Y719387D1*
X1541566Y720154D1*
X1546466D1*
X1551307Y719387D1*
X1555969Y717873D1*
X1560336Y715648D1*
X1564301Y712766D1*
X1567766Y709301D1*
X1569256Y707412D1*
X1579021Y707408D1*
X1578836Y708185D1*
X1548853Y738169D1*
X1544016Y737781D1*
X1539130Y738165D1*
X1534364Y739310D1*
X1529836Y741185D1*
X1525656Y743747D1*
X1521929Y746929D1*
X1518747Y750656D1*
X1516185Y754836D1*
X1514310Y759364D1*
X1513165Y764130D1*
X1512781Y769016D1*
X1513165Y773902D1*
X1514310Y778668D1*
X1516185Y783196D1*
X1518747Y787375D1*
X1521929Y791102D1*
X1525656Y794285D1*
X1529836Y796846D1*
X1534364Y798722D1*
X1539130Y799866D1*
X1541862Y800165D1*
X1536395Y805625D1*
X1452395Y805623D1*
X1452352Y757572D1*
X1451900Y754722D1*
X1451008Y751978D1*
X1449698Y749406D1*
X1448001Y747071D1*
X1425808Y724798D1*
X1408945Y707934D1*
X1409866Y703902D1*
X1410251Y699016D1*
X1409866Y694130D1*
X1408722Y689364D1*
X1406846Y684836D1*
X1404285Y680656D1*
X1401102Y676929D1*
X1397375Y673747D1*
X1393196Y671185D1*
X1388668Y669310D1*
X1383902Y668165D1*
X1379016Y667781D1*
X1374130Y668165D1*
X1369364Y669310D1*
X1364836Y671185D1*
X1360656Y673747D1*
X1356929Y676929D1*
X1353747Y680656D1*
X1351185Y684836D1*
X1349310Y689364D1*
X1348165Y694130D1*
X1347781Y699016D1*
X1348165Y703902D1*
X1349310Y708668D1*
X1351185Y713196D1*
X1353747Y717375D1*
X1356929Y721102D1*
X1360656Y724285D1*
X1364836Y726846D1*
X1369364Y728722D1*
X1374130Y729866D1*
X1379236Y730241D1*
X1415633Y766643D1*
X1415623Y806105D1*
X1413895Y803205D1*
X1412021Y801010D1*
X1365961Y755030D1*
X1363626Y753333D1*
X1361054Y752024D1*
X1358310Y751131D1*
X1355459Y750680D1*
X1324016Y750623D1*
X1279269D1*
X1276102Y746929D1*
X1272375Y743747D1*
X1268196Y741185D1*
X1263668Y739310D1*
X1258902Y738165D1*
X1254016Y737781D1*
X1249130Y738165D1*
X1244364Y739310D1*
X1239836Y741185D1*
X1235656Y743747D1*
X1231929Y746929D1*
X1228747Y750656D1*
X1226185Y754836D1*
X1224310Y759364D1*
X1223165Y764130D1*
X1222781Y769016D1*
X1223165Y773902D1*
X1224310Y778668D1*
X1226185Y783196D1*
X1228747Y787375D1*
X1231929Y791102D1*
X1235656Y794285D1*
X1239836Y796846D1*
X1244364Y798722D1*
X1249130Y799866D1*
X1254016Y800251D1*
X1258902Y799866D1*
X1263668Y798722D1*
X1268196Y796846D1*
X1272375Y794285D1*
X1276102Y791102D1*
X1279256Y787412D1*
X1346379Y787408D1*
X1380634Y821644D1*
X1380623Y946379D1*
X1315589Y1011432D1*
X1312375Y1008747D1*
X1308196Y1006185D1*
X1303668Y1004310D1*
X1298902Y1003165D1*
X1294016Y1002781D1*
X1289130Y1003165D1*
X1284364Y1004310D1*
X1279836Y1006185D1*
X1275656Y1008747D1*
X1271929Y1011929D1*
X1268747Y1015656D1*
X1266185Y1019836D1*
X1264657Y1023420D1*
X1263780Y1020829D1*
X1262256Y1017839D1*
X1260282Y1015122D1*
X1241465Y996211D1*
X1187909Y942749D1*
X1185193Y940776D1*
X1182202Y939252D1*
X1179009Y938214D1*
X1175694Y937689D1*
X1154016Y937623D1*
X1052337Y937689D1*
X1049022Y938215D1*
X1045829Y939252D1*
X1042839Y940776D1*
X1040122Y942749D1*
X1027992Y954786D1*
X1024836Y956185D1*
X1020656Y958747D1*
X1016929Y961929D1*
X1013747Y965656D1*
X1011185Y969836D1*
X1009310Y974364D1*
X1008165Y979130D1*
X1007781Y984016D1*
X1008165Y988902D1*
X1009310Y993668D1*
X1011185Y998196D1*
X1013747Y1002375D1*
X1016929Y1006102D1*
X1020619Y1009256D1*
X1018940Y1013081D1*
X956391Y1075630D1*
X452572Y1075680D1*
X449722Y1076131D1*
X446978Y1077024D1*
X444406Y1078333D1*
X442071Y1080030D1*
X428871Y1093150D1*
X424016Y1092781D1*
X419130Y1093165D1*
X414760Y1094198D1*
X414764Y952610D1*
X433808Y933478D1*
X434520Y932084D1*
X434764Y930539D1*
X434702Y756710D1*
X434219Y755223D1*
X433299Y753957D1*
X414760Y735417D1*
X414764Y532043D1*
X420388Y542757D1*
X422526Y545957D1*
X424908Y548978D1*
X431055Y555339D1*
X439054Y563123D1*
X442075Y565505D1*
X445274Y567643D1*
X453085Y571793D1*
X463100Y576726D1*
X466709Y578056D1*
X470412Y579101D1*
X479123Y580634D1*
X490172Y582231D1*
X494016Y582382D1*
X497860Y582231D1*
X506619Y580996D1*
X517619Y579101D1*
X521323Y578056D1*
X524932Y576726D1*
X532881Y572845D1*
X542757Y567643D1*
X545957Y565505D1*
X548978Y563123D1*
X555339Y556976D1*
X563123Y548978D1*
X565505Y545957D1*
X567643Y542757D1*
X571793Y534946D1*
X576726Y524932D1*
X578056Y521323D1*
X579101Y517619D1*
X580634Y508908D1*
X582231Y497860D1*
X582382Y494016D1*
X582231Y490172D1*
X580996Y481412D1*
X579101Y470412D1*
X578056Y466709D1*
X576726Y463100D1*
X572845Y455151D1*
X567643Y445274D1*
X565505Y442075D1*
X563123Y439054D1*
X556976Y432694D1*
X548978Y424908D1*
X545957Y422526D1*
X542757Y420388D1*
X534946Y416239D1*
X532039Y414759D1*
X608001Y414764D1*
X604459Y419776D1*
X602680Y422954D1*
X601155Y426262D1*
X599894Y429680D1*
X598906Y433186D1*
X598194Y436759D1*
X597766Y440375D1*
X597623Y444016D1*
X597766Y447656D1*
X598194Y451273D1*
X598906Y454845D1*
X599894Y458352D1*
X601155Y461769D1*
X602680Y465077D1*
X604459Y468256D1*
X606484Y471285D1*
X608739Y474146D1*
X611211Y476820D1*
X613886Y479293D1*
X616747Y481547D1*
X619776Y483572D1*
X622954Y485352D1*
X626262Y486877D1*
X629680Y488138D1*
X633186Y489126D1*
X636759Y489837D1*
X640375Y490265D1*
X644016Y490408D1*
X647656Y490265D1*
X651273Y489837D1*
X654845Y489126D1*
X658352Y488138D1*
X661769Y486877D1*
X665077Y485352D1*
X668256Y483572D1*
X671285Y481547D1*
X674146Y479293D1*
X676820Y476820D1*
X679293Y474146D1*
X681547Y471285D1*
X683572Y468256D1*
X685352Y465077D1*
X686877Y461769D1*
X688138Y458352D1*
X689126Y454845D1*
X689837Y451273D1*
X690265Y447656D1*
X690408Y444016D1*
X690265Y440375D1*
X689837Y436759D1*
X689126Y433186D1*
X688138Y429680D1*
X686877Y426262D1*
X685352Y422954D1*
X683572Y419776D1*
X679988Y414769D1*
X708001Y414764D1*
X1090265Y1240375D2*
X1089837Y1236759D1*
X1089126Y1233186D1*
X1088138Y1229680D1*
X1086877Y1226262D1*
X1085352Y1222954D1*
X1083572Y1219776D1*
X1081547Y1216747D1*
X1079293Y1213886D1*
X1076820Y1211211D1*
X1074146Y1208739D1*
X1071285Y1206484D1*
X1068256Y1204459D1*
X1064496Y1202412D1*
X1123488Y1202408D1*
X1119776Y1204459D1*
X1116747Y1206484D1*
X1113886Y1208739D1*
X1111211Y1211211D1*
X1108739Y1213886D1*
X1106484Y1216747D1*
X1104459Y1219776D1*
X1102680Y1222954D1*
X1101155Y1226262D1*
X1099894Y1229680D1*
X1098906Y1233186D1*
X1098194Y1236759D1*
X1097766Y1240375D1*
X1097623Y1244016D1*
X1097766Y1247656D1*
X1098194Y1251273D1*
X1098906Y1254845D1*
X1099894Y1258352D1*
X1101155Y1261769D1*
X1102680Y1265077D1*
X1104459Y1268256D1*
X1108043Y1273262D1*
X1080030Y1273268D1*
X1083572Y1268256D1*
X1085352Y1265077D1*
X1086877Y1261769D1*
X1088138Y1258352D1*
X1089126Y1254845D1*
X1089837Y1251273D1*
X1090265Y1247656D1*
X1090408Y1244016D1*
X1090265Y1240375D1*
X1023535Y1202412D2*
X1019776Y1204459D1*
X1016747Y1206484D1*
X1013886Y1208739D1*
X1011211Y1211211D1*
X1008739Y1213886D1*
X1006484Y1216747D1*
X1004459Y1219776D1*
X1002680Y1222954D1*
X1001155Y1226262D1*
X999894Y1229680D1*
X998906Y1233186D1*
X998194Y1236759D1*
X997766Y1240375D1*
X997623Y1244016D1*
X997766Y1247656D1*
X998194Y1251273D1*
X998906Y1254845D1*
X999894Y1258352D1*
X1001155Y1261769D1*
X1002680Y1265077D1*
X1004459Y1268256D1*
X1008043Y1273262D1*
X920773Y1273268D1*
X991640Y1202402D1*
X1023488Y1202408D1*
X1190265Y1240375D2*
X1189837Y1236759D1*
X1189126Y1233186D1*
X1188138Y1229680D1*
X1186877Y1226262D1*
X1185352Y1222954D1*
X1183572Y1219776D1*
X1181547Y1216747D1*
X1179293Y1213886D1*
X1176820Y1211211D1*
X1174146Y1208739D1*
X1171285Y1206484D1*
X1168256Y1204459D1*
X1164496Y1202412D1*
X1223488Y1202408D1*
X1219776Y1204459D1*
X1216747Y1206484D1*
X1213886Y1208739D1*
X1211211Y1211211D1*
X1208739Y1213886D1*
X1206484Y1216747D1*
X1204459Y1219776D1*
X1202680Y1222954D1*
X1201155Y1226262D1*
X1199894Y1229680D1*
X1198906Y1233186D1*
X1198194Y1236759D1*
X1197766Y1240375D1*
X1197623Y1244016D1*
X1197766Y1247656D1*
X1198194Y1251273D1*
X1198906Y1254845D1*
X1199894Y1258352D1*
X1201155Y1261769D1*
X1202680Y1265077D1*
X1204459Y1268256D1*
X1208043Y1273262D1*
X1180030Y1273268D1*
X1183572Y1268256D1*
X1185352Y1265077D1*
X1186877Y1261769D1*
X1188138Y1258352D1*
X1189126Y1254845D1*
X1189837Y1251273D1*
X1190265Y1247656D1*
X1190408Y1244016D1*
X1190265Y1240375D1*
X1290265D2*
X1289837Y1236759D1*
X1289126Y1233186D1*
X1288138Y1229680D1*
X1286877Y1226262D1*
X1285352Y1222954D1*
X1283572Y1219776D1*
X1281547Y1216747D1*
X1279293Y1213886D1*
X1276820Y1211211D1*
X1274146Y1208739D1*
X1271285Y1206484D1*
X1268256Y1204459D1*
X1264496Y1202412D1*
X1285459Y1202352D1*
X1288310Y1201900D1*
X1291054Y1201008D1*
X1293626Y1199698D1*
X1295961Y1198001D1*
X1307021Y1187021D1*
X1308895Y1184827D1*
X1310403Y1182366D1*
X1311508Y1179699D1*
X1312181Y1176892D1*
X1312408Y1174010D1*
Y1059269D1*
X1316102Y1056102D1*
X1319256Y1052412D1*
X1321892Y1052181D1*
X1324699Y1051508D1*
X1327366Y1050403D1*
X1329827Y1048895D1*
X1332021Y1047021D1*
X1353469Y1025573D1*
X1354310Y1028668D1*
X1356185Y1033196D1*
X1358747Y1037375D1*
X1361929Y1041102D1*
X1365656Y1044285D1*
X1369836Y1046846D1*
X1374364Y1048722D1*
X1379130Y1049866D1*
X1384016Y1050251D1*
X1388902Y1049866D1*
X1393668Y1048722D1*
X1398196Y1046846D1*
X1402375Y1044285D1*
X1405617Y1041551D1*
X1405623Y1046379D1*
X1330030Y1122071D1*
X1328333Y1124406D1*
X1327024Y1126978D1*
X1326131Y1129722D1*
X1325680Y1132572D1*
X1325623Y1164016D1*
Y1201419D1*
X1319776Y1204459D1*
X1316747Y1206484D1*
X1313886Y1208739D1*
X1311211Y1211211D1*
X1308739Y1213886D1*
X1306484Y1216747D1*
X1304459Y1219776D1*
X1302680Y1222954D1*
X1301155Y1226262D1*
X1299894Y1229680D1*
X1298906Y1233186D1*
X1298194Y1236759D1*
X1297766Y1240375D1*
X1297623Y1244016D1*
X1297766Y1247656D1*
X1298194Y1251273D1*
X1298906Y1254845D1*
X1299894Y1258352D1*
X1301155Y1261769D1*
X1302680Y1265077D1*
X1304459Y1268256D1*
X1308043Y1273262D1*
X1280030Y1273268D1*
X1283572Y1268256D1*
X1285352Y1265077D1*
X1286877Y1261769D1*
X1288138Y1258352D1*
X1289126Y1254845D1*
X1289837Y1251273D1*
X1290265Y1247656D1*
X1290408Y1244016D1*
X1290265Y1240375D1*
X1390265D2*
X1389837Y1236759D1*
X1389126Y1233186D1*
X1388138Y1229680D1*
X1386877Y1226262D1*
X1385352Y1222954D1*
X1383572Y1219776D1*
X1381547Y1216747D1*
X1379293Y1213886D1*
X1376820Y1211211D1*
X1374146Y1208739D1*
X1371285Y1206484D1*
X1368256Y1204459D1*
X1365077Y1202680D1*
X1362403Y1201448D1*
X1362408Y1141652D1*
X1412913Y1091129D1*
X1412781Y1094016D1*
X1413165Y1098902D1*
X1414310Y1103668D1*
X1416185Y1108196D1*
X1418747Y1112375D1*
X1421929Y1116102D1*
X1425656Y1119285D1*
X1429836Y1121846D1*
X1434364Y1123722D1*
X1439130Y1124866D1*
X1444016Y1125251D1*
X1448902Y1124866D1*
X1453668Y1123722D1*
X1458196Y1121846D1*
X1462375Y1119285D1*
X1466102Y1116102D1*
X1469285Y1112375D1*
X1471846Y1108196D1*
X1473722Y1103668D1*
X1474866Y1098902D1*
X1475251Y1094016D1*
X1474866Y1089130D1*
X1473722Y1084364D1*
X1471846Y1079836D1*
X1469285Y1075656D1*
X1466102Y1071929D1*
X1462412Y1068776D1*
X1462408Y1046652D1*
X1475623Y1033419D1*
Y1141379D1*
X1430030Y1187071D1*
X1428333Y1189406D1*
X1427024Y1191978D1*
X1426131Y1194722D1*
X1425680Y1197572D1*
X1425623Y1201419D1*
X1419776Y1204459D1*
X1416747Y1206484D1*
X1413886Y1208739D1*
X1411211Y1211211D1*
X1408739Y1213886D1*
X1406484Y1216747D1*
X1404459Y1219776D1*
X1402680Y1222954D1*
X1401155Y1226262D1*
X1399894Y1229680D1*
X1398906Y1233186D1*
X1398194Y1236759D1*
X1397766Y1240375D1*
X1397623Y1244016D1*
X1397766Y1247656D1*
X1398194Y1251273D1*
X1398906Y1254845D1*
X1399894Y1258352D1*
X1401155Y1261769D1*
X1402680Y1265077D1*
X1404459Y1268256D1*
X1408043Y1273262D1*
X1380030Y1273268D1*
X1383572Y1268256D1*
X1385352Y1265077D1*
X1386877Y1261769D1*
X1388138Y1258352D1*
X1389126Y1254845D1*
X1389837Y1251273D1*
X1390265Y1247656D1*
X1390408Y1244016D1*
X1390265Y1240375D1*
X1490265D2*
X1489837Y1236759D1*
X1489126Y1233186D1*
X1488138Y1229680D1*
X1486877Y1226262D1*
X1485352Y1222954D1*
X1483572Y1219776D1*
X1481547Y1216747D1*
X1479293Y1213886D1*
X1476820Y1211211D1*
X1474146Y1208739D1*
X1471285Y1206484D1*
X1465909Y1203146D1*
X1508001Y1160961D1*
X1509698Y1158626D1*
X1511008Y1156054D1*
X1511900Y1153310D1*
X1512352Y1150459D1*
X1512408Y1119016D1*
Y1026652D1*
X1526646Y1012396D1*
X1578762Y1012408D1*
X1581929Y1016102D1*
X1585656Y1019285D1*
X1589836Y1021846D1*
X1594364Y1023722D1*
X1599130Y1024866D1*
X1604016Y1025251D1*
X1608902Y1024866D1*
X1613668Y1023722D1*
X1618196Y1021846D1*
X1622375Y1019285D1*
X1626102Y1016102D1*
X1629285Y1012375D1*
X1631846Y1008196D1*
X1633722Y1003668D1*
X1634866Y998902D1*
X1635251Y994016D1*
X1634871Y989177D1*
X1643001Y980961D1*
X1644698Y978626D1*
X1645406Y977361D1*
X1645623Y979016D1*
Y1197668D1*
X1640375Y1197766D1*
X1636759Y1198194D1*
X1633186Y1198906D1*
X1629680Y1199894D1*
X1626262Y1201155D1*
X1622954Y1202680D1*
X1619776Y1204459D1*
X1616747Y1206484D1*
X1613886Y1208739D1*
X1611211Y1211211D1*
X1608739Y1213886D1*
X1606484Y1216747D1*
X1604459Y1219776D1*
X1602680Y1222954D1*
X1601155Y1226262D1*
X1599894Y1229680D1*
X1598906Y1233186D1*
X1598194Y1236759D1*
X1597766Y1240375D1*
X1597623Y1244016D1*
X1597766Y1247656D1*
X1598194Y1251273D1*
X1598906Y1254845D1*
X1599894Y1258352D1*
X1601155Y1261769D1*
X1602680Y1265077D1*
X1604459Y1268256D1*
X1608043Y1273262D1*
X1580030Y1273268D1*
X1583572Y1268256D1*
X1585352Y1265077D1*
X1586877Y1261769D1*
X1588138Y1258352D1*
X1589126Y1254845D1*
X1589837Y1251273D1*
X1590265Y1247656D1*
X1590408Y1244016D1*
X1590265Y1240375D1*
X1589837Y1236759D1*
X1589126Y1233186D1*
X1588138Y1229680D1*
X1586877Y1226262D1*
X1585352Y1222954D1*
X1583572Y1219776D1*
X1581547Y1216747D1*
X1579293Y1213886D1*
X1576820Y1211211D1*
X1574146Y1208739D1*
X1571285Y1206484D1*
X1568256Y1204459D1*
X1565077Y1202680D1*
X1561769Y1201155D1*
X1558352Y1199894D1*
X1554845Y1198906D1*
X1551273Y1198194D1*
X1547656Y1197766D1*
X1544016Y1197623D1*
X1540375Y1197766D1*
X1536759Y1198194D1*
X1533186Y1198906D1*
X1529680Y1199894D1*
X1526262Y1201155D1*
X1522954Y1202680D1*
X1519776Y1204459D1*
X1516747Y1206484D1*
X1513886Y1208739D1*
X1511211Y1211211D1*
X1508739Y1213886D1*
X1506484Y1216747D1*
X1504459Y1219776D1*
X1502680Y1222954D1*
X1501155Y1226262D1*
X1499894Y1229680D1*
X1498906Y1233186D1*
X1498194Y1236759D1*
X1497766Y1240375D1*
X1497623Y1244016D1*
X1497766Y1247656D1*
X1498194Y1251273D1*
X1498906Y1254845D1*
X1499894Y1258352D1*
X1501155Y1261769D1*
X1502680Y1265077D1*
X1504459Y1268256D1*
X1508043Y1273262D1*
X1480030Y1273268D1*
X1483572Y1268256D1*
X1485352Y1265077D1*
X1486877Y1261769D1*
X1488138Y1258352D1*
X1489126Y1254845D1*
X1489837Y1251273D1*
X1490265Y1247656D1*
X1490408Y1244016D1*
X1490265Y1240375D1*
X1690265D2*
X1689837Y1236759D1*
X1689126Y1233186D1*
X1688138Y1229680D1*
X1686877Y1226262D1*
X1685352Y1222954D1*
X1682409Y1218037D1*
X1682408Y879269D1*
X1686102Y876102D1*
X1689285Y872375D1*
X1691846Y868196D1*
X1693722Y863668D1*
X1694866Y858902D1*
X1695251Y854016D1*
X1694866Y849130D1*
X1693722Y844364D1*
X1691846Y839836D1*
X1689285Y835656D1*
X1686102Y831929D1*
X1682375Y828747D1*
X1678196Y826185D1*
X1673668Y824310D1*
X1668902Y823165D1*
X1664016Y822781D1*
X1659130Y823165D1*
X1654364Y824310D1*
X1649836Y826185D1*
X1647402Y827581D1*
X1649092Y824950D1*
X1691643Y782399D1*
X1828762Y782408D1*
X1831929Y786102D1*
X1835656Y789285D1*
X1839836Y791846D1*
X1844364Y793722D1*
X1849130Y794866D1*
X1854016Y795251D1*
X1858902Y794866D1*
X1863668Y793722D1*
X1868196Y791846D1*
X1872375Y789285D1*
X1876102Y786102D1*
X1879285Y782375D1*
X1881846Y778196D1*
X1883722Y773668D1*
X1884866Y768902D1*
X1885251Y764016D1*
X1884866Y759130D1*
X1883722Y754364D1*
X1881846Y749836D1*
X1880450Y747402D1*
X1938919Y747408D1*
X1940159Y750969D1*
X1942383Y755336D1*
X1945265Y759301D1*
X1948731Y762766D1*
X1952696Y765648D1*
X1957063Y767873D1*
X1961724Y769387D1*
X1966566Y770154D1*
X1971466D1*
X1976307Y769387D1*
X1980969Y767873D1*
X1985336Y765648D1*
X1989301Y762766D1*
X1992766Y759301D1*
X1995621Y755375D1*
X1995680Y795459D1*
X1996131Y798310D1*
X1997024Y801054D1*
X1998333Y803626D1*
X2000030Y805961D1*
X2022223Y828234D1*
X2025635Y831646D1*
X2025623Y918762D1*
X2021929Y921929D1*
X2018747Y925656D1*
X2016185Y929836D1*
X2014310Y934364D1*
X2013165Y939130D1*
X2012781Y944016D1*
X2013165Y948902D1*
X2014310Y953668D1*
X2016185Y958196D1*
X2018747Y962375D1*
X2021929Y966102D1*
X2025656Y969285D1*
X2029836Y971846D1*
X2034364Y973722D1*
X2039130Y974866D1*
X2044016Y975251D1*
X2048902Y974866D1*
X2053668Y973722D1*
X2058196Y971846D1*
X2062375Y969285D1*
X2066102Y966102D1*
X2069285Y962375D1*
X2071846Y958196D1*
X2073722Y953668D1*
X2074866Y948902D1*
X2075251Y944016D1*
X2074866Y939130D1*
X2073722Y934364D1*
X2071846Y929836D1*
X2069285Y925656D1*
X2066102Y921929D1*
X2062412Y918776D1*
X2062352Y822572D1*
X2061900Y819722D1*
X2061008Y816978D1*
X2059698Y814406D1*
X2058001Y812071D1*
X2035808Y789798D1*
X2032396Y786386D1*
X2032408Y761575D1*
X2035656Y764285D1*
X2039836Y766846D1*
X2044364Y768722D1*
X2049130Y769866D1*
X2054016Y770251D1*
X2058902Y769866D1*
X2063668Y768722D1*
X2068196Y766846D1*
X2072375Y764285D1*
X2076102Y761102D1*
X2079285Y757375D1*
X2081846Y753196D1*
X2083722Y748668D1*
X2084866Y743902D1*
X2085251Y739016D1*
X2084871Y734177D1*
X2087717Y734528D1*
Y1041696D1*
X1855961Y810030D1*
X1853626Y808333D1*
X1851054Y807024D1*
X1848310Y806131D1*
X1845459Y805680D1*
X1839269Y805623D1*
X1836102Y801929D1*
X1832375Y798747D1*
X1828196Y796185D1*
X1823668Y794310D1*
X1818902Y793165D1*
X1814016Y792781D1*
X1809130Y793165D1*
X1804364Y794310D1*
X1799836Y796185D1*
X1795656Y798747D1*
X1791929Y801929D1*
X1788747Y805656D1*
X1786185Y809836D1*
X1784310Y814364D1*
X1783165Y819130D1*
X1782781Y824016D1*
X1783165Y828902D1*
X1784310Y833668D1*
X1786185Y838196D1*
X1788747Y842375D1*
X1791929Y846102D1*
X1795656Y849285D1*
X1799836Y851846D1*
X1804364Y853722D1*
X1809130Y854866D1*
X1814016Y855251D1*
X1818902Y854866D1*
X1823668Y853722D1*
X1828196Y851846D1*
X1832375Y849285D1*
X1836102Y846102D1*
X1837999Y844008D1*
X2060613Y1066623D1*
X2060623Y1106105D1*
X2058895Y1103205D1*
X2057021Y1101010D1*
X1874871Y918861D1*
X1875251Y914016D1*
X1874866Y909130D1*
X1873722Y904364D1*
X1871846Y899836D1*
X1869285Y895656D1*
X1866102Y891929D1*
X1862375Y888747D1*
X1858196Y886185D1*
X1853668Y884310D1*
X1848902Y883165D1*
X1844016Y882781D1*
X1839130Y883165D1*
X1834364Y884310D1*
X1829836Y886185D1*
X1825656Y888747D1*
X1821929Y891929D1*
X1818747Y895656D1*
X1816185Y899836D1*
X1814310Y904364D1*
X1813165Y909130D1*
X1812781Y914016D1*
X1813165Y918902D1*
X1814310Y923668D1*
X1816185Y928196D1*
X1818747Y932375D1*
X1821929Y936102D1*
X1825656Y939285D1*
X1829836Y941846D1*
X1834364Y943722D1*
X1839130Y944866D1*
X1844016Y945251D1*
X1848854Y944871D1*
X2025617Y1121627D1*
X2025623Y1201419D1*
X2019776Y1204459D1*
X2016747Y1206484D1*
X2013886Y1208739D1*
X2011211Y1211211D1*
X2008739Y1213886D1*
X2006484Y1216747D1*
X2004459Y1219776D1*
X2002680Y1222954D1*
X2001155Y1226262D1*
X1999894Y1229680D1*
X1998906Y1233186D1*
X1998194Y1236759D1*
X1997766Y1240375D1*
X1997623Y1244016D1*
X1997766Y1247656D1*
X1998194Y1251273D1*
X1998906Y1254845D1*
X1999894Y1258352D1*
X2001155Y1261769D1*
X2002680Y1265077D1*
X2004459Y1268256D1*
X2008043Y1273262D1*
X1980030Y1273268D1*
X1983572Y1268256D1*
X1985352Y1265077D1*
X1986877Y1261769D1*
X1988138Y1258352D1*
X1989126Y1254845D1*
X1989837Y1251273D1*
X1990265Y1247656D1*
X1990408Y1244016D1*
X1990265Y1240375D1*
X1989837Y1236759D1*
X1989126Y1233186D1*
X1988138Y1229680D1*
X1986877Y1226262D1*
X1985352Y1222954D1*
X1983572Y1219776D1*
X1981547Y1216747D1*
X1979293Y1213886D1*
X1976820Y1211211D1*
X1974146Y1208739D1*
X1971285Y1206484D1*
X1968256Y1204459D1*
X1965077Y1202680D1*
X1961769Y1201155D1*
X1958352Y1199894D1*
X1954845Y1198906D1*
X1951273Y1198194D1*
X1947656Y1197766D1*
X1944016Y1197623D1*
X1940375Y1197766D1*
X1936759Y1198194D1*
X1933186Y1198906D1*
X1929680Y1199894D1*
X1926262Y1201155D1*
X1922954Y1202680D1*
X1919776Y1204459D1*
X1916747Y1206484D1*
X1913886Y1208739D1*
X1911211Y1211211D1*
X1908739Y1213886D1*
X1906484Y1216747D1*
X1904459Y1219776D1*
X1902680Y1222954D1*
X1901155Y1226262D1*
X1899894Y1229680D1*
X1898906Y1233186D1*
X1898194Y1236759D1*
X1897766Y1240375D1*
X1897623Y1244016D1*
X1897766Y1247656D1*
X1898194Y1251273D1*
X1898906Y1254845D1*
X1899894Y1258352D1*
X1901155Y1261769D1*
X1902680Y1265077D1*
X1904459Y1268256D1*
X1908043Y1273262D1*
X1880030Y1273268D1*
X1883572Y1268256D1*
X1885352Y1265077D1*
X1886877Y1261769D1*
X1888138Y1258352D1*
X1889126Y1254845D1*
X1889837Y1251273D1*
X1890265Y1247656D1*
X1890408Y1244016D1*
X1890265Y1240375D1*
X1889837Y1236759D1*
X1889126Y1233186D1*
X1888138Y1229680D1*
X1886877Y1226262D1*
X1885352Y1222954D1*
X1883572Y1219776D1*
X1881547Y1216747D1*
X1879293Y1213886D1*
X1876820Y1211211D1*
X1874146Y1208739D1*
X1871285Y1206484D1*
X1868256Y1204459D1*
X1865077Y1202680D1*
X1861769Y1201155D1*
X1858352Y1199894D1*
X1854845Y1198906D1*
X1851273Y1198194D1*
X1847656Y1197766D1*
X1844016Y1197623D1*
X1840375Y1197766D1*
X1836759Y1198194D1*
X1833186Y1198906D1*
X1829680Y1199894D1*
X1826262Y1201155D1*
X1822954Y1202680D1*
X1819776Y1204459D1*
X1816747Y1206484D1*
X1813886Y1208739D1*
X1811211Y1211211D1*
X1808739Y1213886D1*
X1806484Y1216747D1*
X1804459Y1219776D1*
X1802680Y1222954D1*
X1801155Y1226262D1*
X1799894Y1229680D1*
X1798906Y1233186D1*
X1798194Y1236759D1*
X1797766Y1240375D1*
X1797623Y1244016D1*
X1797766Y1247656D1*
X1798194Y1251273D1*
X1798906Y1254845D1*
X1799894Y1258352D1*
X1801155Y1261769D1*
X1802680Y1265077D1*
X1804459Y1268256D1*
X1808043Y1273262D1*
X1780030Y1273268D1*
X1783572Y1268256D1*
X1785352Y1265077D1*
X1786877Y1261769D1*
X1788138Y1258352D1*
X1789126Y1254845D1*
X1789837Y1251273D1*
X1790265Y1247656D1*
X1790408Y1244016D1*
X1790265Y1240375D1*
X1789837Y1236759D1*
X1789126Y1233186D1*
X1788138Y1229680D1*
X1786877Y1226262D1*
X1785352Y1222954D1*
X1783572Y1219776D1*
X1781547Y1216747D1*
X1779293Y1213886D1*
X1776820Y1211211D1*
X1774146Y1208739D1*
X1771285Y1206484D1*
X1768256Y1204459D1*
X1765077Y1202680D1*
X1762403Y1201448D1*
X1762408Y941652D1*
X1774160Y929882D1*
X1779016Y930251D1*
X1783902Y929866D1*
X1788668Y928722D1*
X1793196Y926846D1*
X1797375Y924285D1*
X1801102Y921102D1*
X1804285Y917375D1*
X1806846Y913196D1*
X1808722Y908668D1*
X1809866Y903902D1*
X1810251Y899016D1*
X1809866Y894130D1*
X1808722Y889364D1*
X1806846Y884836D1*
X1804285Y880656D1*
X1801102Y876929D1*
X1797375Y873747D1*
X1793196Y871185D1*
X1788668Y869310D1*
X1783902Y868165D1*
X1779016Y867781D1*
X1774130Y868165D1*
X1769364Y869310D1*
X1764836Y871185D1*
X1760656Y873747D1*
X1756929Y876929D1*
X1753747Y880656D1*
X1751185Y884836D1*
X1749310Y889364D1*
X1748165Y894130D1*
X1747781Y899016D1*
X1748160Y903854D1*
X1730030Y922071D1*
X1728333Y924406D1*
X1727024Y926978D1*
X1726131Y929722D1*
X1725680Y932572D1*
X1725623Y964016D1*
Y1201419D1*
X1719776Y1204459D1*
X1716747Y1206484D1*
X1713886Y1208739D1*
X1711211Y1211211D1*
X1708739Y1213886D1*
X1706484Y1216747D1*
X1704459Y1219776D1*
X1702680Y1222954D1*
X1701155Y1226262D1*
X1699894Y1229680D1*
X1698906Y1233186D1*
X1698194Y1236759D1*
X1697766Y1240375D1*
X1697623Y1244016D1*
X1697766Y1247656D1*
X1698194Y1251273D1*
X1698906Y1254845D1*
X1699894Y1258352D1*
X1701155Y1261769D1*
X1702680Y1265077D1*
X1704459Y1268256D1*
X1708043Y1273262D1*
X1680030Y1273268D1*
X1683572Y1268256D1*
X1685352Y1265077D1*
X1686877Y1261769D1*
X1688138Y1258352D1*
X1689126Y1254845D1*
X1689837Y1251273D1*
X1690265Y1247656D1*
X1690408Y1244016D1*
X1690265Y1240375D1*
X2087719Y1228545D2*
X2085352Y1222954D1*
X2083572Y1219776D1*
X2081547Y1216747D1*
X2079293Y1213886D1*
X2076820Y1211211D1*
X2074146Y1208739D1*
X2071285Y1206484D1*
X2068256Y1204459D1*
X2065077Y1202680D1*
X2062403Y1201448D1*
X2062408Y1186927D1*
X2064136Y1189827D1*
X2066010Y1192021D1*
X2087707Y1213718D1*
X2087717Y1228453D1*
X769298Y638075D2*
X771929Y641102D1*
X775656Y644285D1*
X779836Y646846D1*
X784364Y648722D1*
X789130Y649866D1*
X794016Y650251D1*
X798902Y649866D1*
X803217Y648849D1*
X802781Y654016D1*
X803160Y658854D1*
X705030Y757071D1*
X703333Y759406D1*
X702024Y761978D1*
X701131Y764722D1*
X700680Y767572D1*
X700623Y783762D1*
X696929Y786929D1*
X693747Y790656D1*
X691185Y794836D1*
X690411Y796514D1*
X690408Y667864D1*
X744012Y614273D1*
X765122Y635282D1*
X767844Y637259D1*
X1275154Y1126566D2*
X1274387Y1121724D1*
X1272873Y1117063D1*
X1270648Y1112696D1*
X1267766Y1108731D1*
X1265406Y1106286D1*
X1265408Y1046535D1*
X1267383Y1050336D1*
X1270265Y1054301D1*
X1273731Y1057766D1*
X1275619Y1059256D1*
X1275623Y1165636D1*
X982572Y1165680D1*
X979722Y1166131D1*
X976978Y1167024D1*
X974406Y1168333D1*
X972071Y1170030D1*
X949798Y1192223D1*
X896391Y1245630D1*
X589269Y1245623D1*
X586102Y1241929D1*
X582375Y1238747D1*
X578196Y1236185D1*
X573668Y1234310D1*
X572312Y1233928D1*
X576726Y1224932D1*
X578056Y1221323D1*
X579101Y1217619D1*
X580634Y1208908D1*
X582231Y1197860D1*
X582382Y1194016D1*
X582231Y1190172D1*
X580996Y1181412D1*
X579101Y1170412D1*
X578056Y1166709D1*
X576726Y1163100D1*
X572845Y1155151D1*
X567643Y1145274D1*
X565505Y1142075D1*
X563123Y1139054D1*
X556976Y1132694D1*
X548978Y1124908D1*
X545957Y1122526D1*
X542757Y1120388D1*
X534946Y1116239D1*
X528412Y1112911D1*
X529016Y1112408D1*
X965459Y1112352D1*
X968310Y1111900D1*
X971054Y1111008D1*
X973626Y1109698D1*
X975961Y1108001D1*
X998234Y1085808D1*
X1053001Y1030961D1*
X1054698Y1028626D1*
X1056008Y1026054D1*
X1056900Y1023310D1*
X1057352Y1020459D1*
X1057408Y1009269D1*
X1061102Y1006102D1*
X1064285Y1002375D1*
X1066846Y998196D1*
X1068722Y993668D1*
X1069866Y988902D1*
X1070251Y984016D1*
X1070018Y980413D1*
X1165168Y980408D1*
X1222626Y1037879D1*
X1222623Y1106262D1*
X1220265Y1108731D1*
X1217383Y1112696D1*
X1215159Y1117063D1*
X1213644Y1121724D1*
X1212878Y1126566D1*
Y1131466D1*
X1213644Y1136307D1*
X1215159Y1140969D1*
X1217383Y1145336D1*
X1220265Y1149301D1*
X1223731Y1152766D1*
X1227696Y1155648D1*
X1232063Y1157873D1*
X1236724Y1159387D1*
X1241566Y1160154D1*
X1246466D1*
X1251307Y1159387D1*
X1255969Y1157873D1*
X1260336Y1155648D1*
X1264301Y1152766D1*
X1267766Y1149301D1*
X1270648Y1145336D1*
X1272873Y1140969D1*
X1274387Y1136307D1*
X1275154Y1131466D1*
Y1126566D1*
X1235154Y516566D2*
X1234871Y514177D1*
X1239016Y512408D1*
X1299621D1*
X1276387Y535634D1*
X1230480Y535623D1*
X1232873Y530969D1*
X1234387Y526307D1*
X1235154Y521466D1*
Y516566D1*
X1608854Y963160D2*
X1604016Y962781D1*
X1599130Y963165D1*
X1594364Y964310D1*
X1589836Y966185D1*
X1585656Y968747D1*
X1581929Y971929D1*
X1578776Y975619D1*
X1533411Y975623D1*
X1546639Y962403D1*
X1575459Y962352D1*
X1578310Y961900D1*
X1581054Y961008D1*
X1583626Y959698D1*
X1585961Y958001D1*
X1608234Y935808D1*
X1610623Y933419D1*
Y961379D1*
X1608870Y963151D1*
X1585630Y867581D2*
X1583196Y866185D1*
X1578668Y864310D1*
X1573902Y863165D1*
X1569016Y862781D1*
X1564130Y863165D1*
X1559364Y864310D1*
X1554836Y866185D1*
X1550656Y868747D1*
X1546929Y871929D1*
X1543747Y875656D1*
X1543123Y876588D1*
X1540665Y877629D1*
X1538205Y879136D1*
X1536010Y881010D1*
X1452387Y964634D1*
X1452408Y842395D1*
X1545459Y842352D1*
X1548310Y841900D1*
X1551054Y841008D1*
X1553626Y839698D1*
X1555961Y838001D1*
X1578234Y815808D1*
X1585623Y808419D1*
Y867551D1*
X1200154Y626566D2*
X1199871Y624177D1*
X1211644Y612398D1*
X1221105Y612408D1*
X1218205Y614136D1*
X1216010Y616010D1*
X1200114Y631907D1*
X1200251Y629016D1*
X1200154Y626566D1*
X1898160Y609177D2*
X1897866Y611862D1*
X1853424Y567413D1*
X1856379Y567408D1*
X1898146Y609157D1*
X596104Y918656D2*
X595437Y914445D1*
X594119Y910390D1*
X592184Y906591D1*
X589677Y903140D1*
X586663Y900126D1*
X583213Y897619D1*
X579413Y895684D1*
X575358Y894366D1*
X571147Y893699D1*
X566885D1*
X562673Y894366D1*
X558618Y895684D1*
X554819Y897619D1*
X551369Y900126D1*
X548354Y903140D1*
X545848Y906591D1*
X543912Y910390D1*
X542594Y914445D1*
X541928Y918656D1*
Y922919D1*
X542594Y927130D1*
X543912Y931185D1*
X545848Y934984D1*
X548354Y938434D1*
X551369Y941449D1*
X554819Y943955D1*
X558618Y945891D1*
X562673Y947209D1*
X566885Y947875D1*
X571147D1*
X575358Y947209D1*
X579413Y945891D1*
X583213Y943955D1*
X586663Y941449D1*
X589677Y938434D1*
X592184Y934984D1*
X594119Y931185D1*
X595437Y927130D1*
X596104Y922919D1*
Y918656D1*
Y765113D2*
X595437Y760902D1*
X594119Y756846D1*
X592184Y753047D1*
X589677Y749597D1*
X586663Y746583D1*
X583213Y744076D1*
X579413Y742140D1*
X575358Y740823D1*
X571147Y740156D1*
X566885D1*
X562673Y740823D1*
X558618Y742140D1*
X554819Y744076D1*
X551369Y746583D1*
X548354Y749597D1*
X545848Y753047D1*
X543912Y756846D1*
X542594Y760902D1*
X541928Y765113D1*
Y769375D1*
X542594Y773587D1*
X543912Y777642D1*
X545848Y781441D1*
X548354Y784891D1*
X551369Y787906D1*
X554819Y790412D1*
X558618Y792348D1*
X562673Y793665D1*
X566885Y794332D1*
X571147D1*
X575358Y793665D1*
X579413Y792348D1*
X583213Y790412D1*
X586663Y787906D1*
X589677Y784891D1*
X592184Y781441D1*
X594119Y777642D1*
X595437Y773587D1*
X596104Y769375D1*
Y765113D1*
X662411Y877664D2*
X805127Y1020286D1*
X804016Y1020623D1*
X761652D1*
X662406Y921395D1*
X662408Y877668D1*
D28*
X2144016Y444016D3*
X2044016D3*
X1944016D3*
X1844016D3*
X1744016D3*
X1644016D3*
X1544016D3*
X1444016D3*
X1344016D3*
X1244016D3*
X1144016D3*
X1044016D3*
X944016D3*
X844016D3*
X744016D3*
X644016D3*
X1044016Y1244016D3*
X1144016D3*
X1244016D3*
X1344016D3*
X1444016D3*
X1544016D3*
X1644016D3*
X1744016D3*
X1844016D3*
X1944016D3*
X2044016D3*
X2144016D3*
D40*
X494016Y1194016D3*
Y494016D3*
D117*
X604449Y973937D3*
D120*
Y714094D3*
D27*
X494213Y985748D3*
Y702283D3*
M02*
