M48
INCH
T01C0.0157
T02C0.0276
T03C0.0315
T04C0.0354
T05C0.0394
T06C0.0433
T07C0.0984
%
T01
X+004176Y+011228
X+005672Y+012625
X+006243Y+011050
X+009196Y+010007
X+009649Y+009751
X+010791Y+009850
X+010987Y+009200
X+011322Y+007428
X+011440Y+007094
X+011361Y+006109
X+011361Y+005775
X+011716Y+005775
X+011716Y+006109
X+012700Y+005854
X+013035Y+005755
X+013330Y+005932
X+012779Y+006208
X+014275Y+005696
X+015318Y+005716
X+015633Y+005716
X+015653Y+005342
X+015968Y+005243
X+016302Y+005184
X+017277Y+005785
X+017405Y+006188
X+017720Y+006129
X+017090Y+006306
X+018822Y+006661
X+019649Y+006424
X+020220Y+005775
X+020298Y+005361
X+018783Y+005558
X+019688Y+007507
X+019590Y+009141
X+019137Y+010440
X+019472Y+011365
X+019885Y+011346
X+020692Y+011700
X+017857Y+011287
X+017798Y+012074
X+017208Y+010519
X+016854Y+010480
X+016460Y+010480
X+015535Y+009830
X+014216Y+009830
X+014708Y+011011
X+013704Y+011720
X+014314Y+008354
X+014275Y+007231
X+010200Y+005913
X+009924Y+006228
X+009688Y+007231
X+008546Y+007271
X+007483Y+007428
X+007503Y+007822
X+007247Y+008058
X+006893Y+007881
X+006893Y+007113
X+006420Y+005854
X+008350Y+006169
X+005003Y+007763
T02
X+005554Y+009192
X+005554Y+007657
T03
X+005909Y+009724
X+005909Y+007125
T04
X+004806Y+009842
X+004806Y+007007
T05
X+010306Y+012436
X+011306Y+012436
X+012306Y+012436
X+013306Y+012436
X+014306Y+012436
X+015306Y+012436
X+016306Y+012436
X+017306Y+012436
X+018306Y+012436
X+019306Y+012436
X+020306Y+012436
X+021306Y+012436
X+021306Y+004436
X+020306Y+004436
X+019306Y+004436
X+018306Y+004436
X+017306Y+004436
X+016306Y+004436
X+015306Y+004436
X+014306Y+004436
X+013306Y+004436
X+012306Y+004436
X+011306Y+004436
X+010306Y+004436
X+009306Y+004436
X+008306Y+004436
X+007306Y+004436
X+006306Y+004436
T06
X+012346Y+010539
X+012346Y+009539
X+013346Y+009539
X+013346Y+010539
X+013346Y+008539
X+013346Y+007539
X+012346Y+007539
X+012346Y+008539
T07
X+022802Y+011924
X+022802Y+004924
X+004802Y+004924
X+004802Y+011924
T00
M30
