G04 DipTrace 3.0.0.0*
G04 TopSilk.gto*
%MOIN*%
G04 #@! TF.FileFunction,Legend,Top*
G04 #@! TF.Part,Single*
%ADD18C,0.012*%
%ADD25C,0.008*%
%ADD36C,0.005*%
%ADD101C,0.006176*%
%FSLAX26Y26*%
G04*
G70*
G90*
G75*
G01*
G04 TopSilk*
%LPD*%
X1259018Y1031516D2*
D18*
X1219014D1*
X829016Y854014D2*
Y894018D1*
X692439Y904213D2*
X732443D1*
X979608Y891654D2*
X939604D1*
G36*
X502008Y596507D2*
X494563D1*
Y631519D1*
X502008D1*
Y596507D1*
G37*
G36*
X519508Y1059007D2*
X512063D1*
Y1094019D1*
X519508D1*
Y1059007D1*
G37*
G36*
X1110802Y1114339D2*
X1118693D1*
Y1153698D1*
X1110802D1*
Y1114339D1*
G37*
X1133391Y1106457D2*
D25*
X1064641D1*
Y1161575D2*
X1133391D1*
X1110822Y1134016D2*
X1087209Y1118269D1*
Y1149763D1*
X1110822Y1134016D1*
X909016Y699009D2*
G02X909016Y699009I5004J0D01*
G01*
X1098983Y570269D2*
X1112767D1*
Y584046D2*
Y570269D1*
X969046D2*
X955284D1*
Y584046D1*
X1112767Y713986D2*
Y727762D1*
X1098983D1*
X969046D2*
X955284Y713986D1*
X1370510Y681453D2*
X1394131D1*
Y712953D1*
X1307521Y681453D2*
X1283901D1*
Y712953D1*
X1307521Y1011579D2*
X1283901D1*
Y980079D1*
X1370510Y1011579D2*
X1394131D1*
Y980079D1*
X1339016Y819017D2*
Y799016D1*
X1184016Y724016D2*
X1164016D1*
X844013Y819016D2*
X954019D1*
X844013Y739016D2*
G02X834016Y749016I0J9997D01*
G01*
X964016D2*
G02X954019Y739016I-10009J9D01*
G01*
X964016Y809016D2*
G03X954019Y819016I-9992J8D01*
G01*
X844013D2*
G03X834016Y809016I3J-10000D01*
G01*
Y749016D1*
X964016Y809016D2*
Y749016D1*
X954019Y739016D2*
X844013D1*
X824071Y726693D2*
Y561339D1*
X703961D2*
Y726693D1*
X1062522Y919055D2*
X1125510D1*
X1062522Y1048976D2*
X1125510D1*
X1052677Y968269D2*
Y999762D1*
X1125510Y913976D2*
X1062522D1*
X1125510Y784055D2*
X1062522D1*
X1135354Y864762D2*
Y833269D1*
G36*
X1249896Y554893D2*
X1247888D1*
Y554640D1*
X1249896D1*
Y554893D1*
G37*
G36*
X1250640Y555146D2*
X1247397D1*
Y554893D1*
X1250640D1*
Y555146D1*
G37*
G36*
X1251383Y555384D2*
X1246638D1*
Y555131D1*
X1251383D1*
Y555384D1*
G37*
G36*
X1251636Y555636D2*
X1246147D1*
Y555384D1*
X1251636D1*
Y555636D1*
G37*
G36*
X1252142Y555889D2*
X1245895D1*
Y555636D1*
X1252142D1*
Y555889D1*
G37*
G36*
X1252395Y556142D2*
X1245389D1*
Y555889D1*
X1252395D1*
Y556142D1*
G37*
G36*
X1252886Y556395D2*
X1245136D1*
Y556142D1*
X1252886D1*
Y556395D1*
G37*
G36*
X1253139Y556648D2*
X1244645D1*
Y556380D1*
X1253139D1*
Y556648D1*
G37*
G36*
X1253391Y556886D2*
X1244392D1*
Y556633D1*
X1253391D1*
Y556886D1*
G37*
G36*
Y557139D2*
X1243886D1*
Y556886D1*
X1253391D1*
Y557139D1*
G37*
G36*
X1253644Y557392D2*
X1243648D1*
Y557139D1*
X1253644D1*
Y557392D1*
G37*
G36*
Y557645D2*
X1243143D1*
Y557377D1*
X1253644D1*
Y557645D1*
G37*
G36*
X1253882Y557882D2*
X1242890D1*
Y557630D1*
X1253882D1*
Y557882D1*
G37*
G36*
Y558135D2*
X1242637D1*
Y557882D1*
X1253882D1*
Y558135D1*
G37*
G36*
Y558388D2*
X1242146D1*
Y558135D1*
X1253882D1*
Y558388D1*
G37*
G36*
X1254135Y558641D2*
X1241893D1*
Y558373D1*
X1254135D1*
Y558641D1*
G37*
G36*
Y558894D2*
X1241640D1*
Y558626D1*
X1254135D1*
Y558894D1*
G37*
G36*
Y559147D2*
X1241135D1*
Y558879D1*
X1254135D1*
Y559147D1*
G37*
G36*
Y559385D2*
X1240897D1*
Y559132D1*
X1254135D1*
Y559385D1*
G37*
G36*
X1254388Y559638D2*
X1240644D1*
Y559385D1*
X1254388D1*
Y559638D1*
G37*
G36*
Y559891D2*
X1240138D1*
Y559623D1*
X1254388D1*
Y559891D1*
G37*
G36*
Y560143D2*
X1239885D1*
Y559876D1*
X1254388D1*
Y560143D1*
G37*
G36*
Y560396D2*
X1239394D1*
Y560129D1*
X1254388D1*
Y560396D1*
G37*
G36*
Y560634D2*
X1239141D1*
Y560381D1*
X1254388D1*
Y560634D1*
G37*
G36*
Y560887D2*
X1238888D1*
Y560634D1*
X1254388D1*
Y560887D1*
G37*
G36*
Y561140D2*
X1238383D1*
Y560872D1*
X1254388D1*
Y561140D1*
G37*
G36*
Y561393D2*
X1238145D1*
Y561125D1*
X1254388D1*
Y561393D1*
G37*
G36*
Y561646D2*
X1237892D1*
Y561378D1*
X1254388D1*
Y561646D1*
G37*
G36*
Y561884D2*
X1237386D1*
Y561631D1*
X1254388D1*
Y561884D1*
G37*
G36*
Y562137D2*
X1237148D1*
Y561869D1*
X1254388D1*
Y562137D1*
G37*
G36*
Y562390D2*
X1236642D1*
Y562122D1*
X1254388D1*
Y562390D1*
G37*
G36*
Y562642D2*
X1236390D1*
Y562375D1*
X1254388D1*
Y562642D1*
G37*
G36*
Y562895D2*
X1236137D1*
Y562628D1*
X1254388D1*
Y562895D1*
G37*
G36*
Y563148D2*
X1235646D1*
Y562880D1*
X1254388D1*
Y563148D1*
G37*
G36*
Y563386D2*
X1235393D1*
Y563133D1*
X1254388D1*
Y563386D1*
G37*
G36*
Y563639D2*
X1235140D1*
Y563371D1*
X1254388D1*
Y563639D1*
G37*
G36*
Y563892D2*
X1234649D1*
Y563624D1*
X1254388D1*
Y563892D1*
G37*
G36*
Y564145D2*
X1234396D1*
Y563877D1*
X1254388D1*
Y564145D1*
G37*
G36*
Y564383D2*
X1234143D1*
Y564130D1*
X1254388D1*
Y564383D1*
G37*
G36*
Y564636D2*
X1233638D1*
Y564368D1*
X1254388D1*
Y564636D1*
G37*
G36*
Y564889D2*
X1233385D1*
Y564621D1*
X1254388D1*
Y564889D1*
G37*
G36*
Y565141D2*
X1232894D1*
Y564874D1*
X1254388D1*
Y565141D1*
G37*
G36*
Y565394D2*
X1232641D1*
Y565127D1*
X1254388D1*
Y565394D1*
G37*
G36*
Y565647D2*
X1232388D1*
Y565365D1*
X1254388D1*
Y565647D1*
G37*
G36*
Y565885D2*
X1231882D1*
Y565617D1*
X1254388D1*
Y565885D1*
G37*
G36*
Y566138D2*
X1231644D1*
Y565870D1*
X1254388D1*
Y566138D1*
G37*
G36*
Y566391D2*
X1231392D1*
Y566123D1*
X1254388D1*
Y566391D1*
G37*
G36*
Y566644D2*
X1230886D1*
Y566376D1*
X1254388D1*
Y566644D1*
G37*
G36*
Y566897D2*
X1230648D1*
Y566629D1*
X1254388D1*
Y566897D1*
G37*
G36*
Y567135D2*
X1230395D1*
Y566867D1*
X1254388D1*
Y567135D1*
G37*
G36*
Y567388D2*
X1229889D1*
Y567120D1*
X1254388D1*
Y567388D1*
G37*
G36*
Y567640D2*
X1229636D1*
Y567373D1*
X1254388D1*
Y567640D1*
G37*
G36*
Y567893D2*
X1229145D1*
Y567626D1*
X1254388D1*
Y567893D1*
G37*
G36*
Y568146D2*
X1228893D1*
Y567864D1*
X1254388D1*
Y568146D1*
G37*
G36*
X1164886Y568384D2*
X1162387D1*
Y568146D1*
X1164886D1*
Y568384D1*
G37*
G36*
X1254388D2*
X1228640D1*
Y568116D1*
X1254388D1*
Y568384D1*
G37*
G36*
X1165645Y568637D2*
X1161644D1*
Y568384D1*
X1165645D1*
Y568637D1*
G37*
G36*
X1254388D2*
X1228149D1*
Y568369D1*
X1254388D1*
Y568637D1*
G37*
G36*
X1166642Y568890D2*
X1161138D1*
Y568637D1*
X1166642D1*
Y568890D1*
G37*
G36*
X1254388D2*
X1227896D1*
Y568622D1*
X1254388D1*
Y568890D1*
G37*
G36*
X1167385Y569143D2*
X1160885D1*
Y568890D1*
X1167385D1*
Y569143D1*
G37*
G36*
X1254388D2*
X1227643D1*
Y568875D1*
X1254388D1*
Y569143D1*
G37*
G36*
X1168144Y569396D2*
X1160394D1*
Y569128D1*
X1168144D1*
Y569396D1*
G37*
G36*
X1254388D2*
X1227137D1*
Y569113D1*
X1254388D1*
Y569396D1*
G37*
G36*
X1168888Y569649D2*
X1160141D1*
Y569381D1*
X1168888D1*
Y569649D1*
G37*
G36*
X1254388D2*
X1226885D1*
Y569366D1*
X1254388D1*
Y569649D1*
G37*
G36*
X1169646Y569887D2*
X1159888D1*
Y569634D1*
X1169646D1*
Y569887D1*
G37*
G36*
X1254388D2*
X1226647D1*
Y569619D1*
X1254388D1*
Y569887D1*
G37*
G36*
X1170643Y570139D2*
X1159636D1*
Y569887D1*
X1170643D1*
Y570139D1*
G37*
G36*
X1254388D2*
X1226141D1*
Y569872D1*
X1254388D1*
Y570139D1*
G37*
G36*
X1171149Y570392D2*
X1159383D1*
Y570125D1*
X1171149D1*
Y570392D1*
G37*
G36*
X1254388D2*
X1225888D1*
Y570125D1*
X1254388D1*
Y570392D1*
G37*
G36*
X1172145Y570645D2*
X1159145D1*
Y570377D1*
X1172145D1*
Y570645D1*
G37*
G36*
X1254388D2*
X1225397D1*
Y570363D1*
X1254388D1*
Y570645D1*
G37*
G36*
X1172636Y570883D2*
X1159145D1*
Y570630D1*
X1172636D1*
Y570883D1*
G37*
G36*
X1254388D2*
X1225144D1*
Y570615D1*
X1254388D1*
Y570883D1*
G37*
G36*
X1173648Y571136D2*
X1158892D1*
Y570883D1*
X1173648D1*
Y571136D1*
G37*
G36*
X1254388D2*
X1224891D1*
Y570868D1*
X1254388D1*
Y571136D1*
G37*
G36*
X1174391Y571389D2*
X1158892D1*
Y571136D1*
X1174391D1*
Y571389D1*
G37*
G36*
X1254388D2*
X1224386D1*
Y571121D1*
X1254388D1*
Y571389D1*
G37*
G36*
X1174882Y571642D2*
X1158639D1*
Y571374D1*
X1174882D1*
Y571642D1*
G37*
G36*
X1254388D2*
X1224148D1*
Y571359D1*
X1254388D1*
Y571642D1*
G37*
G36*
X1175894Y571895D2*
X1158639D1*
Y571627D1*
X1175894D1*
Y571895D1*
G37*
G36*
X1254388D2*
X1223895D1*
Y571612D1*
X1254388D1*
Y571895D1*
G37*
G36*
X1176637Y572148D2*
X1158386D1*
Y571880D1*
X1176637D1*
Y572148D1*
G37*
G36*
X1254388D2*
X1223389D1*
Y571865D1*
X1254388D1*
Y572148D1*
G37*
G36*
X1177396Y572386D2*
X1158386D1*
Y572133D1*
X1177396D1*
Y572386D1*
G37*
G36*
X1254388D2*
X1223136D1*
Y572118D1*
X1254388D1*
Y572386D1*
G37*
G36*
X1177887Y572638D2*
X1158386D1*
Y572371D1*
X1177887D1*
Y572638D1*
G37*
G36*
X1254388D2*
X1222883D1*
Y572371D1*
X1254388D1*
Y572638D1*
G37*
G36*
X1178884Y572891D2*
X1158386D1*
Y572624D1*
X1178884D1*
Y572891D1*
G37*
G36*
X1254388D2*
X1222392D1*
Y572609D1*
X1254388D1*
Y572891D1*
G37*
G36*
X1179389Y573144D2*
X1158386D1*
Y572876D1*
X1179389D1*
Y573144D1*
G37*
G36*
X1254388D2*
X1222139D1*
Y572862D1*
X1254388D1*
Y573144D1*
G37*
G36*
X1180386Y573382D2*
X1158386D1*
Y573129D1*
X1180386D1*
Y573382D1*
G37*
G36*
X1254388D2*
X1221887D1*
Y573114D1*
X1254388D1*
Y573382D1*
G37*
G36*
X1181144Y573635D2*
X1158386D1*
Y573367D1*
X1181144D1*
Y573635D1*
G37*
G36*
X1254388D2*
X1221649D1*
Y573367D1*
X1254388D1*
Y573635D1*
G37*
G36*
X1181888Y573888D2*
X1158386D1*
Y573620D1*
X1181888D1*
Y573888D1*
G37*
G36*
X1254388D2*
X1221143D1*
Y573620D1*
X1254388D1*
Y573888D1*
G37*
G36*
X1182647Y574141D2*
X1158386D1*
Y573873D1*
X1182647D1*
Y574141D1*
G37*
G36*
X1254388D2*
X1220890D1*
Y573858D1*
X1254388D1*
Y574141D1*
G37*
G36*
X1183391Y574394D2*
X1158386D1*
Y574126D1*
X1183391D1*
Y574394D1*
G37*
G36*
X1254388D2*
X1220637D1*
Y574111D1*
X1254388D1*
Y574394D1*
G37*
G36*
X1184134Y574647D2*
X1158386D1*
Y574364D1*
X1184134D1*
Y574647D1*
G37*
G36*
X1254388D2*
X1220384D1*
Y574364D1*
X1254388D1*
Y574647D1*
G37*
G36*
X1184893Y574885D2*
X1158639D1*
Y574617D1*
X1184893D1*
Y574885D1*
G37*
G36*
X1254388D2*
X1220146D1*
Y574617D1*
X1254388D1*
Y574885D1*
G37*
G36*
X1185637Y575137D2*
X1158639D1*
Y574870D1*
X1185637D1*
Y575137D1*
G37*
G36*
X1254388D2*
X1219893D1*
Y574855D1*
X1254388D1*
Y575137D1*
G37*
G36*
X1186395Y575390D2*
X1158639D1*
Y575123D1*
X1186395D1*
Y575390D1*
G37*
G36*
X1254388D2*
X1219640D1*
Y575108D1*
X1254388D1*
Y575390D1*
G37*
G36*
X1187139Y575643D2*
X1158639D1*
Y575361D1*
X1187139D1*
Y575643D1*
G37*
G36*
X1254388D2*
X1219388D1*
Y575361D1*
X1254388D1*
Y575643D1*
G37*
G36*
X1187883Y575896D2*
X1158639D1*
Y575613D1*
X1187883D1*
Y575896D1*
G37*
G36*
X1254388D2*
X1219135D1*
Y575613D1*
X1254388D1*
Y575896D1*
G37*
G36*
X1188641Y576134D2*
X1158892D1*
Y575866D1*
X1188641D1*
Y576134D1*
G37*
G36*
X1254388D2*
X1218897D1*
Y575866D1*
X1254388D1*
Y576134D1*
G37*
G36*
X1189385Y576387D2*
X1158892D1*
Y576119D1*
X1189385D1*
Y576387D1*
G37*
G36*
X1254388D2*
X1218644D1*
Y576119D1*
X1254388D1*
Y576387D1*
G37*
G36*
X1190144Y576640D2*
X1158892D1*
Y576357D1*
X1190144D1*
Y576640D1*
G37*
G36*
X1254388D2*
X1218391D1*
Y576357D1*
X1254388D1*
Y576640D1*
G37*
G36*
X1190887Y576893D2*
X1159145D1*
Y576610D1*
X1190887D1*
Y576893D1*
G37*
G36*
X1254388D2*
X1218138D1*
Y576610D1*
X1254388D1*
Y576893D1*
G37*
G36*
X1191646Y577146D2*
X1159145D1*
Y576863D1*
X1191646D1*
Y577146D1*
G37*
G36*
X1254388D2*
X1217885D1*
Y576863D1*
X1254388D1*
Y577146D1*
G37*
G36*
X1192390Y577384D2*
X1159145D1*
Y577116D1*
X1192390D1*
Y577384D1*
G37*
G36*
X1254388D2*
X1217647D1*
Y577116D1*
X1254388D1*
Y577384D1*
G37*
G36*
X1193148Y577636D2*
X1159383D1*
Y577369D1*
X1193148D1*
Y577636D1*
G37*
G36*
X1254388D2*
X1217394D1*
Y577354D1*
X1254388D1*
Y577636D1*
G37*
G36*
X1193639Y577889D2*
X1159383D1*
Y577607D1*
X1193639D1*
Y577889D1*
G37*
G36*
X1254388D2*
X1217394D1*
Y577607D1*
X1254388D1*
Y577889D1*
G37*
G36*
X1194383Y578142D2*
X1159383D1*
Y577860D1*
X1194383D1*
Y578142D1*
G37*
G36*
X1254388D2*
X1217142D1*
Y577860D1*
X1254388D1*
Y578142D1*
G37*
G36*
X1194889Y578395D2*
X1159636D1*
Y578112D1*
X1194889D1*
Y578395D1*
G37*
G36*
X1254388D2*
X1216889D1*
Y578112D1*
X1254388D1*
Y578395D1*
G37*
G36*
X1195395Y578648D2*
X1159636D1*
Y578365D1*
X1195395D1*
Y578648D1*
G37*
G36*
X1254388D2*
X1216636D1*
Y578365D1*
X1254388D1*
Y578648D1*
G37*
G36*
X1195885Y578886D2*
X1159636D1*
Y578618D1*
X1195885D1*
Y578886D1*
G37*
G36*
X1254388D2*
X1216383D1*
Y578618D1*
X1254388D1*
Y578886D1*
G37*
G36*
X1196391Y579139D2*
X1159888D1*
Y578856D1*
X1196391D1*
Y579139D1*
G37*
G36*
X1254388D2*
X1216383D1*
Y578856D1*
X1254388D1*
Y579139D1*
G37*
G36*
X1196897Y579392D2*
X1159888D1*
Y579109D1*
X1196897D1*
Y579392D1*
G37*
G36*
X1254388D2*
X1216145D1*
Y579109D1*
X1254388D1*
Y579392D1*
G37*
G36*
X1197388Y579645D2*
X1159888D1*
Y579362D1*
X1197388D1*
Y579645D1*
G37*
G36*
X1254388D2*
X1215892D1*
Y579362D1*
X1254388D1*
Y579645D1*
G37*
G36*
X1197894Y579883D2*
X1160141D1*
Y579615D1*
X1197894D1*
Y579883D1*
G37*
G36*
X1254388D2*
X1215639D1*
Y579615D1*
X1254388D1*
Y579883D1*
G37*
G36*
X1198384Y580135D2*
X1160141D1*
Y579853D1*
X1198384D1*
Y580135D1*
G37*
G36*
X1254388D2*
X1215639D1*
Y579853D1*
X1254388D1*
Y580135D1*
G37*
G36*
X1198890Y580388D2*
X1160141D1*
Y580106D1*
X1198890D1*
Y580388D1*
G37*
G36*
X1254388D2*
X1215386D1*
Y580106D1*
X1254388D1*
Y580388D1*
G37*
G36*
X1199143Y580641D2*
X1160394D1*
Y580359D1*
X1199143D1*
Y580641D1*
G37*
G36*
X1254388D2*
X1215148D1*
Y580359D1*
X1254388D1*
Y580641D1*
G37*
G36*
X1199649Y580894D2*
X1160394D1*
Y580611D1*
X1199649D1*
Y580894D1*
G37*
G36*
X1254388D2*
X1215148D1*
Y580611D1*
X1254388D1*
Y580894D1*
G37*
G36*
X1199887Y581147D2*
X1160394D1*
Y580864D1*
X1199887D1*
Y581147D1*
G37*
G36*
X1254388D2*
X1214895D1*
Y580864D1*
X1254388D1*
Y581147D1*
G37*
G36*
X1200392Y581385D2*
X1160394D1*
Y581102D1*
X1200392D1*
Y581385D1*
G37*
G36*
X1254388D2*
X1214643D1*
Y581102D1*
X1254388D1*
Y581385D1*
G37*
G36*
X1200645Y581638D2*
X1160647D1*
Y581355D1*
X1200645D1*
Y581638D1*
G37*
G36*
X1254388D2*
X1214643D1*
Y581355D1*
X1254388D1*
Y581638D1*
G37*
G36*
X1200883Y581891D2*
X1160647D1*
Y581608D1*
X1200883D1*
Y581891D1*
G37*
G36*
X1254388D2*
X1214390D1*
Y581608D1*
X1254388D1*
Y581891D1*
G37*
G36*
X1201389Y582144D2*
X1160885D1*
Y581861D1*
X1201389D1*
Y582144D1*
G37*
G36*
X1254388D2*
X1214390D1*
Y581861D1*
X1254388D1*
Y582144D1*
G37*
G36*
X1201642Y582396D2*
X1160885D1*
Y582114D1*
X1201642D1*
Y582396D1*
G37*
G36*
X1254388D2*
X1214137D1*
Y582114D1*
X1254388D1*
Y582396D1*
G37*
G36*
X1202148Y582634D2*
X1160885D1*
Y582352D1*
X1202148D1*
Y582634D1*
G37*
G36*
X1254388D2*
X1213884D1*
Y582352D1*
X1254388D1*
Y582634D1*
G37*
G36*
X1202386Y582887D2*
X1160885D1*
Y582605D1*
X1202386D1*
Y582887D1*
G37*
G36*
X1254388D2*
X1213884D1*
Y582605D1*
X1254388D1*
Y582887D1*
G37*
G36*
X1202639Y583140D2*
X1161138D1*
Y582858D1*
X1202639D1*
Y583140D1*
G37*
G36*
X1254388D2*
X1213646D1*
Y582858D1*
X1254388D1*
Y583140D1*
G37*
G36*
X1202891Y583393D2*
X1161138D1*
Y583110D1*
X1202891D1*
Y583393D1*
G37*
G36*
X1254388D2*
X1213646D1*
Y583110D1*
X1254388D1*
Y583393D1*
G37*
G36*
X1203144Y583646D2*
X1161391D1*
Y583363D1*
X1203144D1*
Y583646D1*
G37*
G36*
X1254388D2*
X1213393D1*
Y583363D1*
X1254388D1*
Y583646D1*
G37*
G36*
X1203382Y583884D2*
X1161391D1*
Y583601D1*
X1203382D1*
Y583884D1*
G37*
G36*
X1254388D2*
X1213393D1*
Y583601D1*
X1254388D1*
Y583884D1*
G37*
G36*
X1203888Y584137D2*
X1161391D1*
Y583854D1*
X1203888D1*
Y584137D1*
G37*
G36*
X1254388D2*
X1213140D1*
Y583854D1*
X1254388D1*
Y584137D1*
G37*
G36*
X1204141Y584390D2*
X1161391D1*
Y584107D1*
X1204141D1*
Y584390D1*
G37*
G36*
X1254388D2*
X1213140D1*
Y584107D1*
X1254388D1*
Y584390D1*
G37*
G36*
X1204394Y584643D2*
X1161644D1*
Y584360D1*
X1204394D1*
Y584643D1*
G37*
G36*
X1254388D2*
X1212887D1*
Y584360D1*
X1254388D1*
Y584643D1*
G37*
G36*
X1204647Y584895D2*
X1161644D1*
Y584613D1*
X1204647D1*
Y584895D1*
G37*
G36*
X1254388D2*
X1212887D1*
Y584613D1*
X1254388D1*
Y584895D1*
G37*
G36*
X1204647Y585148D2*
X1161897D1*
Y584851D1*
X1204647D1*
Y585148D1*
G37*
G36*
X1254388D2*
X1212887D1*
Y584851D1*
X1254388D1*
Y585148D1*
G37*
G36*
X1205138Y585386D2*
X1161897D1*
Y585104D1*
X1205138D1*
Y585386D1*
G37*
G36*
X1254388D2*
X1212634D1*
Y585104D1*
X1254388D1*
Y585386D1*
G37*
G36*
X1205138Y585639D2*
X1161897D1*
Y585357D1*
X1205138D1*
Y585639D1*
G37*
G36*
X1254388D2*
X1212634D1*
Y585357D1*
X1254388D1*
Y585639D1*
G37*
G36*
X1205390Y585892D2*
X1161897D1*
Y585609D1*
X1205390D1*
Y585892D1*
G37*
G36*
X1254388D2*
X1212396D1*
Y585609D1*
X1254388D1*
Y585892D1*
G37*
G36*
X1205643Y586145D2*
X1162135D1*
Y585847D1*
X1205643D1*
Y586145D1*
G37*
G36*
X1254388D2*
X1212396D1*
Y585862D1*
X1254388D1*
Y586145D1*
G37*
G36*
X1205896Y586383D2*
X1162135D1*
Y586100D1*
X1205896D1*
Y586383D1*
G37*
G36*
X1254388D2*
X1212396D1*
Y586115D1*
X1254388D1*
Y586383D1*
G37*
G36*
X1206134Y586636D2*
X1162135D1*
Y586353D1*
X1206134D1*
Y586636D1*
G37*
G36*
X1254388D2*
X1212396D1*
Y586353D1*
X1254388D1*
Y586636D1*
G37*
G36*
X1206387Y586889D2*
X1162387D1*
Y586606D1*
X1206387D1*
Y586889D1*
G37*
G36*
X1254388D2*
X1212144D1*
Y586606D1*
X1254388D1*
Y586889D1*
G37*
G36*
X1206387Y587141D2*
X1162387D1*
Y586859D1*
X1206387D1*
Y587141D1*
G37*
G36*
X1254388D2*
X1212144D1*
Y586859D1*
X1254388D1*
Y587141D1*
G37*
G36*
X1206640Y587394D2*
X1162387D1*
Y587112D1*
X1206640D1*
Y587394D1*
G37*
G36*
X1254388D2*
X1211891D1*
Y587112D1*
X1254388D1*
Y587394D1*
G37*
G36*
X1206893Y587647D2*
X1162640D1*
Y587350D1*
X1206893D1*
Y587647D1*
G37*
G36*
X1254388D2*
X1211891D1*
Y587350D1*
X1254388D1*
Y587647D1*
G37*
G36*
X1207146Y587885D2*
X1162640D1*
Y587603D1*
X1207146D1*
Y587885D1*
G37*
G36*
X1254388D2*
X1211891D1*
Y587603D1*
X1254388D1*
Y587885D1*
G37*
G36*
X1207146Y588138D2*
X1162640D1*
Y587855D1*
X1207146D1*
Y588138D1*
G37*
G36*
X1254388D2*
X1211891D1*
Y587855D1*
X1254388D1*
Y588138D1*
G37*
G36*
X1207384Y588391D2*
X1162893D1*
Y588108D1*
X1207384D1*
Y588391D1*
G37*
G36*
X1254388D2*
X1211891D1*
Y588108D1*
X1254388D1*
Y588391D1*
G37*
G36*
X1207637Y588644D2*
X1162893D1*
Y588346D1*
X1207637D1*
Y588644D1*
G37*
G36*
X1254388D2*
X1211638D1*
Y588361D1*
X1254388D1*
Y588644D1*
G37*
G36*
X1207637Y588897D2*
X1162893D1*
Y588599D1*
X1207637D1*
Y588897D1*
G37*
G36*
X1254388D2*
X1211638D1*
Y588614D1*
X1254388D1*
Y588897D1*
G37*
G36*
X1207889Y589135D2*
X1163146D1*
Y588852D1*
X1207889D1*
Y589135D1*
G37*
G36*
X1254135D2*
X1211638D1*
Y588852D1*
X1254135D1*
Y589135D1*
G37*
G36*
X1207889Y589388D2*
X1163146D1*
Y589105D1*
X1207889D1*
Y589388D1*
G37*
G36*
X1254135D2*
X1211638D1*
Y589105D1*
X1254135D1*
Y589388D1*
G37*
G36*
X1208142Y589640D2*
X1163146D1*
Y589358D1*
X1208142D1*
Y589640D1*
G37*
G36*
X1254135D2*
X1211385D1*
Y589358D1*
X1254135D1*
Y589640D1*
G37*
G36*
X1208395Y589893D2*
X1163384D1*
Y589611D1*
X1208395D1*
Y589893D1*
G37*
G36*
X1254135D2*
X1211385D1*
Y589611D1*
X1254135D1*
Y589893D1*
G37*
G36*
X1208395Y590146D2*
X1163384D1*
Y589849D1*
X1208395D1*
Y590146D1*
G37*
G36*
X1254135D2*
X1211385D1*
Y589849D1*
X1254135D1*
Y590146D1*
G37*
G36*
X1208648Y590384D2*
X1163384D1*
Y590102D1*
X1208648D1*
Y590384D1*
G37*
G36*
X1254135D2*
X1211385D1*
Y590102D1*
X1254135D1*
Y590384D1*
G37*
G36*
X1208648Y590637D2*
X1163637D1*
Y590354D1*
X1208648D1*
Y590637D1*
G37*
G36*
X1254135D2*
X1211385D1*
Y590354D1*
X1254135D1*
Y590637D1*
G37*
G36*
X1208886Y590890D2*
X1163637D1*
Y590607D1*
X1208886D1*
Y590890D1*
G37*
G36*
X1254135D2*
X1211385D1*
Y590607D1*
X1254135D1*
Y590890D1*
G37*
G36*
X1208886Y591143D2*
X1163637D1*
Y590860D1*
X1208886D1*
Y591143D1*
G37*
G36*
X1254135D2*
X1211385D1*
Y590860D1*
X1254135D1*
Y591143D1*
G37*
G36*
X1209139Y591396D2*
X1163890D1*
Y591098D1*
X1209139D1*
Y591396D1*
G37*
G36*
X1254135D2*
X1211385D1*
Y591113D1*
X1254135D1*
Y591396D1*
G37*
G36*
X1209139Y591649D2*
X1163890D1*
Y591351D1*
X1209139D1*
Y591649D1*
G37*
G36*
X1254135D2*
X1211385D1*
Y591351D1*
X1254135D1*
Y591649D1*
G37*
G36*
X1209139Y591887D2*
X1163890D1*
Y591604D1*
X1209139D1*
Y591887D1*
G37*
G36*
X1253882D2*
X1211147D1*
Y591604D1*
X1253882D1*
Y591887D1*
G37*
G36*
X1209392Y592139D2*
X1164143D1*
Y591857D1*
X1209392D1*
Y592139D1*
G37*
G36*
X1253882D2*
X1211147D1*
Y591857D1*
X1253882D1*
Y592139D1*
G37*
G36*
X1209392Y592392D2*
X1164143D1*
Y592110D1*
X1209392D1*
Y592392D1*
G37*
G36*
X1253882D2*
X1211147D1*
Y592110D1*
X1253882D1*
Y592392D1*
G37*
G36*
X1209645Y592645D2*
X1164143D1*
Y592348D1*
X1209645D1*
Y592645D1*
G37*
G36*
X1253882D2*
X1211147D1*
Y592363D1*
X1253882D1*
Y592645D1*
G37*
G36*
X1209645Y592883D2*
X1164395D1*
Y592601D1*
X1209645D1*
Y592883D1*
G37*
G36*
X1253882D2*
X1211147D1*
Y592601D1*
X1253882D1*
Y592883D1*
G37*
G36*
X1209645Y593136D2*
X1164395D1*
Y592853D1*
X1209645D1*
Y593136D1*
G37*
G36*
X1253882D2*
X1211147D1*
Y592853D1*
X1253882D1*
Y593136D1*
G37*
G36*
X1209883Y593389D2*
X1164395D1*
Y593106D1*
X1209883D1*
Y593389D1*
G37*
G36*
X1253882D2*
X1211147D1*
Y593106D1*
X1253882D1*
Y593389D1*
G37*
G36*
X1209883Y593642D2*
X1164648D1*
Y593359D1*
X1209883D1*
Y593642D1*
G37*
G36*
X1253882D2*
X1211147D1*
Y593359D1*
X1253882D1*
Y593642D1*
G37*
G36*
X1209883Y593895D2*
X1164648D1*
Y593612D1*
X1209883D1*
Y593895D1*
G37*
G36*
X1253644D2*
X1211147D1*
Y593612D1*
X1253644D1*
Y593895D1*
G37*
G36*
X1210135Y594148D2*
X1164648D1*
Y593850D1*
X1210135D1*
Y594148D1*
G37*
G36*
X1253644D2*
X1211147D1*
Y593850D1*
X1253644D1*
Y594148D1*
G37*
G36*
X1210135Y594386D2*
X1164886D1*
Y594103D1*
X1210135D1*
Y594386D1*
G37*
G36*
X1253644D2*
X1211147D1*
Y594103D1*
X1253644D1*
Y594386D1*
G37*
G36*
X1210135Y594638D2*
X1164886D1*
Y594356D1*
X1210135D1*
Y594638D1*
G37*
G36*
X1253644D2*
X1211147D1*
Y594356D1*
X1253644D1*
Y594638D1*
G37*
G36*
X1210135Y594891D2*
X1164886D1*
Y594609D1*
X1210135D1*
Y594891D1*
G37*
G36*
X1253644D2*
X1211147D1*
Y594609D1*
X1253644D1*
Y594891D1*
G37*
G36*
X1210388Y595144D2*
X1165139D1*
Y594847D1*
X1210388D1*
Y595144D1*
G37*
G36*
X1253391D2*
X1211147D1*
Y594862D1*
X1253391D1*
Y595144D1*
G37*
G36*
X1210388Y595382D2*
X1165139D1*
Y595100D1*
X1210388D1*
Y595382D1*
G37*
G36*
X1253391D2*
X1211147D1*
Y595114D1*
X1253391D1*
Y595382D1*
G37*
G36*
X1210388Y595635D2*
X1165139D1*
Y595352D1*
X1210388D1*
Y595635D1*
G37*
G36*
X1253391D2*
X1211385D1*
Y595352D1*
X1253391D1*
Y595635D1*
G37*
G36*
X1210641Y595888D2*
X1165392D1*
Y595605D1*
X1210641D1*
Y595888D1*
G37*
G36*
X1253391D2*
X1211385D1*
Y595605D1*
X1253391D1*
Y595888D1*
G37*
G36*
X1210641Y596141D2*
X1165392D1*
Y595858D1*
X1210641D1*
Y596141D1*
G37*
G36*
X1253391D2*
X1211385D1*
Y595858D1*
X1253391D1*
Y596141D1*
G37*
G36*
X1210641Y596394D2*
X1165392D1*
Y596111D1*
X1210641D1*
Y596394D1*
G37*
G36*
X1253139D2*
X1211385D1*
Y596111D1*
X1253139D1*
Y596394D1*
G37*
G36*
X1210641Y596647D2*
X1165645D1*
Y596349D1*
X1210641D1*
Y596647D1*
G37*
G36*
X1253139D2*
X1211385D1*
Y596349D1*
X1253139D1*
Y596647D1*
G37*
G36*
X1210894Y596885D2*
X1165645D1*
Y596602D1*
X1210894D1*
Y596885D1*
G37*
G36*
X1253139D2*
X1211385D1*
Y596602D1*
X1253139D1*
Y596885D1*
G37*
G36*
X1210894Y597137D2*
X1165645D1*
Y596855D1*
X1210894D1*
Y597137D1*
G37*
G36*
X1252886D2*
X1211385D1*
Y596855D1*
X1252886D1*
Y597137D1*
G37*
G36*
X1210894Y597390D2*
X1165883D1*
Y597108D1*
X1210894D1*
Y597390D1*
G37*
G36*
X1252886D2*
X1211385D1*
Y597108D1*
X1252886D1*
Y597390D1*
G37*
G36*
X1211147Y597643D2*
X1165883D1*
Y597361D1*
X1211147D1*
Y597643D1*
G37*
G36*
X1252886D2*
X1211385D1*
Y597361D1*
X1252886D1*
Y597643D1*
G37*
G36*
X1211147Y597896D2*
X1165883D1*
Y597599D1*
X1211147D1*
Y597896D1*
G37*
G36*
X1252886D2*
X1211385D1*
Y597613D1*
X1252886D1*
Y597896D1*
G37*
G36*
X1252648Y598134D2*
X1166136D1*
Y597822D1*
X1252648D1*
Y598134D1*
G37*
G36*
Y598387D2*
X1166136D1*
Y598075D1*
X1252648D1*
Y598387D1*
G37*
G36*
Y598640D2*
X1166136D1*
Y598327D1*
X1252648D1*
Y598640D1*
G37*
G36*
X1252395Y598893D2*
X1166389D1*
Y598565D1*
X1252395D1*
Y598893D1*
G37*
G36*
Y599146D2*
X1166389D1*
Y598818D1*
X1252395D1*
Y599146D1*
G37*
G36*
Y599384D2*
X1166389D1*
Y599071D1*
X1252395D1*
Y599384D1*
G37*
G36*
X1252142Y599636D2*
X1166642D1*
Y599324D1*
X1252142D1*
Y599636D1*
G37*
G36*
Y599889D2*
X1166642D1*
Y599577D1*
X1252142D1*
Y599889D1*
G37*
G36*
X1226885Y600142D2*
X1166642D1*
Y599845D1*
X1226885D1*
Y600142D1*
G37*
G36*
X1251889D2*
X1228387D1*
Y599874D1*
X1251889D1*
Y600142D1*
G37*
G36*
X1226141Y600395D2*
X1166894D1*
Y600098D1*
X1226141D1*
Y600395D1*
G37*
G36*
X1251889D2*
X1228893D1*
Y600127D1*
X1251889D1*
Y600395D1*
G37*
G36*
X1225635Y600648D2*
X1166894D1*
Y600336D1*
X1225635D1*
Y600648D1*
G37*
G36*
X1251889D2*
X1229145D1*
Y600365D1*
X1251889D1*
Y600648D1*
G37*
G36*
X1225397Y600886D2*
X1166894D1*
Y600588D1*
X1225397D1*
Y600886D1*
G37*
G36*
X1251636D2*
X1229383D1*
Y600618D1*
X1251636D1*
Y600886D1*
G37*
G36*
X1224891Y601139D2*
X1166894D1*
Y600841D1*
X1224891D1*
Y601139D1*
G37*
G36*
X1251636D2*
X1229383D1*
Y600871D1*
X1251636D1*
Y601139D1*
G37*
G36*
X1224638Y601392D2*
X1167147D1*
Y601094D1*
X1224638D1*
Y601392D1*
G37*
G36*
X1251383D2*
X1229636D1*
Y601124D1*
X1251383D1*
Y601392D1*
G37*
G36*
X1224386Y601645D2*
X1167147D1*
Y601347D1*
X1224386D1*
Y601645D1*
G37*
G36*
X1251383D2*
X1229636D1*
Y601377D1*
X1251383D1*
Y601645D1*
G37*
G36*
X1224148Y601883D2*
X1167385D1*
Y601600D1*
X1224148D1*
Y601883D1*
G37*
G36*
X1251145D2*
X1229636D1*
Y601630D1*
X1251145D1*
Y601883D1*
G37*
G36*
X1223895Y602135D2*
X1167385D1*
Y601838D1*
X1223895D1*
Y602135D1*
G37*
G36*
X1251145D2*
X1229889D1*
Y601868D1*
X1251145D1*
Y602135D1*
G37*
G36*
X1223642Y602388D2*
X1167385D1*
Y602091D1*
X1223642D1*
Y602388D1*
G37*
G36*
X1250892D2*
X1229889D1*
Y602121D1*
X1250892D1*
Y602388D1*
G37*
G36*
X1223389Y602641D2*
X1167385D1*
Y602344D1*
X1223389D1*
Y602641D1*
G37*
G36*
X1250892D2*
X1229889D1*
Y602373D1*
X1250892D1*
Y602641D1*
G37*
G36*
X1223136Y602894D2*
X1167638D1*
Y602597D1*
X1223136D1*
Y602894D1*
G37*
G36*
X1250640D2*
X1229889D1*
Y602626D1*
X1250640D1*
Y602894D1*
G37*
G36*
X1222883Y603147D2*
X1167638D1*
Y602849D1*
X1222883D1*
Y603147D1*
G37*
G36*
X1250640D2*
X1229889D1*
Y602879D1*
X1250640D1*
Y603147D1*
G37*
G36*
X1222645Y603385D2*
X1167891D1*
Y603102D1*
X1222645D1*
Y603385D1*
G37*
G36*
X1250387D2*
X1229889D1*
Y603132D1*
X1250387D1*
Y603385D1*
G37*
G36*
X1222392Y603638D2*
X1167891D1*
Y603340D1*
X1222392D1*
Y603638D1*
G37*
G36*
X1250387D2*
X1229889D1*
Y603370D1*
X1250387D1*
Y603638D1*
G37*
G36*
X1222392Y603891D2*
X1167891D1*
Y603593D1*
X1222392D1*
Y603891D1*
G37*
G36*
X1250149D2*
X1229889D1*
Y603623D1*
X1250149D1*
Y603891D1*
G37*
G36*
X1222139Y604144D2*
X1168144D1*
Y603846D1*
X1222139D1*
Y604144D1*
G37*
G36*
X1249896D2*
X1229889D1*
Y603876D1*
X1249896D1*
Y604144D1*
G37*
G36*
X1221887Y604396D2*
X1168144D1*
Y604099D1*
X1221887D1*
Y604396D1*
G37*
G36*
X1249896D2*
X1229889D1*
Y604129D1*
X1249896D1*
Y604396D1*
G37*
G36*
X1221649Y604634D2*
X1168397D1*
Y604352D1*
X1221649D1*
Y604634D1*
G37*
G36*
X1249643D2*
X1229889D1*
Y604367D1*
X1249643D1*
Y604634D1*
G37*
G36*
X1196391Y604887D2*
X1168397D1*
Y604620D1*
X1196391D1*
Y604887D1*
G37*
G36*
X1221649D2*
X1197894D1*
Y604620D1*
X1221649D1*
Y604887D1*
G37*
G36*
X1249643D2*
X1229889D1*
Y604620D1*
X1249643D1*
Y604887D1*
G37*
G36*
X1195885Y605140D2*
X1168635D1*
Y604872D1*
X1195885D1*
Y605140D1*
G37*
G36*
X1221396D2*
X1198890D1*
Y604872D1*
X1221396D1*
Y605140D1*
G37*
G36*
X1249390D2*
X1229889D1*
Y604872D1*
X1249390D1*
Y605140D1*
G37*
G36*
X1195395Y605393D2*
X1168635D1*
Y605125D1*
X1195395D1*
Y605393D1*
G37*
G36*
X1221143D2*
X1199649D1*
Y605125D1*
X1221143D1*
Y605393D1*
G37*
G36*
X1249137D2*
X1229636D1*
Y605125D1*
X1249137D1*
Y605393D1*
G37*
G36*
X1195395Y605646D2*
X1168888D1*
Y605363D1*
X1195395D1*
Y605646D1*
G37*
G36*
X1221143D2*
X1200140D1*
Y605378D1*
X1221143D1*
Y605646D1*
G37*
G36*
X1248884D2*
X1229636D1*
Y605378D1*
X1248884D1*
Y605646D1*
G37*
G36*
X1195142Y605884D2*
X1168888D1*
Y605616D1*
X1195142D1*
Y605884D1*
G37*
G36*
X1220890D2*
X1200645D1*
Y605631D1*
X1220890D1*
Y605884D1*
G37*
G36*
X1248884D2*
X1229636D1*
Y605631D1*
X1248884D1*
Y605884D1*
G37*
G36*
X1194889Y606137D2*
X1168888D1*
Y605869D1*
X1194889D1*
Y606137D1*
G37*
G36*
X1220637D2*
X1201136D1*
Y605869D1*
X1220637D1*
Y606137D1*
G37*
G36*
X1248646D2*
X1229636D1*
Y605869D1*
X1248646D1*
Y606137D1*
G37*
G36*
X1194889Y606390D2*
X1169141D1*
Y606122D1*
X1194889D1*
Y606390D1*
G37*
G36*
X1220637D2*
X1201642D1*
Y606122D1*
X1220637D1*
Y606390D1*
G37*
G36*
X1248393D2*
X1229636D1*
Y606122D1*
X1248393D1*
Y606390D1*
G37*
G36*
X1194889Y606643D2*
X1169141D1*
Y606375D1*
X1194889D1*
Y606643D1*
G37*
G36*
X1220384D2*
X1201895D1*
Y606375D1*
X1220384D1*
Y606643D1*
G37*
G36*
X1248141D2*
X1229383D1*
Y606375D1*
X1248141D1*
Y606643D1*
G37*
G36*
X1194889Y606895D2*
X1169393D1*
Y606628D1*
X1194889D1*
Y606895D1*
G37*
G36*
X1220384D2*
X1202386D1*
Y606628D1*
X1220384D1*
Y606895D1*
G37*
G36*
X1247888D2*
X1229383D1*
Y606628D1*
X1247888D1*
Y606895D1*
G37*
G36*
X1194889Y607148D2*
X1169646D1*
Y606866D1*
X1194889D1*
Y607148D1*
G37*
G36*
X1220146D2*
X1202639D1*
Y606881D1*
X1220146D1*
Y607148D1*
G37*
G36*
X1247888D2*
X1229383D1*
Y606881D1*
X1247888D1*
Y607148D1*
G37*
G36*
X1194889Y607386D2*
X1169646D1*
Y607119D1*
X1194889D1*
Y607386D1*
G37*
G36*
X1220146D2*
X1203144D1*
Y607133D1*
X1220146D1*
Y607386D1*
G37*
G36*
X1247635D2*
X1229383D1*
Y607133D1*
X1247635D1*
Y607386D1*
G37*
G36*
X1194889Y607639D2*
X1169884D1*
Y607371D1*
X1194889D1*
Y607639D1*
G37*
G36*
X1219893D2*
X1203397D1*
Y607371D1*
X1219893D1*
Y607639D1*
G37*
G36*
X1247397D2*
X1229145D1*
Y607371D1*
X1247397D1*
Y607639D1*
G37*
G36*
X1194889Y607892D2*
X1169884D1*
Y607624D1*
X1194889D1*
Y607892D1*
G37*
G36*
X1219893D2*
X1203635D1*
Y607624D1*
X1219893D1*
Y607892D1*
G37*
G36*
X1247144D2*
X1229145D1*
Y607624D1*
X1247144D1*
Y607892D1*
G37*
G36*
X1194889Y608145D2*
X1170137D1*
Y607862D1*
X1194889D1*
Y608145D1*
G37*
G36*
X1219640D2*
X1204141D1*
Y607877D1*
X1219640D1*
Y608145D1*
G37*
G36*
X1246891D2*
X1229145D1*
Y607877D1*
X1246891D1*
Y608145D1*
G37*
G36*
X1194889Y608383D2*
X1170137D1*
Y608115D1*
X1194889D1*
Y608383D1*
G37*
G36*
X1219640D2*
X1204394D1*
Y608130D1*
X1219640D1*
Y608383D1*
G37*
G36*
X1246638D2*
X1228893D1*
Y608130D1*
X1246638D1*
Y608383D1*
G37*
G36*
X1195142Y608636D2*
X1170390D1*
Y608368D1*
X1195142D1*
Y608636D1*
G37*
G36*
X1219388D2*
X1204647D1*
Y608383D1*
X1219388D1*
Y608636D1*
G37*
G36*
X1246385D2*
X1228893D1*
Y608368D1*
X1246385D1*
Y608636D1*
G37*
G36*
X1195142Y608889D2*
X1170643D1*
Y608621D1*
X1195142D1*
Y608889D1*
G37*
G36*
X1219388D2*
X1204885D1*
Y608636D1*
X1219388D1*
Y608889D1*
G37*
G36*
X1246147D2*
X1228893D1*
Y608621D1*
X1246147D1*
Y608889D1*
G37*
G36*
X1195142Y609142D2*
X1170643D1*
Y608874D1*
X1195142D1*
Y609142D1*
G37*
G36*
X1219135D2*
X1205138D1*
Y608874D1*
X1219135D1*
Y609142D1*
G37*
G36*
X1245642D2*
X1228640D1*
Y608874D1*
X1245642D1*
Y609142D1*
G37*
G36*
X1195395Y609394D2*
X1170896D1*
Y609127D1*
X1195395D1*
Y609394D1*
G37*
G36*
X1219135D2*
X1205390D1*
Y609127D1*
X1219135D1*
Y609394D1*
G37*
G36*
X1245389D2*
X1228640D1*
Y609127D1*
X1245389D1*
Y609394D1*
G37*
G36*
X1195395Y609647D2*
X1170896D1*
Y609365D1*
X1195395D1*
Y609647D1*
G37*
G36*
X1218897D2*
X1205896D1*
Y609380D1*
X1218897D1*
Y609647D1*
G37*
G36*
X1245136D2*
X1228640D1*
Y609380D1*
X1245136D1*
Y609647D1*
G37*
G36*
X1195395Y609885D2*
X1171149D1*
Y609618D1*
X1195395D1*
Y609885D1*
G37*
G36*
X1218897D2*
X1205896D1*
Y609632D1*
X1218897D1*
Y609885D1*
G37*
G36*
X1244883D2*
X1228387D1*
Y609632D1*
X1244883D1*
Y609885D1*
G37*
G36*
X1195647Y610138D2*
X1171387D1*
Y609870D1*
X1195647D1*
Y610138D1*
G37*
G36*
X1218644D2*
X1206387D1*
Y609885D1*
X1218644D1*
Y610138D1*
G37*
G36*
X1244392D2*
X1228387D1*
Y609870D1*
X1244392D1*
Y610138D1*
G37*
G36*
X1195647Y610391D2*
X1171387D1*
Y610123D1*
X1195647D1*
Y610391D1*
G37*
G36*
X1218644D2*
X1206387D1*
Y610138D1*
X1218644D1*
Y610391D1*
G37*
G36*
X1244139D2*
X1228149D1*
Y610123D1*
X1244139D1*
Y610391D1*
G37*
G36*
X1195885Y610644D2*
X1171640D1*
Y610376D1*
X1195885D1*
Y610644D1*
G37*
G36*
X1218644D2*
X1206640D1*
Y610376D1*
X1218644D1*
Y610644D1*
G37*
G36*
X1243648D2*
X1228149D1*
Y610376D1*
X1243648D1*
Y610644D1*
G37*
G36*
X1254641D2*
X1248393D1*
Y610391D1*
X1254641D1*
Y610644D1*
G37*
G36*
X1195885Y610882D2*
X1171892D1*
Y610629D1*
X1195885D1*
Y610882D1*
G37*
G36*
X1218391D2*
X1206893D1*
Y610629D1*
X1218391D1*
Y610882D1*
G37*
G36*
X1243396D2*
X1227896D1*
Y610629D1*
X1243396D1*
Y610882D1*
G37*
G36*
X1256143D2*
X1246891D1*
Y610629D1*
X1256143D1*
Y610882D1*
G37*
G36*
X1196138Y611135D2*
X1171892D1*
Y610867D1*
X1196138D1*
Y611135D1*
G37*
G36*
X1218391D2*
X1207146D1*
Y610882D1*
X1218391D1*
Y611135D1*
G37*
G36*
X1243143D2*
X1227896D1*
Y610882D1*
X1243143D1*
Y611135D1*
G37*
G36*
X1257393D2*
X1245895D1*
Y610882D1*
X1257393D1*
Y611135D1*
G37*
G36*
X1196391Y611388D2*
X1172145D1*
Y611120D1*
X1196391D1*
Y611388D1*
G37*
G36*
X1218391D2*
X1207384D1*
Y611135D1*
X1218391D1*
Y611388D1*
G37*
G36*
X1242637D2*
X1227643D1*
Y611135D1*
X1242637D1*
Y611388D1*
G37*
G36*
X1258389D2*
X1245136D1*
Y611135D1*
X1258389D1*
Y611388D1*
G37*
G36*
X1196391Y611641D2*
X1172383D1*
Y611373D1*
X1196391D1*
Y611641D1*
G37*
G36*
X1218138D2*
X1207637D1*
Y611388D1*
X1218138D1*
Y611641D1*
G37*
G36*
X1242384D2*
X1227643D1*
Y611373D1*
X1242384D1*
Y611641D1*
G37*
G36*
X1259148D2*
X1244392D1*
Y611373D1*
X1259148D1*
Y611641D1*
G37*
G36*
X1196644Y611893D2*
X1172636D1*
Y611626D1*
X1196644D1*
Y611893D1*
G37*
G36*
X1218138D2*
X1207889D1*
Y611641D1*
X1218138D1*
Y611893D1*
G37*
G36*
X1241893D2*
X1227390D1*
Y611626D1*
X1241893D1*
Y611893D1*
G37*
G36*
X1259892D2*
X1243648D1*
Y611626D1*
X1259892D1*
Y611893D1*
G37*
G36*
X1196644Y612146D2*
X1172889D1*
Y611864D1*
X1196644D1*
Y612146D1*
G37*
G36*
X1218138D2*
X1207889D1*
Y611879D1*
X1218138D1*
Y612146D1*
G37*
G36*
X1241640D2*
X1227390D1*
Y611879D1*
X1241640D1*
Y612146D1*
G37*
G36*
X1260635D2*
X1242890D1*
Y611879D1*
X1260635D1*
Y612146D1*
G37*
G36*
X1196897Y612384D2*
X1172889D1*
Y612117D1*
X1196897D1*
Y612384D1*
G37*
G36*
X1218138D2*
X1208142D1*
Y612131D1*
X1218138D1*
Y612384D1*
G37*
G36*
X1241135D2*
X1227137D1*
Y612131D1*
X1241135D1*
Y612384D1*
G37*
G36*
X1261141D2*
X1242146D1*
Y612131D1*
X1261141D1*
Y612384D1*
G37*
G36*
X1197135Y612637D2*
X1173142D1*
Y612369D1*
X1197135D1*
Y612637D1*
G37*
G36*
X1217885D2*
X1208395D1*
Y612384D1*
X1217885D1*
Y612637D1*
G37*
G36*
X1240644D2*
X1227137D1*
Y612384D1*
X1240644D1*
Y612637D1*
G37*
G36*
X1261885D2*
X1241640D1*
Y612369D1*
X1261885D1*
Y612637D1*
G37*
G36*
X1197135Y612890D2*
X1173395D1*
Y612622D1*
X1197135D1*
Y612890D1*
G37*
G36*
X1217885D2*
X1208648D1*
Y612637D1*
X1217885D1*
Y612890D1*
G37*
G36*
X1240391D2*
X1226885D1*
Y612637D1*
X1240391D1*
Y612890D1*
G37*
G36*
X1262391D2*
X1241135D1*
Y612622D1*
X1262391D1*
Y612890D1*
G37*
G36*
X1197388Y613143D2*
X1173648D1*
Y612875D1*
X1197388D1*
Y613143D1*
G37*
G36*
X1217885D2*
X1208648D1*
Y612875D1*
X1217885D1*
Y613143D1*
G37*
G36*
X1262896D2*
X1226647D1*
Y612860D1*
X1262896D1*
Y613143D1*
G37*
G36*
X1197641Y613396D2*
X1173886D1*
Y613128D1*
X1197641D1*
Y613396D1*
G37*
G36*
X1217885D2*
X1208886D1*
Y613128D1*
X1217885D1*
Y613396D1*
G37*
G36*
X1263387D2*
X1226647D1*
Y613113D1*
X1263387D1*
Y613396D1*
G37*
G36*
X1197894Y613649D2*
X1174138D1*
Y613366D1*
X1197894D1*
Y613649D1*
G37*
G36*
X1217647D2*
X1209139D1*
Y613381D1*
X1217647D1*
Y613649D1*
G37*
G36*
X1264146D2*
X1226394D1*
Y613366D1*
X1264146D1*
Y613649D1*
G37*
G36*
X1197894Y613887D2*
X1174391D1*
Y613619D1*
X1197894D1*
Y613887D1*
G37*
G36*
X1217647D2*
X1209139D1*
Y613634D1*
X1217647D1*
Y613887D1*
G37*
G36*
X1264384D2*
X1226394D1*
Y613604D1*
X1264384D1*
Y613887D1*
G37*
G36*
X1198146Y614140D2*
X1174644D1*
Y613872D1*
X1198146D1*
Y614140D1*
G37*
G36*
X1217647D2*
X1209392D1*
Y613887D1*
X1217647D1*
Y614140D1*
G37*
G36*
X1264890D2*
X1226141D1*
Y613857D1*
X1264890D1*
Y614140D1*
G37*
G36*
X1198384Y614392D2*
X1174897D1*
Y614125D1*
X1198384D1*
Y614392D1*
G37*
G36*
X1217647D2*
X1209645D1*
Y614140D1*
X1217647D1*
Y614392D1*
G37*
G36*
X1265395D2*
X1225888D1*
Y614110D1*
X1265395D1*
Y614392D1*
G37*
G36*
X1198637Y614645D2*
X1175135D1*
Y614378D1*
X1198637D1*
Y614645D1*
G37*
G36*
X1217647D2*
X1209645D1*
Y614378D1*
X1217647D1*
Y614645D1*
G37*
G36*
X1265886D2*
X1225888D1*
Y614363D1*
X1265886D1*
Y614645D1*
G37*
G36*
X1198890Y614883D2*
X1175388D1*
Y614615D1*
X1198890D1*
Y614883D1*
G37*
G36*
X1217647D2*
X1209883D1*
Y614630D1*
X1217647D1*
Y614883D1*
G37*
G36*
X1266392D2*
X1225635D1*
Y614615D1*
X1266392D1*
Y614883D1*
G37*
G36*
X1199143Y615136D2*
X1175641D1*
Y614868D1*
X1199143D1*
Y615136D1*
G37*
G36*
X1217647D2*
X1209883D1*
Y614883D1*
X1217647D1*
Y615136D1*
G37*
G36*
X1266645D2*
X1225397D1*
Y614853D1*
X1266645D1*
Y615136D1*
G37*
G36*
X1199396Y615389D2*
X1175894D1*
Y615121D1*
X1199396D1*
Y615389D1*
G37*
G36*
X1217647D2*
X1210135D1*
Y615136D1*
X1217647D1*
Y615389D1*
G37*
G36*
X1267136D2*
X1225144D1*
Y615106D1*
X1267136D1*
Y615389D1*
G37*
G36*
X1199649Y615642D2*
X1176147D1*
Y615374D1*
X1199649D1*
Y615642D1*
G37*
G36*
X1217647D2*
X1210135D1*
Y615389D1*
X1217647D1*
Y615642D1*
G37*
G36*
X1267389D2*
X1225144D1*
Y615359D1*
X1267389D1*
Y615642D1*
G37*
G36*
X1199887Y615895D2*
X1176385D1*
Y615627D1*
X1199887D1*
Y615895D1*
G37*
G36*
X1217647D2*
X1210388D1*
Y615642D1*
X1217647D1*
Y615895D1*
G37*
G36*
X1267894D2*
X1224891D1*
Y615612D1*
X1267894D1*
Y615895D1*
G37*
G36*
X1199887Y616148D2*
X1176637D1*
Y615865D1*
X1199887D1*
Y616148D1*
G37*
G36*
X1217647D2*
X1210388D1*
Y615880D1*
X1217647D1*
Y616148D1*
G37*
G36*
X1268147D2*
X1224638D1*
Y615850D1*
X1268147D1*
Y616148D1*
G37*
G36*
X1200392Y616386D2*
X1177143D1*
Y616118D1*
X1200392D1*
Y616386D1*
G37*
G36*
X1217647D2*
X1210641D1*
Y616133D1*
X1217647D1*
Y616386D1*
G37*
G36*
X1268638D2*
X1224386D1*
Y616103D1*
X1268638D1*
Y616386D1*
G37*
G36*
X1200392Y616638D2*
X1177396D1*
Y616371D1*
X1200392D1*
Y616638D1*
G37*
G36*
X1217647D2*
X1210641D1*
Y616386D1*
X1217647D1*
Y616638D1*
G37*
G36*
X1268891D2*
X1224148D1*
Y616356D1*
X1268891D1*
Y616638D1*
G37*
G36*
X1200883Y616891D2*
X1177649D1*
Y616624D1*
X1200883D1*
Y616891D1*
G37*
G36*
X1217647D2*
X1210641D1*
Y616638D1*
X1217647D1*
Y616891D1*
G37*
G36*
X1269397D2*
X1223895D1*
Y616609D1*
X1269397D1*
Y616891D1*
G37*
G36*
X1201136Y617144D2*
X1178140D1*
Y616876D1*
X1201136D1*
Y617144D1*
G37*
G36*
X1217647D2*
X1210641D1*
Y616876D1*
X1217647D1*
Y617144D1*
G37*
G36*
X1269635D2*
X1223642D1*
Y616847D1*
X1269635D1*
Y617144D1*
G37*
G36*
X1201389Y617382D2*
X1178393D1*
Y617129D1*
X1201389D1*
Y617382D1*
G37*
G36*
X1217647D2*
X1210894D1*
Y617129D1*
X1217647D1*
Y617382D1*
G37*
G36*
X1270140D2*
X1223389D1*
Y617100D1*
X1270140D1*
Y617382D1*
G37*
G36*
X1201642Y617635D2*
X1178884D1*
Y617367D1*
X1201642D1*
Y617635D1*
G37*
G36*
X1217885D2*
X1210894D1*
Y617382D1*
X1217885D1*
Y617635D1*
G37*
G36*
X1270393D2*
X1223136D1*
Y617352D1*
X1270393D1*
Y617635D1*
G37*
G36*
X1201895Y617888D2*
X1179136D1*
Y617620D1*
X1201895D1*
Y617888D1*
G37*
G36*
X1217885D2*
X1210894D1*
Y617635D1*
X1217885D1*
Y617888D1*
G37*
G36*
X1270646D2*
X1222883D1*
Y617605D1*
X1270646D1*
Y617888D1*
G37*
G36*
X1202386Y618141D2*
X1179642D1*
Y617873D1*
X1202386D1*
Y618141D1*
G37*
G36*
X1218138D2*
X1210894D1*
Y617888D1*
X1218138D1*
Y618141D1*
G37*
G36*
X1271137D2*
X1222645D1*
Y617843D1*
X1271137D1*
Y618141D1*
G37*
G36*
X1202639Y618394D2*
X1180148D1*
Y618126D1*
X1202639D1*
Y618394D1*
G37*
G36*
X1218138D2*
X1210894D1*
Y618141D1*
X1218138D1*
Y618394D1*
G37*
G36*
X1271390D2*
X1222139D1*
Y618096D1*
X1271390D1*
Y618394D1*
G37*
G36*
X1202891Y618647D2*
X1180639D1*
Y618379D1*
X1202891D1*
Y618647D1*
G37*
G36*
X1218391D2*
X1211147D1*
Y618379D1*
X1218391D1*
Y618647D1*
G37*
G36*
X1271643D2*
X1221887D1*
Y618349D1*
X1271643D1*
Y618647D1*
G37*
G36*
X1203382Y618885D2*
X1181144D1*
Y618617D1*
X1203382D1*
Y618885D1*
G37*
G36*
X1218644D2*
X1210894D1*
Y618632D1*
X1218644D1*
Y618885D1*
G37*
G36*
X1272149D2*
X1221396D1*
Y618602D1*
X1272149D1*
Y618885D1*
G37*
G36*
X1203635Y619137D2*
X1181635D1*
Y618870D1*
X1203635D1*
Y619137D1*
G37*
G36*
X1219135D2*
X1210894D1*
Y618885D1*
X1219135D1*
Y619137D1*
G37*
G36*
X1272387D2*
X1220637D1*
Y618855D1*
X1272387D1*
Y619137D1*
G37*
G36*
X1204141Y619390D2*
X1182394D1*
Y619123D1*
X1204141D1*
Y619390D1*
G37*
G36*
X1272639D2*
X1210894D1*
Y619093D1*
X1272639D1*
Y619390D1*
G37*
G36*
X1204647Y619643D2*
X1182885D1*
Y619375D1*
X1204647D1*
Y619643D1*
G37*
G36*
X1273145D2*
X1210894D1*
Y619346D1*
X1273145D1*
Y619643D1*
G37*
G36*
X1204885Y619896D2*
X1183896D1*
Y619628D1*
X1204885D1*
Y619896D1*
G37*
G36*
X1273383D2*
X1210641D1*
Y619599D1*
X1273383D1*
Y619896D1*
G37*
G36*
X1205643Y620134D2*
X1184640D1*
Y619866D1*
X1205643D1*
Y620134D1*
G37*
G36*
X1273889D2*
X1210641D1*
Y619837D1*
X1273889D1*
Y620134D1*
G37*
G36*
X1205896Y620387D2*
X1185384D1*
Y620119D1*
X1205896D1*
Y620387D1*
G37*
G36*
X1274142D2*
X1210388D1*
Y620089D1*
X1274142D1*
Y620387D1*
G37*
G36*
X1206640Y620640D2*
X1186395D1*
Y620372D1*
X1206640D1*
Y620640D1*
G37*
G36*
X1274648D2*
X1210135D1*
Y620342D1*
X1274648D1*
Y620640D1*
G37*
G36*
X1207637Y620893D2*
X1187139D1*
Y620625D1*
X1207637D1*
Y620893D1*
G37*
G36*
X1274886D2*
X1209645D1*
Y620595D1*
X1274886D1*
Y620893D1*
G37*
G36*
X1275138Y621146D2*
X1188136D1*
Y620818D1*
X1275138D1*
Y621146D1*
G37*
G36*
X1275644Y621384D2*
X1180148D1*
Y621071D1*
X1275644D1*
Y621384D1*
G37*
G36*
X1275897Y621636D2*
X1178646D1*
Y621309D1*
X1275897D1*
Y621636D1*
G37*
G36*
X1276135Y621889D2*
X1177649D1*
Y621562D1*
X1276135D1*
Y621889D1*
G37*
G36*
X1276641Y622142D2*
X1176890D1*
Y621815D1*
X1276641D1*
Y622142D1*
G37*
G36*
X1276894Y622395D2*
X1176147D1*
Y622068D1*
X1276894D1*
Y622395D1*
G37*
G36*
X1277146Y622648D2*
X1175388D1*
Y622306D1*
X1277146D1*
Y622648D1*
G37*
G36*
X1277637Y622886D2*
X1174897D1*
Y622559D1*
X1277637D1*
Y622886D1*
G37*
G36*
X1277890Y623139D2*
X1174391D1*
Y622812D1*
X1277890D1*
Y623139D1*
G37*
G36*
X1278396Y623392D2*
X1173648D1*
Y623064D1*
X1278396D1*
Y623392D1*
G37*
G36*
X1278649Y623645D2*
X1173395D1*
Y623302D1*
X1278649D1*
Y623645D1*
G37*
G36*
X1228640Y623883D2*
X1172636D1*
Y623600D1*
X1228640D1*
Y623883D1*
G37*
G36*
X1279140D2*
X1231897D1*
Y623600D1*
X1279140D1*
Y623883D1*
G37*
G36*
X1226885Y624135D2*
X1172383D1*
Y623853D1*
X1226885D1*
Y624135D1*
G37*
G36*
X1279393D2*
X1233891D1*
Y623853D1*
X1279393D1*
Y624135D1*
G37*
G36*
X1225635Y624388D2*
X1171892D1*
Y624106D1*
X1225635D1*
Y624388D1*
G37*
G36*
X1279645D2*
X1235393D1*
Y624106D1*
X1279645D1*
Y624388D1*
G37*
G36*
X1225144Y624641D2*
X1171387D1*
Y624344D1*
X1225144D1*
Y624641D1*
G37*
G36*
X1280136D2*
X1236137D1*
Y624359D1*
X1280136D1*
Y624641D1*
G37*
G36*
X1224386Y624894D2*
X1171149D1*
Y624597D1*
X1224386D1*
Y624894D1*
G37*
G36*
X1280389D2*
X1237148D1*
Y624611D1*
X1280389D1*
Y624894D1*
G37*
G36*
X1224148Y625147D2*
X1170643D1*
Y624849D1*
X1224148D1*
Y625147D1*
G37*
G36*
X1280642D2*
X1237892D1*
Y624849D1*
X1280642D1*
Y625147D1*
G37*
G36*
X1223642Y625385D2*
X1170390D1*
Y625102D1*
X1223642D1*
Y625385D1*
G37*
G36*
X1281148D2*
X1238636D1*
Y625102D1*
X1281148D1*
Y625385D1*
G37*
G36*
X1223389Y625638D2*
X1169884D1*
Y625340D1*
X1223389D1*
Y625638D1*
G37*
G36*
X1281386D2*
X1239394D1*
Y625355D1*
X1281386D1*
Y625638D1*
G37*
G36*
X1223136Y625891D2*
X1169646D1*
Y625593D1*
X1223136D1*
Y625891D1*
G37*
G36*
X1281639D2*
X1239885D1*
Y625608D1*
X1281639D1*
Y625891D1*
G37*
G36*
X1223136Y626144D2*
X1169141D1*
Y625846D1*
X1223136D1*
Y626144D1*
G37*
G36*
X1282144D2*
X1240391D1*
Y625861D1*
X1282144D1*
Y626144D1*
G37*
G36*
X1222883Y626396D2*
X1168888D1*
Y626099D1*
X1222883D1*
Y626396D1*
G37*
G36*
X1282382D2*
X1240897D1*
Y626114D1*
X1282382D1*
Y626396D1*
G37*
G36*
X1222883Y626634D2*
X1168635D1*
Y626352D1*
X1222883D1*
Y626634D1*
G37*
G36*
X1282888D2*
X1241135D1*
Y626352D1*
X1282888D1*
Y626634D1*
G37*
G36*
X1222883Y626887D2*
X1168397D1*
Y626605D1*
X1222883D1*
Y626887D1*
G37*
G36*
X1283141D2*
X1241640D1*
Y626605D1*
X1283141D1*
Y626887D1*
G37*
G36*
X1222883Y627140D2*
X1167891D1*
Y626843D1*
X1222883D1*
Y627140D1*
G37*
G36*
X1283647D2*
X1241893D1*
Y626858D1*
X1283647D1*
Y627140D1*
G37*
G36*
X1222883Y627393D2*
X1167638D1*
Y627096D1*
X1222883D1*
Y627393D1*
G37*
G36*
X1283885D2*
X1242384D1*
Y627110D1*
X1283885D1*
Y627393D1*
G37*
G36*
X1204394Y627646D2*
X1167385D1*
Y627363D1*
X1204394D1*
Y627646D1*
G37*
G36*
X1222883D2*
X1206893D1*
Y627378D1*
X1222883D1*
Y627646D1*
G37*
G36*
X1284138D2*
X1242637D1*
Y627363D1*
X1284138D1*
Y627646D1*
G37*
G36*
X1203144Y627884D2*
X1167147D1*
Y627616D1*
X1203144D1*
Y627884D1*
G37*
G36*
X1223136D2*
X1207637D1*
Y627631D1*
X1223136D1*
Y627884D1*
G37*
G36*
X1284643D2*
X1242890D1*
Y627601D1*
X1284643D1*
Y627884D1*
G37*
G36*
X1201895Y628137D2*
X1166894D1*
Y627854D1*
X1201895D1*
Y628137D1*
G37*
G36*
X1223136D2*
X1208395D1*
Y627884D1*
X1223136D1*
Y628137D1*
G37*
G36*
X1284896D2*
X1243143D1*
Y627854D1*
X1284896D1*
Y628137D1*
G37*
G36*
X1201136Y628390D2*
X1166642D1*
Y628107D1*
X1201136D1*
Y628390D1*
G37*
G36*
X1223389D2*
X1208648D1*
Y628137D1*
X1223389D1*
Y628390D1*
G37*
G36*
X1285387D2*
X1243143D1*
Y628107D1*
X1285387D1*
Y628390D1*
G37*
G36*
X1200392Y628643D2*
X1166389D1*
Y628360D1*
X1200392D1*
Y628643D1*
G37*
G36*
X1223389D2*
X1208886D1*
Y628375D1*
X1223389D1*
Y628643D1*
G37*
G36*
X1285640D2*
X1243396D1*
Y628360D1*
X1285640D1*
Y628643D1*
G37*
G36*
X1199887Y628895D2*
X1166136D1*
Y628613D1*
X1199887D1*
Y628895D1*
G37*
G36*
X1223642D2*
X1208886D1*
Y628628D1*
X1223642D1*
Y628895D1*
G37*
G36*
X1285893D2*
X1243648D1*
Y628613D1*
X1285893D1*
Y628895D1*
G37*
G36*
X1199143Y629148D2*
X1165883D1*
Y628866D1*
X1199143D1*
Y629148D1*
G37*
G36*
X1223895D2*
X1209139D1*
Y628881D1*
X1223895D1*
Y629148D1*
G37*
G36*
X1286384D2*
X1243648D1*
Y628851D1*
X1286384D1*
Y629148D1*
G37*
G36*
X1198637Y629386D2*
X1165392D1*
Y629119D1*
X1198637D1*
Y629386D1*
G37*
G36*
X1224148D2*
X1209139D1*
Y629133D1*
X1224148D1*
Y629386D1*
G37*
G36*
X1286637D2*
X1243648D1*
Y629104D1*
X1286637D1*
Y629386D1*
G37*
G36*
X1198146Y629639D2*
X1165392D1*
Y629357D1*
X1198146D1*
Y629639D1*
G37*
G36*
X1224386D2*
X1209139D1*
Y629371D1*
X1224386D1*
Y629639D1*
G37*
G36*
X1286889D2*
X1243886D1*
Y629357D1*
X1286889D1*
Y629639D1*
G37*
G36*
X1197641Y629892D2*
X1165139D1*
Y629609D1*
X1197641D1*
Y629892D1*
G37*
G36*
X1224891D2*
X1209139D1*
Y629624D1*
X1224891D1*
Y629892D1*
G37*
G36*
X1287395D2*
X1243886D1*
Y629609D1*
X1287395D1*
Y629892D1*
G37*
G36*
X1197135Y630145D2*
X1164886D1*
Y629862D1*
X1197135D1*
Y630145D1*
G37*
G36*
X1225144D2*
X1209139D1*
Y629877D1*
X1225144D1*
Y630145D1*
G37*
G36*
X1287648D2*
X1243886D1*
Y629847D1*
X1287648D1*
Y630145D1*
G37*
G36*
X1196644Y630383D2*
X1164648D1*
Y630115D1*
X1196644D1*
Y630383D1*
G37*
G36*
X1225635D2*
X1209139D1*
Y630130D1*
X1225635D1*
Y630383D1*
G37*
G36*
X1288139D2*
X1243648D1*
Y630100D1*
X1288139D1*
Y630383D1*
G37*
G36*
X1196391Y630636D2*
X1164395D1*
Y630368D1*
X1196391D1*
Y630636D1*
G37*
G36*
X1226141D2*
X1209139D1*
Y630383D1*
X1226141D1*
Y630636D1*
G37*
G36*
X1288392D2*
X1243648D1*
Y630353D1*
X1288392D1*
Y630636D1*
G37*
G36*
X1195885Y630889D2*
X1164143D1*
Y630621D1*
X1195885D1*
Y630889D1*
G37*
G36*
X1226394D2*
X1209139D1*
Y630621D1*
X1226394D1*
Y630889D1*
G37*
G36*
X1288645D2*
X1243396D1*
Y630606D1*
X1288645D1*
Y630889D1*
G37*
G36*
X1195395Y631142D2*
X1163890D1*
Y630859D1*
X1195395D1*
Y631142D1*
G37*
G36*
X1227137D2*
X1208886D1*
Y630874D1*
X1227137D1*
Y631142D1*
G37*
G36*
X1289136D2*
X1243143D1*
Y630859D1*
X1289136D1*
Y631142D1*
G37*
G36*
X1195142Y631394D2*
X1163637D1*
Y631112D1*
X1195142D1*
Y631394D1*
G37*
G36*
X1227643D2*
X1208886D1*
Y631127D1*
X1227643D1*
Y631394D1*
G37*
G36*
X1289388D2*
X1242890D1*
Y631097D1*
X1289388D1*
Y631394D1*
G37*
G36*
X1194636Y631647D2*
X1163384D1*
Y631365D1*
X1194636D1*
Y631647D1*
G37*
G36*
X1228387D2*
X1208648D1*
Y631380D1*
X1228387D1*
Y631647D1*
G37*
G36*
X1289641D2*
X1242637D1*
Y631350D1*
X1289641D1*
Y631647D1*
G37*
G36*
X1194383Y631885D2*
X1163146D1*
Y631618D1*
X1194383D1*
Y631885D1*
G37*
G36*
X1228893D2*
X1208648D1*
Y631632D1*
X1228893D1*
Y631885D1*
G37*
G36*
X1290147D2*
X1242384D1*
Y631603D1*
X1290147D1*
Y631885D1*
G37*
G36*
X1193892Y632138D2*
X1163146D1*
Y631870D1*
X1193892D1*
Y632138D1*
G37*
G36*
X1229889D2*
X1208395D1*
Y631870D1*
X1229889D1*
Y632138D1*
G37*
G36*
X1290385D2*
X1241640D1*
Y631856D1*
X1290385D1*
Y632138D1*
G37*
G36*
X1193639Y632391D2*
X1162893D1*
Y632123D1*
X1193639D1*
Y632391D1*
G37*
G36*
X1230886D2*
X1208142D1*
Y632123D1*
X1230886D1*
Y632391D1*
G37*
G36*
X1290638D2*
X1241135D1*
Y632108D1*
X1290638D1*
Y632391D1*
G37*
G36*
X1193386Y632644D2*
X1162640D1*
Y632361D1*
X1193386D1*
Y632644D1*
G37*
G36*
X1232135D2*
X1207889D1*
Y632376D1*
X1232135D1*
Y632644D1*
G37*
G36*
X1291144D2*
X1240138D1*
Y632346D1*
X1291144D1*
Y632644D1*
G37*
G36*
X1193148Y632882D2*
X1162387D1*
Y632614D1*
X1193148D1*
Y632882D1*
G37*
G36*
X1216889D2*
X1207889D1*
Y632629D1*
X1216889D1*
Y632882D1*
G37*
G36*
X1233891D2*
X1217142D1*
Y632629D1*
X1233891D1*
Y632882D1*
G37*
G36*
X1291397D2*
X1238888D1*
Y632599D1*
X1291397D1*
Y632882D1*
G37*
G36*
X1192896Y633135D2*
X1162387D1*
Y632867D1*
X1192896D1*
Y633135D1*
G37*
G36*
X1216145D2*
X1207637D1*
Y632882D1*
X1216145D1*
Y633135D1*
G37*
G36*
X1291635D2*
X1218138D1*
Y632837D1*
X1291635D1*
Y633135D1*
G37*
G36*
X1192643Y633388D2*
X1162135D1*
Y633120D1*
X1192643D1*
Y633388D1*
G37*
G36*
X1215639D2*
X1207384D1*
Y633135D1*
X1215639D1*
Y633388D1*
G37*
G36*
X1291887D2*
X1218391D1*
Y633075D1*
X1291887D1*
Y633388D1*
G37*
G36*
X1192137Y633641D2*
X1161897D1*
Y633358D1*
X1192137D1*
Y633641D1*
G37*
G36*
X1215386D2*
X1207146D1*
Y633388D1*
X1215386D1*
Y633641D1*
G37*
G36*
X1292140D2*
X1218897D1*
Y633328D1*
X1292140D1*
Y633641D1*
G37*
G36*
X1192137Y633893D2*
X1161644D1*
Y633611D1*
X1192137D1*
Y633893D1*
G37*
G36*
X1215148D2*
X1206893D1*
Y633641D1*
X1215148D1*
Y633893D1*
G37*
G36*
X1292393D2*
X1218897D1*
Y633581D1*
X1292393D1*
Y633893D1*
G37*
G36*
X1191646Y634146D2*
X1161644D1*
Y633864D1*
X1191646D1*
Y634146D1*
G37*
G36*
X1215148D2*
X1206640D1*
Y633879D1*
X1215148D1*
Y634146D1*
G37*
G36*
X1292646D2*
X1219388D1*
Y633834D1*
X1292646D1*
Y634146D1*
G37*
G36*
X1191646Y634384D2*
X1161391D1*
Y634117D1*
X1191646D1*
Y634384D1*
G37*
G36*
X1214895D2*
X1206387D1*
Y634131D1*
X1214895D1*
Y634384D1*
G37*
G36*
X1292646D2*
X1219388D1*
Y634087D1*
X1292646D1*
Y634384D1*
G37*
G36*
X1191393Y634637D2*
X1161138D1*
Y634369D1*
X1191393D1*
Y634637D1*
G37*
G36*
X1214895D2*
X1206149D1*
Y634384D1*
X1214895D1*
Y634637D1*
G37*
G36*
X1292884D2*
X1219640D1*
Y634325D1*
X1292884D1*
Y634637D1*
G37*
G36*
X1191140Y634890D2*
X1160885D1*
Y634622D1*
X1191140D1*
Y634890D1*
G37*
G36*
X1214643D2*
X1205896D1*
Y634637D1*
X1214643D1*
Y634890D1*
G37*
G36*
X1292884D2*
X1219893D1*
Y634578D1*
X1292884D1*
Y634890D1*
G37*
G36*
X1190887Y635143D2*
X1160885D1*
Y634860D1*
X1190887D1*
Y635143D1*
G37*
G36*
X1214643D2*
X1205390D1*
Y634875D1*
X1214643D1*
Y635143D1*
G37*
G36*
X1293137D2*
X1220146D1*
Y634831D1*
X1293137D1*
Y635143D1*
G37*
G36*
X1190887Y635396D2*
X1160647D1*
Y635113D1*
X1190887D1*
Y635396D1*
G37*
G36*
X1214390D2*
X1205138D1*
Y635128D1*
X1214390D1*
Y635396D1*
G37*
G36*
X1293137D2*
X1220146D1*
Y635083D1*
X1293137D1*
Y635396D1*
G37*
G36*
X1190635Y635634D2*
X1160394D1*
Y635366D1*
X1190635D1*
Y635634D1*
G37*
G36*
X1214390D2*
X1204885D1*
Y635381D1*
X1214390D1*
Y635634D1*
G37*
G36*
X1293390D2*
X1220384D1*
Y635336D1*
X1293390D1*
Y635634D1*
G37*
G36*
X1190397Y635887D2*
X1160394D1*
Y635619D1*
X1190397D1*
Y635887D1*
G37*
G36*
X1214390D2*
X1204394D1*
Y635634D1*
X1214390D1*
Y635887D1*
G37*
G36*
X1293390D2*
X1220384D1*
Y635589D1*
X1293390D1*
Y635887D1*
G37*
G36*
X1190397Y636140D2*
X1160141D1*
Y635872D1*
X1190397D1*
Y636140D1*
G37*
G36*
X1214390D2*
X1204141D1*
Y635887D1*
X1214390D1*
Y636140D1*
G37*
G36*
X1293390D2*
X1220637D1*
Y635827D1*
X1293390D1*
Y636140D1*
G37*
G36*
X1190144Y636392D2*
X1159888D1*
Y636110D1*
X1190144D1*
Y636392D1*
G37*
G36*
X1214137D2*
X1203635D1*
Y636140D1*
X1214137D1*
Y636392D1*
G37*
G36*
X1293390D2*
X1220637D1*
Y636080D1*
X1293390D1*
Y636392D1*
G37*
G36*
X1190144Y636645D2*
X1159636D1*
Y636363D1*
X1190144D1*
Y636645D1*
G37*
G36*
X1214137D2*
X1203397D1*
Y636378D1*
X1214137D1*
Y636645D1*
G37*
G36*
X1293390D2*
X1220890D1*
Y636333D1*
X1293390D1*
Y636645D1*
G37*
G36*
X1190144Y636883D2*
X1159636D1*
Y636616D1*
X1190144D1*
Y636883D1*
G37*
G36*
X1214137D2*
X1202891D1*
Y636630D1*
X1214137D1*
Y636883D1*
G37*
G36*
X1293390D2*
X1220890D1*
Y636586D1*
X1293390D1*
Y636883D1*
G37*
G36*
X1189891Y637136D2*
X1159383D1*
Y636868D1*
X1189891D1*
Y637136D1*
G37*
G36*
X1214137D2*
X1202386D1*
Y636883D1*
X1214137D1*
Y637136D1*
G37*
G36*
X1293390D2*
X1221143D1*
Y636839D1*
X1293390D1*
Y637136D1*
G37*
G36*
X1189891Y637389D2*
X1159145D1*
Y637121D1*
X1189891D1*
Y637389D1*
G37*
G36*
X1213884D2*
X1201895D1*
Y637136D1*
X1213884D1*
Y637389D1*
G37*
G36*
X1293390D2*
X1221143D1*
Y637077D1*
X1293390D1*
Y637389D1*
G37*
G36*
X1189891Y637642D2*
X1158892D1*
Y637359D1*
X1189891D1*
Y637642D1*
G37*
G36*
X1213884D2*
X1201389D1*
Y637374D1*
X1213884D1*
Y637642D1*
G37*
G36*
X1293390D2*
X1221396D1*
Y637330D1*
X1293390D1*
Y637642D1*
G37*
G36*
X1189891Y637895D2*
X1158892D1*
Y637612D1*
X1189891D1*
Y637895D1*
G37*
G36*
X1213884D2*
X1201136D1*
Y637627D1*
X1213884D1*
Y637895D1*
G37*
G36*
X1293390D2*
X1221396D1*
Y637582D1*
X1293390D1*
Y637895D1*
G37*
G36*
X1189891Y638148D2*
X1158639D1*
Y637865D1*
X1189891D1*
Y638148D1*
G37*
G36*
X1213884D2*
X1200392D1*
Y637880D1*
X1213884D1*
Y638148D1*
G37*
G36*
X1293390D2*
X1221649D1*
Y637835D1*
X1293390D1*
Y638148D1*
G37*
G36*
X1190144Y638386D2*
X1158386D1*
Y638118D1*
X1190144D1*
Y638386D1*
G37*
G36*
X1213884D2*
X1199887D1*
Y638133D1*
X1213884D1*
Y638386D1*
G37*
G36*
X1293390D2*
X1221649D1*
Y638088D1*
X1293390D1*
Y638386D1*
G37*
G36*
X1190144Y638639D2*
X1158148D1*
Y638371D1*
X1190144D1*
Y638639D1*
G37*
G36*
X1213884D2*
X1199143D1*
Y638371D1*
X1213884D1*
Y638639D1*
G37*
G36*
X1293137D2*
X1221649D1*
Y638326D1*
X1293137D1*
Y638639D1*
G37*
G36*
X1190397Y638891D2*
X1158148D1*
Y638609D1*
X1190397D1*
Y638891D1*
G37*
G36*
X1213884D2*
X1198637D1*
Y638624D1*
X1213884D1*
Y638891D1*
G37*
G36*
X1293137D2*
X1221649D1*
Y638579D1*
X1293137D1*
Y638891D1*
G37*
G36*
X1190635Y639144D2*
X1157895D1*
Y638862D1*
X1190635D1*
Y639144D1*
G37*
G36*
X1213884D2*
X1197894D1*
Y638877D1*
X1213884D1*
Y639144D1*
G37*
G36*
X1293137D2*
X1221887D1*
Y638832D1*
X1293137D1*
Y639144D1*
G37*
G36*
X1190887Y639382D2*
X1157642D1*
Y639115D1*
X1190887D1*
Y639382D1*
G37*
G36*
X1213884D2*
X1197135D1*
Y639129D1*
X1213884D1*
Y639382D1*
G37*
G36*
X1292884D2*
X1221887D1*
Y639085D1*
X1292884D1*
Y639382D1*
G37*
G36*
X1191646Y639635D2*
X1157642D1*
Y639367D1*
X1191646D1*
Y639635D1*
G37*
G36*
X1213884D2*
X1195885D1*
Y639382D1*
X1213884D1*
Y639635D1*
G37*
G36*
X1292884D2*
X1222139D1*
Y639338D1*
X1292884D1*
Y639635D1*
G37*
G36*
X1192896Y639888D2*
X1157389D1*
Y639620D1*
X1192896D1*
Y639888D1*
G37*
G36*
X1213884D2*
X1194145D1*
Y639620D1*
X1213884D1*
Y639888D1*
G37*
G36*
X1292884D2*
X1222139D1*
Y639591D1*
X1292884D1*
Y639888D1*
G37*
G36*
X1213884Y640141D2*
X1157137D1*
Y639843D1*
X1213884D1*
Y640141D1*
G37*
G36*
X1292646D2*
X1222139D1*
Y639829D1*
X1292646D1*
Y640141D1*
G37*
G36*
X1213884Y640394D2*
X1156884D1*
Y640096D1*
X1213884D1*
Y640394D1*
G37*
G36*
X1292393D2*
X1222139D1*
Y640081D1*
X1292393D1*
Y640394D1*
G37*
G36*
X1213884Y640647D2*
X1156884D1*
Y640349D1*
X1213884D1*
Y640647D1*
G37*
G36*
X1292393D2*
X1222139D1*
Y640334D1*
X1292393D1*
Y640647D1*
G37*
G36*
X1213884Y640885D2*
X1156646D1*
Y640602D1*
X1213884D1*
Y640885D1*
G37*
G36*
X1292140D2*
X1222392D1*
Y640587D1*
X1292140D1*
Y640885D1*
G37*
G36*
X1213884Y641138D2*
X1156393D1*
Y640840D1*
X1213884D1*
Y641138D1*
G37*
G36*
X1291635D2*
X1222392D1*
Y640840D1*
X1291635D1*
Y641138D1*
G37*
G36*
X1213884Y641390D2*
X1156140D1*
Y641093D1*
X1213884D1*
Y641390D1*
G37*
G36*
X1291397D2*
X1222392D1*
Y641093D1*
X1291397D1*
Y641390D1*
G37*
G36*
X1213884Y641643D2*
X1156140D1*
Y641346D1*
X1213884D1*
Y641643D1*
G37*
G36*
X1290891D2*
X1222392D1*
Y641331D1*
X1290891D1*
Y641643D1*
G37*
G36*
X1213884Y641896D2*
X1155887D1*
Y641599D1*
X1213884D1*
Y641896D1*
G37*
G36*
X1290638D2*
X1222645D1*
Y641584D1*
X1290638D1*
Y641896D1*
G37*
G36*
X1213884Y642134D2*
X1155649D1*
Y641837D1*
X1213884D1*
Y642134D1*
G37*
G36*
X1290147D2*
X1222645D1*
Y641837D1*
X1290147D1*
Y642134D1*
G37*
G36*
X1213884Y642387D2*
X1155396D1*
Y642090D1*
X1213884D1*
Y642387D1*
G37*
G36*
X1289388D2*
X1222645D1*
Y642090D1*
X1289388D1*
Y642387D1*
G37*
G36*
X1213884Y642640D2*
X1155396D1*
Y642342D1*
X1213884D1*
Y642640D1*
G37*
G36*
X1288883D2*
X1222645D1*
Y642342D1*
X1288883D1*
Y642640D1*
G37*
G36*
X1213884Y642893D2*
X1155143D1*
Y642595D1*
X1213884D1*
Y642893D1*
G37*
G36*
X1288139D2*
X1222645D1*
Y642595D1*
X1288139D1*
Y642893D1*
G37*
G36*
X1213884Y643146D2*
X1154890D1*
Y642848D1*
X1213884D1*
Y643146D1*
G37*
G36*
X1287395D2*
X1222645D1*
Y642833D1*
X1287395D1*
Y643146D1*
G37*
G36*
X1213884Y643384D2*
X1154890D1*
Y643101D1*
X1213884D1*
Y643384D1*
G37*
G36*
X1286384D2*
X1222645D1*
Y643086D1*
X1286384D1*
Y643384D1*
G37*
G36*
X1214137Y643636D2*
X1154638D1*
Y643339D1*
X1214137D1*
Y643636D1*
G37*
G36*
X1285893D2*
X1222883D1*
Y643339D1*
X1285893D1*
Y643636D1*
G37*
G36*
X1214137Y643889D2*
X1154385D1*
Y643592D1*
X1214137D1*
Y643889D1*
G37*
G36*
X1284896D2*
X1222883D1*
Y643592D1*
X1284896D1*
Y643889D1*
G37*
G36*
X1214137Y644142D2*
X1154147D1*
Y643845D1*
X1214137D1*
Y644142D1*
G37*
G36*
X1284138D2*
X1222883D1*
Y643845D1*
X1284138D1*
Y644142D1*
G37*
G36*
X1214137Y644395D2*
X1154147D1*
Y644098D1*
X1214137D1*
Y644395D1*
G37*
G36*
X1283394D2*
X1222883D1*
Y644098D1*
X1283394D1*
Y644395D1*
G37*
G36*
X1214137Y644648D2*
X1153894D1*
Y644336D1*
X1214137D1*
Y644648D1*
G37*
G36*
X1282635D2*
X1222883D1*
Y644336D1*
X1282635D1*
Y644648D1*
G37*
G36*
X1214137Y644886D2*
X1153641D1*
Y644588D1*
X1214137D1*
Y644886D1*
G37*
G36*
X1281639D2*
X1222883D1*
Y644588D1*
X1281639D1*
Y644886D1*
G37*
G36*
X1214390Y645139D2*
X1153388D1*
Y644841D1*
X1214390D1*
Y645139D1*
G37*
G36*
X1281148D2*
X1222883D1*
Y644841D1*
X1281148D1*
Y645139D1*
G37*
G36*
X1214390Y645392D2*
X1153388D1*
Y645094D1*
X1214390D1*
Y645392D1*
G37*
G36*
X1235140D2*
X1222883D1*
Y645139D1*
X1235140D1*
Y645392D1*
G37*
G36*
X1280389D2*
X1235393D1*
Y645109D1*
X1280389D1*
Y645392D1*
G37*
G36*
X1214390Y645645D2*
X1153135D1*
Y645347D1*
X1214390D1*
Y645645D1*
G37*
G36*
X1235393D2*
X1222883D1*
Y645377D1*
X1235393D1*
Y645645D1*
G37*
G36*
X1279393D2*
X1235884D1*
Y645362D1*
X1279393D1*
Y645645D1*
G37*
G36*
X1214390Y645883D2*
X1152882D1*
Y645585D1*
X1214390D1*
Y645883D1*
G37*
G36*
X1235646D2*
X1222883D1*
Y645630D1*
X1235646D1*
Y645883D1*
G37*
G36*
X1278887D2*
X1236137D1*
Y645600D1*
X1278887D1*
Y645883D1*
G37*
G36*
X1214390Y646135D2*
X1152644D1*
Y645838D1*
X1214390D1*
Y646135D1*
G37*
G36*
X1235884D2*
X1222883D1*
Y645883D1*
X1235884D1*
Y646135D1*
G37*
G36*
X1277890D2*
X1236390D1*
Y645853D1*
X1277890D1*
Y646135D1*
G37*
G36*
X1214643Y646388D2*
X1152644D1*
Y646091D1*
X1214643D1*
Y646388D1*
G37*
G36*
X1235884D2*
X1222883D1*
Y646135D1*
X1235884D1*
Y646388D1*
G37*
G36*
X1277146D2*
X1236642D1*
Y646106D1*
X1277146D1*
Y646388D1*
G37*
G36*
X1214643Y646641D2*
X1152392D1*
Y646344D1*
X1214643D1*
Y646641D1*
G37*
G36*
X1236137D2*
X1222883D1*
Y646373D1*
X1236137D1*
Y646641D1*
G37*
G36*
X1276388D2*
X1237148D1*
Y646359D1*
X1276388D1*
Y646641D1*
G37*
G36*
X1214643Y646894D2*
X1152139D1*
Y646597D1*
X1214643D1*
Y646894D1*
G37*
G36*
X1236390D2*
X1222883D1*
Y646626D1*
X1236390D1*
Y646894D1*
G37*
G36*
X1275644D2*
X1237386D1*
Y646611D1*
X1275644D1*
Y646894D1*
G37*
G36*
X1214895Y647147D2*
X1151886D1*
Y646835D1*
X1214895D1*
Y647147D1*
G37*
G36*
X1236642D2*
X1222883D1*
Y646879D1*
X1236642D1*
Y647147D1*
G37*
G36*
X1274648D2*
X1237639D1*
Y646864D1*
X1274648D1*
Y647147D1*
G37*
G36*
X1214895Y647385D2*
X1151886D1*
Y647087D1*
X1214895D1*
Y647385D1*
G37*
G36*
X1236895D2*
X1222883D1*
Y647132D1*
X1236895D1*
Y647385D1*
G37*
G36*
X1274142D2*
X1237892D1*
Y647117D1*
X1274142D1*
Y647385D1*
G37*
G36*
X1214895Y647638D2*
X1151648D1*
Y647340D1*
X1214895D1*
Y647638D1*
G37*
G36*
X1236895D2*
X1222883D1*
Y647385D1*
X1236895D1*
Y647638D1*
G37*
G36*
X1273145D2*
X1238383D1*
Y647355D1*
X1273145D1*
Y647638D1*
G37*
G36*
X1214895Y647891D2*
X1151395D1*
Y647593D1*
X1214895D1*
Y647891D1*
G37*
G36*
X1237148D2*
X1222883D1*
Y647623D1*
X1237148D1*
Y647891D1*
G37*
G36*
X1272387D2*
X1238636D1*
Y647608D1*
X1272387D1*
Y647891D1*
G37*
G36*
X1215148Y648144D2*
X1151142D1*
Y647831D1*
X1215148D1*
Y648144D1*
G37*
G36*
X1237386D2*
X1222883D1*
Y647876D1*
X1237386D1*
Y648144D1*
G37*
G36*
X1271643D2*
X1238888D1*
Y647861D1*
X1271643D1*
Y648144D1*
G37*
G36*
X1215148Y648396D2*
X1151142D1*
Y648084D1*
X1215148D1*
Y648396D1*
G37*
G36*
X1237639D2*
X1222883D1*
Y648129D1*
X1237639D1*
Y648396D1*
G37*
G36*
X1270884D2*
X1239394D1*
Y648114D1*
X1270884D1*
Y648396D1*
G37*
G36*
X1215386Y648634D2*
X1150889D1*
Y648337D1*
X1215386D1*
Y648634D1*
G37*
G36*
X1237639D2*
X1222883D1*
Y648382D1*
X1237639D1*
Y648634D1*
G37*
G36*
X1270140D2*
X1239647D1*
Y648367D1*
X1270140D1*
Y648634D1*
G37*
G36*
X1215386Y648887D2*
X1150636D1*
Y648590D1*
X1215386D1*
Y648887D1*
G37*
G36*
X1237892D2*
X1222883D1*
Y648634D1*
X1237892D1*
Y648887D1*
G37*
G36*
X1269144D2*
X1240138D1*
Y648620D1*
X1269144D1*
Y648887D1*
G37*
G36*
X1215386Y649140D2*
X1150636D1*
Y648843D1*
X1215386D1*
Y649140D1*
G37*
G36*
X1238145D2*
X1222883D1*
Y648872D1*
X1238145D1*
Y649140D1*
G37*
G36*
X1268638D2*
X1240391D1*
Y648872D1*
X1268638D1*
Y649140D1*
G37*
G36*
X1215639Y649393D2*
X1150383D1*
Y649096D1*
X1215639D1*
Y649393D1*
G37*
G36*
X1238383D2*
X1222645D1*
Y649125D1*
X1238383D1*
Y649393D1*
G37*
G36*
X1267641D2*
X1240897D1*
Y649125D1*
X1267641D1*
Y649393D1*
G37*
G36*
X1215639Y649646D2*
X1150145D1*
Y649334D1*
X1215639D1*
Y649646D1*
G37*
G36*
X1238383D2*
X1222645D1*
Y649378D1*
X1238383D1*
Y649646D1*
G37*
G36*
X1266883D2*
X1241387D1*
Y649363D1*
X1266883D1*
Y649646D1*
G37*
G36*
X1215892Y649884D2*
X1149893D1*
Y649586D1*
X1215892D1*
Y649884D1*
G37*
G36*
X1238636D2*
X1222645D1*
Y649631D1*
X1238636D1*
Y649884D1*
G37*
G36*
X1266139D2*
X1241893D1*
Y649616D1*
X1266139D1*
Y649884D1*
G37*
G36*
X1215892Y650137D2*
X1149893D1*
Y649839D1*
X1215892D1*
Y650137D1*
G37*
G36*
X1238888D2*
X1222645D1*
Y649869D1*
X1238888D1*
Y650137D1*
G37*
G36*
X1265395D2*
X1242146D1*
Y649869D1*
X1265395D1*
Y650137D1*
G37*
G36*
X1202891Y650390D2*
X1149640D1*
Y650092D1*
X1202891D1*
Y650390D1*
G37*
G36*
X1216145D2*
X1203144D1*
Y650137D1*
X1216145D1*
Y650390D1*
G37*
G36*
X1238888D2*
X1222645D1*
Y650122D1*
X1238888D1*
Y650390D1*
G37*
G36*
X1264384D2*
X1242890D1*
Y650122D1*
X1264384D1*
Y650390D1*
G37*
G36*
X1202639Y650643D2*
X1149387D1*
Y650345D1*
X1202639D1*
Y650643D1*
G37*
G36*
X1216145D2*
X1202891D1*
Y650375D1*
X1216145D1*
Y650643D1*
G37*
G36*
X1239141D2*
X1222392D1*
Y650375D1*
X1239141D1*
Y650643D1*
G37*
G36*
X1263893D2*
X1243396D1*
Y650375D1*
X1263893D1*
Y650643D1*
G37*
G36*
X1202386Y650895D2*
X1149149D1*
Y650598D1*
X1202386D1*
Y650895D1*
G37*
G36*
X1216383D2*
X1202891D1*
Y650628D1*
X1216383D1*
Y650895D1*
G37*
G36*
X1239394D2*
X1222392D1*
Y650628D1*
X1239394D1*
Y650895D1*
G37*
G36*
X1262896D2*
X1244139D1*
Y650628D1*
X1262896D1*
Y650895D1*
G37*
G36*
X1202386Y651148D2*
X1149149D1*
Y650851D1*
X1202386D1*
Y651148D1*
G37*
G36*
X1216383D2*
X1202639D1*
Y650881D1*
X1216383D1*
Y651148D1*
G37*
G36*
X1239394D2*
X1222392D1*
Y650881D1*
X1239394D1*
Y651148D1*
G37*
G36*
X1262138D2*
X1244645D1*
Y650881D1*
X1262138D1*
Y651148D1*
G37*
G36*
X1202148Y651386D2*
X1148896D1*
Y651104D1*
X1202148D1*
Y651386D1*
G37*
G36*
X1216636D2*
X1202639D1*
Y651133D1*
X1216636D1*
Y651386D1*
G37*
G36*
X1239647D2*
X1222139D1*
Y651133D1*
X1239647D1*
Y651386D1*
G37*
G36*
X1261394D2*
X1245389D1*
Y651133D1*
X1261394D1*
Y651386D1*
G37*
G36*
X1201895Y651639D2*
X1148643D1*
Y651342D1*
X1201895D1*
Y651639D1*
G37*
G36*
X1216889D2*
X1202639D1*
Y651371D1*
X1216889D1*
Y651639D1*
G37*
G36*
X1239647D2*
X1222139D1*
Y651371D1*
X1239647D1*
Y651639D1*
G37*
G36*
X1260145D2*
X1246385D1*
Y651371D1*
X1260145D1*
Y651639D1*
G37*
G36*
X1201895Y651892D2*
X1148390D1*
Y651595D1*
X1201895D1*
Y651892D1*
G37*
G36*
X1216889D2*
X1202386D1*
Y651624D1*
X1216889D1*
Y651892D1*
G37*
G36*
X1239885D2*
X1222139D1*
Y651624D1*
X1239885D1*
Y651892D1*
G37*
G36*
X1258895D2*
X1247397D1*
Y651639D1*
X1258895D1*
Y651892D1*
G37*
G36*
X1201642Y652145D2*
X1148390D1*
Y651847D1*
X1201642D1*
Y652145D1*
G37*
G36*
X1217142D2*
X1202386D1*
Y651877D1*
X1217142D1*
Y652145D1*
G37*
G36*
X1239885D2*
X1221887D1*
Y651877D1*
X1239885D1*
Y652145D1*
G37*
G36*
X1257140D2*
X1248884D1*
Y651877D1*
X1257140D1*
Y652145D1*
G37*
G36*
X1201389Y652383D2*
X1148137D1*
Y652100D1*
X1201389D1*
Y652383D1*
G37*
G36*
X1217394D2*
X1202386D1*
Y652130D1*
X1217394D1*
Y652383D1*
G37*
G36*
X1240138D2*
X1221649D1*
Y652130D1*
X1240138D1*
Y652383D1*
G37*
G36*
X1254641D2*
X1251145D1*
Y652145D1*
X1254641D1*
Y652383D1*
G37*
G36*
X1201389Y652636D2*
X1147884D1*
Y652353D1*
X1201389D1*
Y652636D1*
G37*
G36*
X1217647D2*
X1202148D1*
Y652383D1*
X1217647D1*
Y652636D1*
G37*
G36*
X1240138D2*
X1221649D1*
Y652368D1*
X1240138D1*
Y652636D1*
G37*
G36*
X1201136Y652889D2*
X1147884D1*
Y652606D1*
X1201136D1*
Y652889D1*
G37*
G36*
X1217885D2*
X1202148D1*
Y652636D1*
X1217885D1*
Y652889D1*
G37*
G36*
X1240391D2*
X1221396D1*
Y652621D1*
X1240391D1*
Y652889D1*
G37*
G36*
X1200883Y653142D2*
X1147646D1*
Y652844D1*
X1200883D1*
Y653142D1*
G37*
G36*
X1218138D2*
X1202148D1*
Y652874D1*
X1218138D1*
Y653142D1*
G37*
G36*
X1240391D2*
X1221143D1*
Y652874D1*
X1240391D1*
Y653142D1*
G37*
G36*
X1200883Y653394D2*
X1147394D1*
Y653097D1*
X1200883D1*
Y653394D1*
G37*
G36*
X1218391D2*
X1201895D1*
Y653127D1*
X1218391D1*
Y653394D1*
G37*
G36*
X1240391D2*
X1220890D1*
Y653127D1*
X1240391D1*
Y653394D1*
G37*
G36*
X1200645Y653647D2*
X1147141D1*
Y653350D1*
X1200645D1*
Y653647D1*
G37*
G36*
X1218897D2*
X1201895D1*
Y653380D1*
X1218897D1*
Y653647D1*
G37*
G36*
X1240644D2*
X1220637D1*
Y653380D1*
X1240644D1*
Y653647D1*
G37*
G36*
X1200392Y653885D2*
X1147141D1*
Y653603D1*
X1200392D1*
Y653885D1*
G37*
G36*
X1240644D2*
X1201642D1*
Y653603D1*
X1240644D1*
Y653885D1*
G37*
G36*
X1200392Y654138D2*
X1146888D1*
Y653841D1*
X1200392D1*
Y654138D1*
G37*
G36*
X1240897D2*
X1201642D1*
Y653856D1*
X1240897D1*
Y654138D1*
G37*
G36*
X1200140Y654391D2*
X1146635D1*
Y654094D1*
X1200140D1*
Y654391D1*
G37*
G36*
X1240897D2*
X1201642D1*
Y654108D1*
X1240897D1*
Y654391D1*
G37*
G36*
X1199887Y654644D2*
X1146635D1*
Y654346D1*
X1199887D1*
Y654644D1*
G37*
G36*
X1240897D2*
X1201389D1*
Y654361D1*
X1240897D1*
Y654644D1*
G37*
G36*
X1199649Y654882D2*
X1146397D1*
Y654599D1*
X1199649D1*
Y654882D1*
G37*
G36*
X1241135D2*
X1201389D1*
Y654614D1*
X1241135D1*
Y654882D1*
G37*
G36*
X1199649Y655135D2*
X1146144D1*
Y654852D1*
X1199649D1*
Y655135D1*
G37*
G36*
X1241135D2*
X1201389D1*
Y654852D1*
X1241135D1*
Y655135D1*
G37*
G36*
X1199396Y655388D2*
X1145891D1*
Y655105D1*
X1199396D1*
Y655388D1*
G37*
G36*
X1241135D2*
X1201136D1*
Y655105D1*
X1241135D1*
Y655388D1*
G37*
G36*
X1199143Y655641D2*
X1145891D1*
Y655343D1*
X1199143D1*
Y655641D1*
G37*
G36*
X1241387D2*
X1201136D1*
Y655358D1*
X1241387D1*
Y655641D1*
G37*
G36*
X1198890Y655893D2*
X1145638D1*
Y655596D1*
X1198890D1*
Y655893D1*
G37*
G36*
X1241387D2*
X1201136D1*
Y655611D1*
X1241387D1*
Y655893D1*
G37*
G36*
X1198637Y656146D2*
X1145638D1*
Y655849D1*
X1198637D1*
Y656146D1*
G37*
G36*
X1241387D2*
X1201136D1*
Y655864D1*
X1241387D1*
Y656146D1*
G37*
G36*
X1198384Y656384D2*
X1145385D1*
Y656102D1*
X1198384D1*
Y656384D1*
G37*
G36*
X1241387D2*
X1200883D1*
Y656102D1*
X1241387D1*
Y656384D1*
G37*
G36*
X1198146Y656637D2*
X1145385D1*
Y656355D1*
X1198146D1*
Y656637D1*
G37*
G36*
X1241640D2*
X1200883D1*
Y656355D1*
X1241640D1*
Y656637D1*
G37*
G36*
X1197894Y656890D2*
X1145147D1*
Y656593D1*
X1197894D1*
Y656890D1*
G37*
G36*
X1241640D2*
X1200883D1*
Y656607D1*
X1241640D1*
Y656890D1*
G37*
G36*
X1197641Y657143D2*
X1145147D1*
Y656845D1*
X1197641D1*
Y657143D1*
G37*
G36*
X1241640D2*
X1200883D1*
Y656860D1*
X1241640D1*
Y657143D1*
G37*
G36*
X1197388Y657396D2*
X1144895D1*
Y657098D1*
X1197388D1*
Y657396D1*
G37*
G36*
X1241640D2*
X1200645D1*
Y657113D1*
X1241640D1*
Y657396D1*
G37*
G36*
X1197135Y657634D2*
X1144895D1*
Y657351D1*
X1197135D1*
Y657634D1*
G37*
G36*
X1241893D2*
X1200645D1*
Y657351D1*
X1241893D1*
Y657634D1*
G37*
G36*
X1196897Y657887D2*
X1144895D1*
Y657604D1*
X1196897D1*
Y657887D1*
G37*
G36*
X1241893D2*
X1200645D1*
Y657604D1*
X1241893D1*
Y657887D1*
G37*
G36*
X1196644Y658140D2*
X1144895D1*
Y657842D1*
X1196644D1*
Y658140D1*
G37*
G36*
X1241893D2*
X1200645D1*
Y657857D1*
X1241893D1*
Y658140D1*
G37*
G36*
X1196391Y658392D2*
X1144642D1*
Y658095D1*
X1196391D1*
Y658392D1*
G37*
G36*
X1241893D2*
X1200645D1*
Y658110D1*
X1241893D1*
Y658392D1*
G37*
G36*
X1195885Y658645D2*
X1144642D1*
Y658348D1*
X1195885D1*
Y658645D1*
G37*
G36*
X1241893D2*
X1200392D1*
Y658363D1*
X1241893D1*
Y658645D1*
G37*
G36*
X1195647Y658883D2*
X1144642D1*
Y658601D1*
X1195647D1*
Y658883D1*
G37*
G36*
X1242146D2*
X1200392D1*
Y658601D1*
X1242146D1*
Y658883D1*
G37*
G36*
X1195395Y659136D2*
X1144642D1*
Y658854D1*
X1195395D1*
Y659136D1*
G37*
G36*
X1242146D2*
X1200392D1*
Y658854D1*
X1242146D1*
Y659136D1*
G37*
G36*
X1194889Y659389D2*
X1144642D1*
Y659106D1*
X1194889D1*
Y659389D1*
G37*
G36*
X1242146D2*
X1200392D1*
Y659106D1*
X1242146D1*
Y659389D1*
G37*
G36*
X1194636Y659642D2*
X1144895D1*
Y659344D1*
X1194636D1*
Y659642D1*
G37*
G36*
X1242146D2*
X1200392D1*
Y659359D1*
X1242146D1*
Y659642D1*
G37*
G36*
X1194145Y659895D2*
X1144895D1*
Y659597D1*
X1194145D1*
Y659895D1*
G37*
G36*
X1242146D2*
X1200392D1*
Y659612D1*
X1242146D1*
Y659895D1*
G37*
G36*
X1193892Y660148D2*
X1144895D1*
Y659850D1*
X1193892D1*
Y660148D1*
G37*
G36*
X1242146D2*
X1200392D1*
Y659850D1*
X1242146D1*
Y660148D1*
G37*
G36*
X1193386Y660386D2*
X1144895D1*
Y660103D1*
X1193386D1*
Y660386D1*
G37*
G36*
X1242146D2*
X1200392D1*
Y660103D1*
X1242146D1*
Y660386D1*
G37*
G36*
X1192896Y660639D2*
X1145147D1*
Y660356D1*
X1192896D1*
Y660639D1*
G37*
G36*
X1242146D2*
X1200392D1*
Y660356D1*
X1242146D1*
Y660639D1*
G37*
G36*
X1192390Y660891D2*
X1145147D1*
Y660609D1*
X1192390D1*
Y660891D1*
G37*
G36*
X1242146D2*
X1200392D1*
Y660609D1*
X1242146D1*
Y660891D1*
G37*
G36*
X1191884Y661144D2*
X1145147D1*
Y660847D1*
X1191884D1*
Y661144D1*
G37*
G36*
X1242146D2*
X1200392D1*
Y660862D1*
X1242146D1*
Y661144D1*
G37*
G36*
X1191393Y661382D2*
X1145385D1*
Y661100D1*
X1191393D1*
Y661382D1*
G37*
G36*
X1242384D2*
X1200392D1*
Y661115D1*
X1242384D1*
Y661382D1*
G37*
G36*
X1190887Y661635D2*
X1145638D1*
Y661353D1*
X1190887D1*
Y661635D1*
G37*
G36*
X1242384D2*
X1200392D1*
Y661353D1*
X1242384D1*
Y661635D1*
G37*
G36*
X1190144Y661888D2*
X1145638D1*
Y661605D1*
X1190144D1*
Y661888D1*
G37*
G36*
X1242384D2*
X1200392D1*
Y661605D1*
X1242384D1*
Y661888D1*
G37*
G36*
X1189638Y662141D2*
X1145891D1*
Y661858D1*
X1189638D1*
Y662141D1*
G37*
G36*
X1242384D2*
X1200392D1*
Y661858D1*
X1242384D1*
Y662141D1*
G37*
G36*
X1188894Y662394D2*
X1146144D1*
Y662111D1*
X1188894D1*
Y662394D1*
G37*
G36*
X1242384D2*
X1200392D1*
Y662111D1*
X1242384D1*
Y662394D1*
G37*
G36*
X1188136Y662647D2*
X1146144D1*
Y662349D1*
X1188136D1*
Y662647D1*
G37*
G36*
X1242384D2*
X1200392D1*
Y662349D1*
X1242384D1*
Y662647D1*
G37*
G36*
X1187392Y662885D2*
X1146397D1*
Y662602D1*
X1187392D1*
Y662885D1*
G37*
G36*
X1242384D2*
X1200392D1*
Y662602D1*
X1242384D1*
Y662885D1*
G37*
G36*
X1186395Y663138D2*
X1146635D1*
Y662855D1*
X1186395D1*
Y663138D1*
G37*
G36*
X1242384D2*
X1200392D1*
Y662855D1*
X1242384D1*
Y663138D1*
G37*
G36*
X1185384Y663390D2*
X1147141D1*
Y663108D1*
X1185384D1*
Y663390D1*
G37*
G36*
X1242384D2*
X1200392D1*
Y663108D1*
X1242384D1*
Y663390D1*
G37*
G36*
X1184134Y663643D2*
X1147646D1*
Y663361D1*
X1184134D1*
Y663643D1*
G37*
G36*
X1242384D2*
X1200392D1*
Y663361D1*
X1242384D1*
Y663643D1*
G37*
G36*
X1182647Y663896D2*
X1148137D1*
Y663614D1*
X1182647D1*
Y663896D1*
G37*
G36*
X1242384D2*
X1200392D1*
Y663614D1*
X1242384D1*
Y663896D1*
G37*
G36*
X1180386Y664134D2*
X1149149D1*
Y663866D1*
X1180386D1*
Y664134D1*
G37*
G36*
X1242384D2*
X1200392D1*
Y663852D1*
X1242384D1*
Y664134D1*
G37*
G36*
Y664387D2*
X1200392D1*
Y664104D1*
X1242384D1*
Y664387D1*
G37*
G36*
Y664640D2*
X1200392D1*
Y664357D1*
X1242384D1*
Y664640D1*
G37*
G36*
X1242146Y664893D2*
X1200645D1*
Y664610D1*
X1242146D1*
Y664893D1*
G37*
G36*
Y665146D2*
X1200645D1*
Y664863D1*
X1242146D1*
Y665146D1*
G37*
G36*
Y665384D2*
X1200645D1*
Y665101D1*
X1242146D1*
Y665384D1*
G37*
G36*
Y665637D2*
X1200645D1*
Y665354D1*
X1242146D1*
Y665637D1*
G37*
G36*
Y665889D2*
X1200645D1*
Y665607D1*
X1242146D1*
Y665889D1*
G37*
G36*
Y666142D2*
X1200883D1*
Y665860D1*
X1242146D1*
Y666142D1*
G37*
G36*
Y666395D2*
X1200883D1*
Y666113D1*
X1242146D1*
Y666395D1*
G37*
G36*
Y666648D2*
X1200883D1*
Y666351D1*
X1242146D1*
Y666648D1*
G37*
G36*
Y666886D2*
X1200883D1*
Y666603D1*
X1242146D1*
Y666886D1*
G37*
G36*
Y667139D2*
X1200883D1*
Y666856D1*
X1242146D1*
Y667139D1*
G37*
G36*
Y667392D2*
X1201136D1*
Y667109D1*
X1242146D1*
Y667392D1*
G37*
G36*
X1241893Y667645D2*
X1201136D1*
Y667362D1*
X1241893D1*
Y667645D1*
G37*
G36*
Y667883D2*
X1201136D1*
Y667615D1*
X1241893D1*
Y667883D1*
G37*
G36*
Y668136D2*
X1201136D1*
Y667853D1*
X1241893D1*
Y668136D1*
G37*
G36*
Y668388D2*
X1201389D1*
Y668106D1*
X1241893D1*
Y668388D1*
G37*
G36*
Y668641D2*
X1201389D1*
Y668359D1*
X1241893D1*
Y668641D1*
G37*
G36*
Y668894D2*
X1201389D1*
Y668612D1*
X1241893D1*
Y668894D1*
G37*
G36*
X1241640Y669147D2*
X1201642D1*
Y668864D1*
X1241640D1*
Y669147D1*
G37*
G36*
Y669385D2*
X1201642D1*
Y669102D1*
X1241640D1*
Y669385D1*
G37*
G36*
Y669638D2*
X1201642D1*
Y669355D1*
X1241640D1*
Y669638D1*
G37*
G36*
Y669891D2*
X1201895D1*
Y669608D1*
X1241640D1*
Y669891D1*
G37*
G36*
Y670144D2*
X1201895D1*
Y669861D1*
X1241640D1*
Y670144D1*
G37*
G36*
X1241387Y670397D2*
X1201895D1*
Y670114D1*
X1241387D1*
Y670397D1*
G37*
G36*
Y670635D2*
X1202148D1*
Y670352D1*
X1241387D1*
Y670635D1*
G37*
G36*
Y670887D2*
X1202148D1*
Y670605D1*
X1241387D1*
Y670887D1*
G37*
G36*
Y671140D2*
X1202148D1*
Y670858D1*
X1241387D1*
Y671140D1*
G37*
G36*
Y671393D2*
X1202386D1*
Y671111D1*
X1241387D1*
Y671393D1*
G37*
G36*
X1241135Y671646D2*
X1202386D1*
Y671363D1*
X1241135D1*
Y671646D1*
G37*
G36*
Y671884D2*
X1202639D1*
Y671616D1*
X1241135D1*
Y671884D1*
G37*
G36*
Y672137D2*
X1202639D1*
Y671854D1*
X1241135D1*
Y672137D1*
G37*
G36*
X1240897Y672390D2*
X1202639D1*
Y672107D1*
X1240897D1*
Y672390D1*
G37*
G36*
Y672643D2*
X1202891D1*
Y672360D1*
X1240897D1*
Y672643D1*
G37*
G36*
Y672895D2*
X1202891D1*
Y672613D1*
X1240897D1*
Y672895D1*
G37*
G36*
Y673148D2*
X1203144D1*
Y672866D1*
X1240897D1*
Y673148D1*
G37*
G36*
X1240644Y673386D2*
X1203144D1*
Y673119D1*
X1240644D1*
Y673386D1*
G37*
G36*
Y673639D2*
X1203397D1*
Y673357D1*
X1240644D1*
Y673639D1*
G37*
G36*
X1240391Y673892D2*
X1203397D1*
Y673609D1*
X1240391D1*
Y673892D1*
G37*
G36*
Y674145D2*
X1203635D1*
Y673862D1*
X1240391D1*
Y674145D1*
G37*
G36*
Y674383D2*
X1203635D1*
Y674115D1*
X1240391D1*
Y674383D1*
G37*
G36*
Y674636D2*
X1203888D1*
Y674353D1*
X1240391D1*
Y674636D1*
G37*
G36*
X1240138Y674889D2*
X1203888D1*
Y674606D1*
X1240138D1*
Y674889D1*
G37*
G36*
Y675142D2*
X1204141D1*
Y674859D1*
X1240138D1*
Y675142D1*
G37*
G36*
Y675394D2*
X1204141D1*
Y675112D1*
X1240138D1*
Y675394D1*
G37*
G36*
X1239885Y675647D2*
X1204394D1*
Y675365D1*
X1239885D1*
Y675647D1*
G37*
G36*
Y675885D2*
X1204394D1*
Y675618D1*
X1239885D1*
Y675885D1*
G37*
G36*
Y676138D2*
X1204647D1*
Y675856D1*
X1239885D1*
Y676138D1*
G37*
G36*
X1239647Y676391D2*
X1204885D1*
Y676108D1*
X1239647D1*
Y676391D1*
G37*
G36*
Y676644D2*
X1204885D1*
Y676361D1*
X1239647D1*
Y676644D1*
G37*
G36*
Y676882D2*
X1205138D1*
Y676614D1*
X1239647D1*
Y676882D1*
G37*
G36*
X1239394Y677135D2*
X1205390D1*
Y676867D1*
X1239394D1*
Y677135D1*
G37*
G36*
Y677388D2*
X1205390D1*
Y677120D1*
X1239394D1*
Y677388D1*
G37*
G36*
Y677641D2*
X1205643D1*
Y677358D1*
X1239394D1*
Y677641D1*
G37*
G36*
X1239141Y677893D2*
X1205643D1*
Y677611D1*
X1239141D1*
Y677893D1*
G37*
G36*
Y678146D2*
X1205896D1*
Y677864D1*
X1239141D1*
Y678146D1*
G37*
G36*
Y678384D2*
X1206149D1*
Y678117D1*
X1239141D1*
Y678384D1*
G37*
G36*
X1238888Y678637D2*
X1206149D1*
Y678369D1*
X1238888D1*
Y678637D1*
G37*
G36*
Y678890D2*
X1206387D1*
Y678622D1*
X1238888D1*
Y678890D1*
G37*
G36*
Y679143D2*
X1206640D1*
Y678860D1*
X1238888D1*
Y679143D1*
G37*
G36*
X1238636Y679396D2*
X1206893D1*
Y679113D1*
X1238636D1*
Y679396D1*
G37*
G36*
Y679634D2*
X1206893D1*
Y679366D1*
X1238636D1*
Y679634D1*
G37*
G36*
Y679887D2*
X1207146D1*
Y679619D1*
X1238636D1*
Y679887D1*
G37*
G36*
Y680140D2*
X1207384D1*
Y679857D1*
X1238636D1*
Y680140D1*
G37*
G36*
X1238383Y680392D2*
X1207637D1*
Y680110D1*
X1238383D1*
Y680392D1*
G37*
G36*
Y680645D2*
X1207637D1*
Y680363D1*
X1238383D1*
Y680645D1*
G37*
G36*
X1238145Y680883D2*
X1207889D1*
Y680616D1*
X1238145D1*
Y680883D1*
G37*
G36*
Y681136D2*
X1208142D1*
Y680868D1*
X1238145D1*
Y681136D1*
G37*
G36*
Y681389D2*
X1208142D1*
Y681121D1*
X1238145D1*
Y681389D1*
G37*
G36*
Y681642D2*
X1208395D1*
Y681359D1*
X1238145D1*
Y681642D1*
G37*
G36*
X1237892Y681895D2*
X1208648D1*
Y681612D1*
X1237892D1*
Y681895D1*
G37*
G36*
Y682148D2*
X1208886D1*
Y681865D1*
X1237892D1*
Y682148D1*
G37*
G36*
Y682386D2*
X1208886D1*
Y682118D1*
X1237892D1*
Y682386D1*
G37*
G36*
X1237639Y682639D2*
X1209139D1*
Y682371D1*
X1237639D1*
Y682639D1*
G37*
G36*
Y682891D2*
X1209392D1*
Y682624D1*
X1237639D1*
Y682891D1*
G37*
G36*
Y683144D2*
X1209645D1*
Y682862D1*
X1237639D1*
Y683144D1*
G37*
G36*
X1237386Y683382D2*
X1209645D1*
Y683115D1*
X1237386D1*
Y683382D1*
G37*
G36*
Y683635D2*
X1209883D1*
Y683367D1*
X1237386D1*
Y683635D1*
G37*
G36*
Y683888D2*
X1210135D1*
Y683620D1*
X1237386D1*
Y683888D1*
G37*
G36*
X1237148Y684141D2*
X1210135D1*
Y683873D1*
X1237148D1*
Y684141D1*
G37*
G36*
Y684394D2*
X1210388D1*
Y684126D1*
X1237148D1*
Y684394D1*
G37*
G36*
Y684647D2*
X1210641D1*
Y684364D1*
X1237148D1*
Y684647D1*
G37*
G36*
X1236895Y684885D2*
X1210641D1*
Y684617D1*
X1236895D1*
Y684885D1*
G37*
G36*
Y685138D2*
X1210894D1*
Y684870D1*
X1236895D1*
Y685138D1*
G37*
G36*
Y685390D2*
X1211147D1*
Y685123D1*
X1236895D1*
Y685390D1*
G37*
G36*
X1236642Y685643D2*
X1211385D1*
Y685376D1*
X1236642D1*
Y685643D1*
G37*
G36*
Y685896D2*
X1211385D1*
Y685628D1*
X1236642D1*
Y685896D1*
G37*
G36*
Y686134D2*
X1211638D1*
Y685866D1*
X1236642D1*
Y686134D1*
G37*
G36*
Y686387D2*
X1211891D1*
Y686119D1*
X1236642D1*
Y686387D1*
G37*
G36*
X1236390Y686640D2*
X1211891D1*
Y686372D1*
X1236390D1*
Y686640D1*
G37*
G36*
Y686893D2*
X1212144D1*
Y686625D1*
X1236390D1*
Y686893D1*
G37*
G36*
Y687146D2*
X1212396D1*
Y686863D1*
X1236390D1*
Y687146D1*
G37*
G36*
X1236137Y687384D2*
X1212634D1*
Y687116D1*
X1236137D1*
Y687384D1*
G37*
G36*
Y687637D2*
X1212634D1*
Y687369D1*
X1236137D1*
Y687637D1*
G37*
G36*
Y687889D2*
X1212887D1*
Y687622D1*
X1236137D1*
Y687889D1*
G37*
G36*
X1235884Y688142D2*
X1213140D1*
Y687875D1*
X1235884D1*
Y688142D1*
G37*
G36*
Y688395D2*
X1213393D1*
Y688127D1*
X1235884D1*
Y688395D1*
G37*
G36*
Y688648D2*
X1213393D1*
Y688365D1*
X1235884D1*
Y688648D1*
G37*
G36*
X1235646Y688886D2*
X1213646D1*
Y688618D1*
X1235646D1*
Y688886D1*
G37*
G36*
Y689139D2*
X1213884D1*
Y688871D1*
X1235646D1*
Y689139D1*
G37*
G36*
Y689392D2*
X1213884D1*
Y689124D1*
X1235646D1*
Y689392D1*
G37*
G36*
X1235393Y689645D2*
X1214137D1*
Y689377D1*
X1235393D1*
Y689645D1*
G37*
G36*
Y689883D2*
X1214390D1*
Y689630D1*
X1235393D1*
Y689883D1*
G37*
G36*
Y690136D2*
X1214643D1*
Y689868D1*
X1235393D1*
Y690136D1*
G37*
G36*
X1235140Y690388D2*
X1214643D1*
Y690121D1*
X1235140D1*
Y690388D1*
G37*
G36*
Y690641D2*
X1214895D1*
Y690374D1*
X1235140D1*
Y690641D1*
G37*
G36*
Y690894D2*
X1215148D1*
Y690626D1*
X1235140D1*
Y690894D1*
G37*
G36*
X1234887Y691147D2*
X1215148D1*
Y690879D1*
X1234887D1*
Y691147D1*
G37*
G36*
Y691385D2*
X1215386D1*
Y691132D1*
X1234887D1*
Y691385D1*
G37*
G36*
Y691638D2*
X1215639D1*
Y691370D1*
X1234887D1*
Y691638D1*
G37*
G36*
X1234634Y691891D2*
X1215892D1*
Y691623D1*
X1234634D1*
Y691891D1*
G37*
G36*
Y692144D2*
X1215892D1*
Y691876D1*
X1234634D1*
Y692144D1*
G37*
G36*
Y692397D2*
X1216145D1*
Y692129D1*
X1234634D1*
Y692397D1*
G37*
G36*
X1234396Y692635D2*
X1216383D1*
Y692382D1*
X1234396D1*
Y692635D1*
G37*
G36*
Y692887D2*
X1216636D1*
Y692620D1*
X1234396D1*
Y692887D1*
G37*
G36*
Y693140D2*
X1216636D1*
Y692873D1*
X1234396D1*
Y693140D1*
G37*
G36*
Y693393D2*
X1216889D1*
Y693125D1*
X1234396D1*
Y693393D1*
G37*
G36*
X1234143Y693646D2*
X1217142D1*
Y693378D1*
X1234143D1*
Y693646D1*
G37*
G36*
Y693884D2*
X1217142D1*
Y693631D1*
X1234143D1*
Y693884D1*
G37*
G36*
X1233891Y694137D2*
X1217394D1*
Y693869D1*
X1233891D1*
Y694137D1*
G37*
G36*
Y694390D2*
X1217647D1*
Y694122D1*
X1233891D1*
Y694390D1*
G37*
G36*
Y694643D2*
X1217647D1*
Y694375D1*
X1233891D1*
Y694643D1*
G37*
G36*
Y694896D2*
X1217885D1*
Y694628D1*
X1233891D1*
Y694896D1*
G37*
G36*
X1233638Y695148D2*
X1218138D1*
Y694881D1*
X1233638D1*
Y695148D1*
G37*
G36*
Y695386D2*
X1218391D1*
Y695134D1*
X1233638D1*
Y695386D1*
G37*
G36*
Y695639D2*
X1218391D1*
Y695372D1*
X1233638D1*
Y695639D1*
G37*
G36*
X1233385Y695892D2*
X1218644D1*
Y695624D1*
X1233385D1*
Y695892D1*
G37*
G36*
Y696145D2*
X1218897D1*
Y695877D1*
X1233385D1*
Y696145D1*
G37*
G36*
Y696383D2*
X1218897D1*
Y696130D1*
X1233385D1*
Y696383D1*
G37*
G36*
X1233147Y696636D2*
X1219135D1*
Y696383D1*
X1233147D1*
Y696636D1*
G37*
G36*
Y696889D2*
X1219388D1*
Y696636D1*
X1233147D1*
Y696889D1*
G37*
G36*
Y697142D2*
X1219640D1*
Y696874D1*
X1233147D1*
Y697142D1*
G37*
G36*
X1232894Y697395D2*
X1219640D1*
Y697127D1*
X1232894D1*
Y697395D1*
G37*
G36*
Y697647D2*
X1219893D1*
Y697380D1*
X1232894D1*
Y697647D1*
G37*
G36*
Y697885D2*
X1220146D1*
Y697633D1*
X1232894D1*
Y697885D1*
G37*
G36*
X1232641Y698138D2*
X1220384D1*
Y697885D1*
X1232641D1*
Y698138D1*
G37*
G36*
Y698391D2*
X1220384D1*
Y698138D1*
X1232641D1*
Y698391D1*
G37*
G36*
Y698644D2*
X1220637D1*
Y698376D1*
X1232641D1*
Y698644D1*
G37*
G36*
X1232388Y698882D2*
X1220890D1*
Y698629D1*
X1232388D1*
Y698882D1*
G37*
G36*
Y699135D2*
X1220890D1*
Y698882D1*
X1232388D1*
Y699135D1*
G37*
G36*
Y699388D2*
X1221143D1*
Y699135D1*
X1232388D1*
Y699388D1*
G37*
G36*
X1232135Y699641D2*
X1221396D1*
Y699388D1*
X1232135D1*
Y699641D1*
G37*
G36*
Y699893D2*
X1221649D1*
Y699626D1*
X1232135D1*
Y699893D1*
G37*
G36*
X1231882Y700146D2*
X1221649D1*
Y699879D1*
X1231882D1*
Y700146D1*
G37*
G36*
Y700384D2*
X1221887D1*
Y700131D1*
X1231882D1*
Y700384D1*
G37*
G36*
X1231644Y700637D2*
X1222139D1*
Y700384D1*
X1231644D1*
Y700637D1*
G37*
G36*
Y700890D2*
X1222392D1*
Y700637D1*
X1231644D1*
Y700890D1*
G37*
G36*
X1231392Y701143D2*
X1222645D1*
Y700875D1*
X1231392D1*
Y701143D1*
G37*
G36*
Y701396D2*
X1222645D1*
Y701128D1*
X1231392D1*
Y701396D1*
G37*
G36*
X1231139Y701634D2*
X1222883D1*
Y701381D1*
X1231139D1*
Y701634D1*
G37*
G36*
X1230886Y701887D2*
X1223136D1*
Y701634D1*
X1230886D1*
Y701887D1*
G37*
G36*
X1230648Y702140D2*
X1223389D1*
Y701887D1*
X1230648D1*
Y702140D1*
G37*
G36*
X1230395Y702392D2*
X1223642D1*
Y702140D1*
X1230395D1*
Y702392D1*
G37*
G36*
X1230142Y702645D2*
X1224148D1*
Y702378D1*
X1230142D1*
Y702645D1*
G37*
G36*
X1229636Y702883D2*
X1224386D1*
Y702630D1*
X1229636D1*
Y702883D1*
G37*
G36*
X1228893Y703136D2*
X1224891D1*
Y702883D1*
X1228893D1*
Y703136D1*
G37*
G36*
X1228149Y703389D2*
X1225635D1*
Y703136D1*
X1228149D1*
Y703389D1*
G37*
X415276Y1194016D2*
D25*
G02X415276Y1194016I78740J0D01*
G01*
Y494016D2*
G02X415276Y494016I78740J0D01*
G01*
X730419Y1272140D2*
X907613D1*
X976499Y1134321D2*
Y976835D1*
X943031D1*
Y1075282D1*
X887902D1*
X750129D2*
X695000D1*
Y976835D1*
X661532D1*
Y1134321D1*
X2385827Y1158984D2*
D36*
Y529047D1*
X1440921D1*
Y1158984D1*
X2385827D1*
X2078725Y1080209D2*
Y607823D1*
X1488219D1*
Y1080209D1*
X2078725D1*
X612327Y942433D2*
Y910954D1*
Y777078D2*
Y745599D1*
X435152Y993611D2*
X399727D1*
Y694421D1*
X435152D1*
X1160460Y1026291D2*
D101*
X1156658Y1024390D1*
X1152811Y1020543D1*
X1150910Y1016740D1*
Y1009091D1*
X1152811Y1005244D1*
X1156658Y1001442D1*
X1160460Y999496D1*
X1166208Y997595D1*
X1175803D1*
X1181507Y999496D1*
X1185354Y1001442D1*
X1189156Y1005244D1*
X1191102Y1009091D1*
Y1016740D1*
X1189156Y1020543D1*
X1185354Y1024389D1*
X1181507Y1026291D1*
X1160505Y1040588D2*
X1158603D1*
X1154757Y1042489D1*
X1152855Y1044390D1*
X1150954Y1048237D1*
Y1055886D1*
X1152855Y1059689D1*
X1154757Y1061590D1*
X1158603Y1063536D1*
X1162406D1*
X1166253Y1061590D1*
X1171956Y1057787D1*
X1191102Y1038642D1*
Y1065437D1*
X823791Y952571D2*
X821889Y956374D1*
X818043Y960220D1*
X814240Y962122D1*
X806591D1*
X802744Y960220D1*
X798942Y956374D1*
X796996Y952571D1*
X795095Y946823D1*
Y937228D1*
X796996Y931525D1*
X798942Y927678D1*
X802744Y923875D1*
X806591Y921930D1*
X814240D1*
X818043Y923875D1*
X821889Y927678D1*
X823791Y931525D1*
X839989Y962078D2*
X860991D1*
X849539Y946779D1*
X855287D1*
X859090Y944878D1*
X860991Y942976D1*
X862937Y937228D1*
Y933426D1*
X860991Y927678D1*
X857189Y923831D1*
X851441Y921930D1*
X845693D1*
X839989Y923831D1*
X838088Y925777D1*
X836142Y929579D1*
X633886Y899960D2*
X630083Y898059D1*
X626236Y894212D1*
X624335Y890410D1*
Y882761D1*
X626236Y878914D1*
X630083Y875111D1*
X633886Y873166D1*
X639634Y871264D1*
X649228D1*
X654932Y873166D1*
X658779Y875111D1*
X662581Y878914D1*
X664527Y882760D1*
Y890410D1*
X662582Y894212D1*
X658779Y898059D1*
X654932Y899960D1*
X630083Y935260D2*
X626280Y933358D1*
X624379Y927610D1*
Y923808D1*
X626280Y918060D1*
X632029Y914213D1*
X641579Y912312D1*
X651130D1*
X658779Y914213D1*
X662626Y918060D1*
X664527Y923808D1*
Y925709D1*
X662626Y931413D1*
X658779Y935260D1*
X653031Y937161D1*
X651130D1*
X645382Y935260D1*
X641579Y931413D1*
X639678Y925709D1*
Y923808D1*
X641579Y918060D1*
X645382Y914213D1*
X651130Y912312D1*
X800618Y576783D2*
X796815Y574882D1*
X792969Y571035D1*
X791067Y567232D1*
Y559583D1*
X792968Y555736D1*
X796815Y551934D1*
X800618Y549988D1*
X806366Y548087D1*
X815961D1*
X821664Y549988D1*
X825511Y551934D1*
X829314Y555736D1*
X831259Y559583D1*
Y567232D1*
X829314Y571035D1*
X825511Y574882D1*
X821664Y576783D1*
X831259Y596784D2*
X791111Y615929D1*
Y589134D1*
X881051Y886451D2*
X877248Y884549D1*
X873402Y880703D1*
X871500Y876900D1*
Y869251D1*
X873402Y865404D1*
X877248Y861602D1*
X881051Y859656D1*
X886799Y857755D1*
X896394D1*
X902098Y859656D1*
X905944Y861602D1*
X909747Y865404D1*
X911692Y869251D1*
Y876900D1*
X909747Y880703D1*
X905944Y884549D1*
X902098Y886451D1*
X871545Y908353D2*
X873446Y902649D1*
X877248Y900703D1*
X881095D1*
X884898Y902649D1*
X886843Y906451D1*
X888744Y914101D1*
X890646Y919849D1*
X894492Y923651D1*
X898295Y925552D1*
X904043D1*
X907846Y923651D1*
X909791Y921750D1*
X911692Y916002D1*
Y908353D1*
X909791Y902649D1*
X907846Y900703D1*
X904043Y898802D1*
X898295D1*
X894492Y900703D1*
X890646Y904550D1*
X888744Y910254D1*
X886843Y917903D1*
X884898Y921750D1*
X881095Y923651D1*
X877248D1*
X873446Y921750D1*
X871545Y916002D1*
Y908353D1*
X463267Y687658D2*
X461366Y691460D1*
X457519Y695307D1*
X453716Y697208D1*
X446067D1*
X442220Y695307D1*
X438418Y691460D1*
X436472Y687658D1*
X434571Y681910D1*
Y672315D1*
X436472Y666611D1*
X438418Y662764D1*
X442220Y658962D1*
X446067Y657016D1*
X453716D1*
X457519Y658962D1*
X461366Y662764D1*
X463267Y666611D1*
X475618Y697208D2*
Y657016D1*
X502413Y697208D2*
Y657016D1*
X475618Y678063D2*
X502413D1*
X543460Y687658D2*
X541559Y691460D1*
X537712Y695307D1*
X533910Y697208D1*
X526261D1*
X522414Y695307D1*
X518611Y691460D1*
X516666Y687658D1*
X514764Y681910D1*
Y672315D1*
X516666Y666611D1*
X518611Y662764D1*
X522414Y658962D1*
X526261Y657016D1*
X533910D1*
X537712Y658962D1*
X541559Y662764D1*
X543460Y666611D1*
Y672315D1*
X533910D1*
X473545Y1159708D2*
Y1119516D1*
X486943D1*
X492691Y1121462D1*
X496538Y1125264D1*
X498439Y1129111D1*
X500340Y1134815D1*
Y1144410D1*
X498439Y1150158D1*
X496538Y1153960D1*
X492691Y1157807D1*
X486943Y1159708D1*
X473545D1*
X516538Y1159664D2*
X537541D1*
X526089Y1144366D1*
X531837D1*
X535639Y1142464D1*
X537541Y1140563D1*
X539486Y1134815D1*
Y1131012D1*
X537541Y1125264D1*
X533738Y1121418D1*
X527990Y1119516D1*
X522242D1*
X516538Y1121418D1*
X514637Y1123363D1*
X512691Y1127166D1*
X1065095Y1220153D2*
Y1179961D1*
X1078492D1*
X1084240Y1181907D1*
X1088087Y1185709D1*
X1089988Y1189556D1*
X1091889Y1195260D1*
Y1204855D1*
X1089988Y1210603D1*
X1088087Y1214405D1*
X1084240Y1218252D1*
X1078492Y1220153D1*
X1065095D1*
X1123386Y1179961D2*
Y1220109D1*
X1104241Y1193359D1*
X1132937D1*
X987263Y802082D2*
Y761890D1*
X1028310Y792532D2*
X1026409Y796334D1*
X1022562Y800181D1*
X1018760Y802082D1*
X1011111D1*
X1007264Y800181D1*
X1003461Y796334D1*
X1001516Y792532D1*
X999614Y786784D1*
Y777189D1*
X1001516Y771485D1*
X1003461Y767638D1*
X1007264Y763836D1*
X1011111Y761890D1*
X1018760D1*
X1022562Y763836D1*
X1026409Y767638D1*
X1028310Y771485D1*
X1040662Y794389D2*
X1044509Y796334D1*
X1050257Y802038D1*
Y761890D1*
X1381542Y535594D2*
Y504997D1*
X1379641Y499249D1*
X1377696Y497348D1*
X1373893Y495402D1*
X1370046D1*
X1366244Y497348D1*
X1364342Y499249D1*
X1362397Y504997D1*
Y508800D1*
X1393894Y514548D2*
X1411138D1*
X1416842Y516449D1*
X1418787Y518394D1*
X1420688Y522197D1*
Y527945D1*
X1418787Y531747D1*
X1416842Y533693D1*
X1411138Y535594D1*
X1393894D1*
Y495402D1*
X1433040Y527901D2*
X1436887Y529846D1*
X1442635Y535550D1*
Y495402D1*
X1555942Y1335594D2*
Y1304997D1*
X1554041Y1299249D1*
X1552096Y1297348D1*
X1548293Y1295402D1*
X1544446D1*
X1540644Y1297348D1*
X1538742Y1299249D1*
X1536797Y1304997D1*
Y1308800D1*
X1568294Y1314548D2*
X1585538D1*
X1591242Y1316449D1*
X1593187Y1318394D1*
X1595088Y1322197D1*
Y1327945D1*
X1593187Y1331747D1*
X1591242Y1333693D1*
X1585538Y1335594D1*
X1568294D1*
Y1295402D1*
X1611287Y1335550D2*
X1632289D1*
X1620837Y1320251D1*
X1626585D1*
X1630388Y1318350D1*
X1632289Y1316449D1*
X1634234Y1310701D1*
Y1306898D1*
X1632289Y1301150D1*
X1628486Y1297303D1*
X1622738Y1295402D1*
X1616990D1*
X1611287Y1297303D1*
X1609385Y1299249D1*
X1607440Y1303052D1*
X1324218Y824681D2*
X1320415Y822824D1*
X1316569Y818977D1*
X1314667Y815130D1*
X1312722Y809382D1*
Y799832D1*
X1314667Y794084D1*
X1316569Y790281D1*
X1320415Y786434D1*
X1324218Y784533D1*
X1331867D1*
X1335714Y786434D1*
X1339517Y790281D1*
X1341418Y794084D1*
X1343363Y799832D1*
Y809382D1*
X1341418Y815130D1*
X1339517Y818977D1*
X1335714Y822824D1*
X1331867Y824681D1*
X1324218D1*
X1329966Y792182D2*
X1341418Y780686D1*
X1355715Y816987D2*
X1359562Y818933D1*
X1365310Y824637D1*
Y784489D1*
X1315618Y1103618D2*
X1311816Y1101761D1*
X1307969Y1097914D1*
X1306067Y1094067D1*
X1304122Y1088319D1*
Y1078769D1*
X1306067Y1073021D1*
X1307969Y1069218D1*
X1311816Y1065371D1*
X1315618Y1063470D1*
X1323267D1*
X1327114Y1065371D1*
X1330917Y1069218D1*
X1332818Y1073021D1*
X1334763Y1078769D1*
Y1088319D1*
X1332818Y1094067D1*
X1330917Y1097914D1*
X1327114Y1101761D1*
X1323267Y1103618D1*
X1315618D1*
X1321366Y1071119D2*
X1332818Y1059623D1*
X1349060Y1094023D2*
Y1095924D1*
X1350962Y1099771D1*
X1352863Y1101672D1*
X1356710Y1103574D1*
X1364359D1*
X1368161Y1101672D1*
X1370063Y1099771D1*
X1372008Y1095924D1*
Y1092122D1*
X1370063Y1088275D1*
X1366260Y1082571D1*
X1347115Y1063426D1*
X1373909D1*
X1324645Y1207150D2*
X1341845D1*
X1347593Y1209095D1*
X1349539Y1210996D1*
X1351440Y1214799D1*
Y1218646D1*
X1349539Y1222448D1*
X1347593Y1224394D1*
X1341845Y1226295D1*
X1324645D1*
Y1186103D1*
X1338043Y1207150D2*
X1351440Y1186103D1*
X1363791Y1218601D2*
X1367638Y1220547D1*
X1373386Y1226251D1*
Y1186103D1*
X606045Y627150D2*
X623245D1*
X628993Y629095D1*
X630939Y630996D1*
X632840Y634799D1*
Y638646D1*
X630939Y642448D1*
X628993Y644394D1*
X623245Y646295D1*
X606045D1*
Y606103D1*
X619443Y627150D2*
X632840Y606103D1*
X647137Y636700D2*
Y638601D1*
X649038Y642448D1*
X650939Y644350D1*
X654786Y646251D1*
X662436D1*
X666238Y644350D1*
X668139Y642448D1*
X670085Y638601D1*
Y634799D1*
X668139Y630952D1*
X664337Y625248D1*
X645191Y606103D1*
X671986D1*
X1316045Y1152150D2*
X1333245D1*
X1338993Y1154095D1*
X1340939Y1155996D1*
X1342840Y1159799D1*
Y1163646D1*
X1340939Y1167448D1*
X1338993Y1169394D1*
X1333245Y1171295D1*
X1316045D1*
Y1131103D1*
X1329443Y1152150D2*
X1342840Y1131103D1*
X1359038Y1171251D2*
X1380041D1*
X1368589Y1155952D1*
X1374337D1*
X1378139Y1154051D1*
X1380041Y1152150D1*
X1381986Y1146402D1*
Y1142599D1*
X1380041Y1136851D1*
X1376238Y1133004D1*
X1370490Y1131103D1*
X1364742D1*
X1359038Y1133004D1*
X1357137Y1134950D1*
X1355191Y1138752D1*
X1305095Y932150D2*
X1322295D1*
X1328043Y934095D1*
X1329988Y935996D1*
X1331889Y939799D1*
Y943646D1*
X1329988Y947448D1*
X1328043Y949394D1*
X1322295Y951295D1*
X1305095D1*
Y911103D1*
X1318492Y932150D2*
X1331889Y911103D1*
X1363386D2*
Y951251D1*
X1344241Y924500D1*
X1372937D1*
X1306045Y864198D2*
X1323245D1*
X1328993Y866143D1*
X1330939Y868044D1*
X1332840Y871847D1*
Y875694D1*
X1330939Y879496D1*
X1328993Y881442D1*
X1323245Y883343D1*
X1306045D1*
Y843151D1*
X1319443Y864198D2*
X1332840Y843151D1*
X1368139Y883299D2*
X1349038D1*
X1347137Y866099D1*
X1349038Y868000D1*
X1354786Y869946D1*
X1360490D1*
X1366238Y868000D1*
X1370085Y864198D1*
X1371986Y858449D1*
Y854647D1*
X1370085Y848899D1*
X1366238Y845052D1*
X1360490Y843151D1*
X1354786D1*
X1349038Y845052D1*
X1347137Y846998D1*
X1345191Y850800D1*
X1322018Y617150D2*
X1339218D1*
X1344966Y619095D1*
X1346912Y620996D1*
X1348813Y624799D1*
Y628646D1*
X1346912Y632448D1*
X1344966Y634394D1*
X1339218Y636295D1*
X1322018D1*
Y596103D1*
X1335415Y617150D2*
X1348813Y596103D1*
X1384112Y630547D2*
X1382211Y634350D1*
X1376463Y636251D1*
X1372660D1*
X1366912Y634350D1*
X1363065Y628601D1*
X1361164Y619051D1*
Y609500D1*
X1363065Y601851D1*
X1366912Y598004D1*
X1372660Y596103D1*
X1374562D1*
X1380265Y598004D1*
X1384112Y601851D1*
X1386013Y607599D1*
Y609500D1*
X1384112Y615248D1*
X1380265Y619051D1*
X1374562Y620952D1*
X1372660D1*
X1366912Y619051D1*
X1363065Y615248D1*
X1361164Y609500D1*
X1061045Y1142150D2*
X1078245D1*
X1083993Y1144095D1*
X1085939Y1145996D1*
X1087840Y1149799D1*
Y1153646D1*
X1085939Y1157448D1*
X1083993Y1159394D1*
X1078245Y1161295D1*
X1061045D1*
Y1121103D1*
X1074443Y1142150D2*
X1087840Y1121103D1*
X1107841D2*
X1126986Y1161251D1*
X1100191D1*
X1145882Y861068D2*
Y878267D1*
X1143936Y884015D1*
X1142035Y885961D1*
X1138233Y887862D1*
X1134386D1*
X1130583Y885961D1*
X1128638Y884016D1*
X1126737Y878267D1*
X1126736Y861068D1*
X1166929D1*
X1145882Y874465D2*
X1166929Y887862D1*
X1126781Y909764D2*
X1128682Y904060D1*
X1132485Y902115D1*
X1136331D1*
X1140134Y904060D1*
X1142079Y907863D1*
X1143981Y915512D1*
X1145882Y921260D1*
X1149729Y925063D1*
X1153531Y926964D1*
X1159279D1*
X1163082Y925063D1*
X1165027Y923161D1*
X1166929Y917413D1*
Y909764D1*
X1165027Y904060D1*
X1163082Y902115D1*
X1159279Y900214D1*
X1153531D1*
X1149729Y902115D1*
X1145882Y905962D1*
X1143981Y911665D1*
X1142079Y919315D1*
X1140134Y923162D1*
X1136331Y925063D1*
X1132485D1*
X1128682Y923162D1*
X1126781Y917413D1*
Y909764D1*
X1321996Y672150D2*
X1339196D1*
X1344944Y674095D1*
X1346889Y675996D1*
X1348791Y679799D1*
Y683646D1*
X1346889Y687448D1*
X1344944Y689394D1*
X1339196Y691295D1*
X1321996D1*
Y651103D1*
X1335393Y672150D2*
X1348791Y651103D1*
X1386035Y677898D2*
X1384090Y672150D1*
X1380287Y668303D1*
X1374539Y666402D1*
X1372638D1*
X1366890Y668303D1*
X1363088Y672150D1*
X1361142Y677898D1*
Y679799D1*
X1363088Y685547D1*
X1366890Y689350D1*
X1372638Y691251D1*
X1374539D1*
X1380287Y689350D1*
X1384090Y685547D1*
X1386035Y677898D1*
Y668303D1*
X1384090Y658752D1*
X1380287Y653004D1*
X1374539Y651103D1*
X1370737D1*
X1364989Y653004D1*
X1363088Y656851D1*
X545882Y1180072D2*
Y1197272D1*
X543936Y1203020D1*
X542035Y1204966D1*
X538233Y1206867D1*
X534386D1*
X530583Y1204966D1*
X528638Y1203020D1*
X526737Y1197272D1*
X526736Y1180072D1*
X566929D1*
X545882Y1193470D2*
X566929Y1206867D1*
X534430Y1219218D2*
X532485Y1223065D1*
X526781Y1228813D1*
X566929D1*
X526781Y1252661D2*
X528682Y1246913D1*
X534430Y1243066D1*
X543981Y1241165D1*
X549729D1*
X559279Y1243066D1*
X565027Y1246913D1*
X566929Y1252661D1*
Y1256463D1*
X565027Y1262211D1*
X559279Y1266014D1*
X549729Y1267959D1*
X543981D1*
X534430Y1266014D1*
X528682Y1262211D1*
X526781Y1256463D1*
Y1252661D1*
X534430Y1266014D2*
X559279Y1243066D1*
X1118835Y688672D2*
Y705872D1*
X1116889Y711620D1*
X1114988Y713566D1*
X1111185Y715467D1*
X1107339D1*
X1103536Y713566D1*
X1101591Y711620D1*
X1099689Y705872D1*
Y688672D1*
X1139881D1*
X1118835Y702070D2*
X1139881Y715467D1*
X1107383Y727818D2*
X1105437Y731665D1*
X1099734Y737413D1*
X1139881D1*
X1107383Y749765D2*
X1105437Y753611D1*
X1099734Y759359D1*
X1139881D1*
X885692Y871846D2*
X881889Y875693D1*
X876141Y877594D1*
X868492D1*
X862744Y875693D1*
X858897Y871846D1*
Y868044D1*
X860842Y864197D1*
X862744Y862296D1*
X866546Y860394D1*
X878042Y856548D1*
X881889Y854646D1*
X883790Y852701D1*
X885692Y848898D1*
Y843150D1*
X881889Y839348D1*
X876141Y837402D1*
X868492D1*
X862744Y839348D1*
X858897Y843150D1*
X917188Y877594D2*
Y846997D1*
X915287Y841249D1*
X913342Y839348D1*
X909539Y837402D1*
X905692D1*
X901890Y839348D1*
X899988Y841249D1*
X898043Y846997D1*
Y850800D1*
X929540Y869901D2*
X933387Y871846D1*
X939135Y877550D1*
Y837402D1*
X651130Y612519D2*
X647283Y608717D1*
X645382Y602969D1*
Y595319D1*
X647283Y589571D1*
X651130Y585724D1*
X654933D1*
X658780Y587670D1*
X660681Y589571D1*
X662582Y593374D1*
X666429Y604870D1*
X668330Y608717D1*
X670276Y610618D1*
X674078Y612519D1*
X679826D1*
X683629Y608716D1*
X685574Y602968D1*
Y595319D1*
X683629Y589571D1*
X679826Y585724D1*
X645382Y624870D2*
X685574Y634465D1*
X645382Y644016D1*
X685574Y653566D1*
X645382Y663161D1*
X654977Y677458D2*
X653076D1*
X649229Y679359D1*
X647328Y681261D1*
X645426Y685107D1*
Y692757D1*
X647328Y696559D1*
X649229Y698460D1*
X653076Y700406D1*
X656878D1*
X660725Y698460D1*
X666429Y694658D1*
X685574Y675513D1*
Y702307D1*
X1061045Y1107555D2*
Y1078859D1*
X1062947Y1073111D1*
X1066793Y1069308D1*
X1072541Y1067363D1*
X1076344D1*
X1082092Y1069308D1*
X1085939Y1073111D1*
X1087840Y1078859D1*
Y1107555D1*
X1102137Y1097960D2*
Y1099861D1*
X1104038Y1103708D1*
X1105939Y1105609D1*
X1109786Y1107511D1*
X1117436D1*
X1121238Y1105609D1*
X1123139Y1103708D1*
X1125085Y1099861D1*
Y1096059D1*
X1123139Y1092212D1*
X1119337Y1086508D1*
X1100191Y1067363D1*
X1126986D1*
X1061045Y972555D2*
Y943859D1*
X1062947Y938111D1*
X1066793Y934308D1*
X1072541Y932363D1*
X1076344D1*
X1082092Y934308D1*
X1085939Y938111D1*
X1087840Y943859D1*
Y972555D1*
X1104038Y972511D2*
X1125041D1*
X1113589Y957212D1*
X1119337D1*
X1123139Y955311D1*
X1125041Y953409D1*
X1126986Y947661D1*
Y943859D1*
X1125041Y938111D1*
X1121238Y934264D1*
X1115490Y932363D1*
X1109742D1*
X1104038Y934264D1*
X1102137Y936210D1*
X1100191Y940012D1*
X1086063Y565520D2*
X1114759D1*
X1120507Y567421D1*
X1124310Y571268D1*
X1126255Y577016D1*
Y580819D1*
X1124310Y586567D1*
X1120507Y590413D1*
X1114759Y592315D1*
X1086063D1*
X1078436Y614217D2*
X1133927D1*
X1078436Y621866D2*
X1133927D1*
X1091833Y631417D2*
X1088031Y627614D1*
X1086130Y621866D1*
Y614217D1*
X1088031Y608513D1*
X1091833Y604666D1*
X1095680D1*
X1099483Y606567D1*
X1101428Y608513D1*
X1103330Y612315D1*
X1107132Y623767D1*
X1109078Y627614D1*
X1110979Y629515D1*
X1114781Y631417D1*
X1120529D1*
X1124376Y627614D1*
X1126277Y621866D1*
Y614217D1*
X1124376Y608513D1*
X1120529Y604666D1*
X1093757Y643768D2*
X1091811Y647615D1*
X1086108Y653363D1*
X1126255D1*
X1086108Y688662D2*
Y669561D1*
X1103307Y667660D1*
X1101406Y669561D1*
X1099461Y675309D1*
Y681013D1*
X1101406Y686761D1*
X1105209Y690608D1*
X1110957Y692509D1*
X1114759D1*
X1120507Y690608D1*
X1124354Y686761D1*
X1126255Y681013D1*
Y675309D1*
X1124354Y669561D1*
X1122409Y667660D1*
X1118606Y665714D1*
X430521Y1331334D2*
Y1302638D1*
X432423Y1296890D1*
X436269Y1293088D1*
X442017Y1291142D1*
X445820D1*
X451568Y1293088D1*
X455415Y1296890D1*
X457316Y1302638D1*
Y1331334D1*
X479218Y1338962D2*
Y1283471D1*
X486867Y1338962D2*
Y1283471D1*
X496418Y1325564D2*
X492615Y1329367D1*
X486867Y1331268D1*
X479218D1*
X473514Y1329367D1*
X469667Y1325564D1*
Y1321717D1*
X471569Y1317915D1*
X473514Y1315969D1*
X477317Y1314068D1*
X488769Y1310266D1*
X492615Y1308320D1*
X494517Y1306419D1*
X496418Y1302616D1*
Y1296868D1*
X492615Y1293022D1*
X486867Y1291120D1*
X479218D1*
X473514Y1293022D1*
X469667Y1296868D1*
X512616Y1331290D2*
X533618D1*
X522167Y1315992D1*
X527915D1*
X531717Y1314090D1*
X533618Y1312189D1*
X535564Y1306441D1*
Y1302638D1*
X533618Y1296890D1*
X529816Y1293044D1*
X524068Y1291142D1*
X518320D1*
X512616Y1293044D1*
X510715Y1294989D1*
X508769Y1298792D1*
X547915Y1323641D2*
X551762Y1325586D1*
X557510Y1331290D1*
Y1291142D1*
X421921Y631334D2*
Y602638D1*
X423823Y596890D1*
X427669Y593088D1*
X433417Y591142D1*
X437220D1*
X442968Y593088D1*
X446815Y596890D1*
X448716Y602638D1*
Y631334D1*
X470618Y638962D2*
Y583471D1*
X478267Y638962D2*
Y583471D1*
X487818Y625564D2*
X484015Y629367D1*
X478267Y631268D1*
X470618D1*
X464914Y629367D1*
X461067Y625564D1*
Y621717D1*
X462969Y617915D1*
X464914Y615969D1*
X468717Y614068D1*
X480169Y610266D1*
X484015Y608320D1*
X485917Y606419D1*
X487818Y602616D1*
Y596868D1*
X484015Y593022D1*
X478267Y591120D1*
X470618D1*
X464914Y593022D1*
X461067Y596868D1*
X504016Y631290D2*
X525019D1*
X513567Y615992D1*
X519315D1*
X523117Y614090D1*
X525019Y612189D1*
X526964Y606441D1*
Y602638D1*
X525019Y596890D1*
X521216Y593044D1*
X515468Y591142D1*
X509720D1*
X504016Y593044D1*
X502115Y594989D1*
X500169Y598792D1*
X541261Y621740D2*
Y623641D1*
X543162Y627488D1*
X545063Y629389D1*
X548910Y631290D1*
X556560D1*
X560362Y629389D1*
X562263Y627488D1*
X564209Y623641D1*
Y619838D1*
X562263Y615992D1*
X558461Y610288D1*
X539315Y591142D1*
X566110D1*
X745971Y1272122D2*
Y1243426D1*
X747872Y1237678D1*
X751719Y1233875D1*
X757467Y1231930D1*
X761269D1*
X767017Y1233875D1*
X770864Y1237678D1*
X772765Y1243426D1*
Y1272122D1*
X794667Y1279749D2*
Y1224258D1*
X802317Y1279749D2*
Y1224258D1*
X811867Y1266352D2*
X808065Y1270154D1*
X802317Y1272055D1*
X794667D1*
X788964Y1270154D1*
X785117Y1266352D1*
Y1262505D1*
X787018Y1258702D1*
X788964Y1256757D1*
X792766Y1254856D1*
X804218Y1251053D1*
X808065Y1249108D1*
X809966Y1247206D1*
X811867Y1243404D1*
Y1237656D1*
X808065Y1233809D1*
X802317Y1231908D1*
X794667D1*
X788964Y1233809D1*
X785117Y1237656D1*
X828065Y1272078D2*
X849068D1*
X837616Y1256779D1*
X843364D1*
X847167Y1254878D1*
X849068Y1252976D1*
X851013Y1247228D1*
Y1243426D1*
X849068Y1237678D1*
X845265Y1233831D1*
X839517Y1231930D1*
X833769D1*
X828065Y1233831D1*
X826164Y1235777D1*
X824219Y1239579D1*
X882510Y1231930D2*
Y1272078D1*
X863365Y1245327D1*
X892061D1*
X1958780Y942397D2*
Y913701D1*
X1960681Y907953D1*
X1964528Y904151D1*
X1970276Y902205D1*
X1974078D1*
X1979826Y904151D1*
X1983673Y907953D1*
X1985574Y913701D1*
Y942397D1*
X2007476Y950025D2*
Y894534D1*
X2015126Y950025D2*
Y894534D1*
X2024676Y936627D2*
X2020874Y940430D1*
X2015126Y942331D1*
X2007476D1*
X2001773Y940430D1*
X1997926Y936627D1*
Y932780D1*
X1999827Y928978D1*
X2001773Y927032D1*
X2005575Y925131D1*
X2017027Y921329D1*
X2020874Y919383D1*
X2022775Y917482D1*
X2024676Y913679D1*
Y907931D1*
X2020874Y904085D1*
X2015126Y902183D1*
X2007476D1*
X2001773Y904085D1*
X1997926Y907931D1*
X2040874Y942353D2*
X2061877D1*
X2050425Y927055D1*
X2056173D1*
X2059976Y925153D1*
X2061877Y923252D1*
X2063822Y917504D1*
Y913701D1*
X2061877Y907953D1*
X2058074Y904107D1*
X2052326Y902205D1*
X2046578D1*
X2040874Y904107D1*
X2038973Y906052D1*
X2037028Y909855D1*
X2099122Y942353D2*
X2080020D1*
X2078119Y925153D1*
X2080020Y927055D1*
X2085768Y929000D1*
X2091472D1*
X2097220Y927055D1*
X2101067Y923252D1*
X2102968Y917504D1*
Y913701D1*
X2101067Y907953D1*
X2097220Y904107D1*
X2091472Y902205D1*
X2085768D1*
X2080020Y904107D1*
X2078119Y906052D1*
X2076174Y909855D1*
X794645Y1338578D2*
X821440Y1298386D1*
Y1338578D2*
X794645Y1298386D1*
X833791Y1330885D2*
X837638Y1332830D1*
X843386Y1338534D1*
Y1298386D1*
X1875100Y1237240D2*
X1901895Y1197048D1*
Y1237240D2*
X1875100Y1197048D1*
X1916192Y1227645D2*
Y1229546D1*
X1918093Y1233393D1*
X1919995Y1235294D1*
X1923841Y1237196D1*
X1931491D1*
X1935293Y1235294D1*
X1937194Y1233393D1*
X1939140Y1229546D1*
Y1225744D1*
X1937194Y1221897D1*
X1933392Y1216193D1*
X1914247Y1197048D1*
X1941041D1*
X468248Y1107800D2*
X495043Y1067608D1*
Y1107800D2*
X468248Y1067608D1*
X526540D2*
Y1107756D1*
X507394Y1081006D1*
X536090D1*
M02*
